<svg width="226" height="234" viewBox="0 0 226 234" fill="none" xmlns="http://www.w3.org/2000/svg">
<path d="M112.754 192.375C109.566 192.375 107.129 189.937 107.129 186.75V171H82.7537C79.5662 171 77.1287 168.563 77.1287 165.375C77.1287 162.188 79.5662 159.75 82.7537 159.75H107.129V145.5H82.7537C79.5662 145.5 77.1287 143.062 77.1287 139.875C77.1287 136.687 79.5662 134.25 82.7537 134.25H108.816L82.7537 108.188C81.6287 107.063 81.0662 105.75 81.0662 104.25C81.0662 102.75 81.6287 101.25 82.7537 100.312C83.8787 99.1875 85.1912 98.625 86.6912 98.625C88.1912 98.625 89.6912 99.1875 90.6287 100.312L112.754 122.25L134.691 100.125C135.816 99 137.129 98.4375 138.629 98.4375C140.129 98.4375 141.629 99 142.566 100.125C144.816 102.375 144.816 105.938 142.566 108L116.691 134.25H142.754C145.941 134.25 148.379 136.687 148.379 139.875C148.379 143.062 145.941 145.5 142.754 145.5H118.379V159.75H142.754C145.941 159.75 148.379 162.188 148.379 165.375C148.379 168.563 145.941 171 142.754 171H118.379V186.75C118.379 189.75 115.941 192.375 112.754 192.375Z" fill="#ADB1FF"/>
<path d="M58.3787 234C50.6912 234 31.3787 232.313 16.9412 217.313C4.94118 204.75 -0.683824 186.375 0.0661765 162.375C1.94118 113.062 45.4412 79.875 64.0037 68.0625L67.0037 66.1875L64.7537 63.5625C60.0662 58.3125 52.1912 48 50.3162 36C49.1912 28.6875 50.8787 22.125 55.0037 17.0625C60.0662 10.5 66.0662 9.1875 70.1912 9.1875C74.6912 9.1875 79.5662 10.875 84.4412 13.875L86.5037 15.375L88.1912 13.125C92.5037 7.3125 100.379 0.1875 112.379 0H112.754C124.941 0 132.816 7.125 137.316 13.125L139.004 15.375L141.254 13.875C146.129 10.6875 151.004 9.1875 155.504 9.1875C159.629 9.1875 165.629 10.5 170.691 17.0625C174.816 22.3125 176.316 28.875 175.191 36C173.879 44.8125 168.629 54.9375 160.754 63.5625L158.504 66.1875L161.504 68.0625C180.066 80.0625 223.566 113.062 225.441 162.375C226.379 186.375 220.566 204.938 208.566 217.313C194.129 232.313 174.629 234 167.129 234H58.3787ZM78.4412 72.5625C71.6912 76.3125 13.3787 109.875 11.3162 162.75C10.5662 183.75 15.2537 199.5 25.0037 209.625C36.4412 221.438 52.1912 222.75 58.3787 222.75H167.129C173.316 222.75 189.066 221.438 200.504 209.625C210.254 199.5 214.941 183.75 214.191 162.938C212.316 109.875 153.816 76.3125 147.254 72.75L146.129 72L144.816 72.375C144.254 72.5625 143.691 72.75 143.129 72.75H82.7537C82.1912 72.75 81.6287 72.5625 80.8787 72.375L79.5662 72L78.4412 72.5625ZM70.0037 20.25C68.5037 20.25 66.2537 20.625 63.6287 23.8125C61.3787 26.625 60.6287 30 61.3787 34.3125C62.8787 45.1875 72.6287 56.625 78.4412 61.3125L79.5662 62.25L81.0662 61.875C81.8162 61.6875 82.1912 61.5 82.5662 61.5H142.941C143.129 61.5 143.504 61.6875 143.879 61.6875L145.754 62.25L146.879 61.3125C152.691 56.625 162.441 45.1875 163.941 34.3125C164.504 30 163.754 26.625 161.691 23.8125C159.254 20.625 157.004 20.25 155.316 20.25C149.879 20.25 143.316 25.875 141.254 28.125C140.129 29.25 138.629 30 137.129 30C136.754 30 136.379 30 136.004 29.8125C134.129 29.4375 132.441 28.125 131.879 26.25C131.316 24.5625 125.504 11.25 112.754 11.25H112.379C99.0662 11.4375 93.6287 25.6875 93.4412 26.25C92.6912 28.125 91.1912 29.4375 89.3162 29.8125C88.9412 29.8125 88.5662 30 88.1912 30C86.6912 30 85.1912 29.4375 84.0662 28.125C82.0037 25.875 75.4412 20.25 70.0037 20.25Z" fill="#ADB1FF"/>
</svg>
