<svg width="296" height="296" viewBox="0 0 296 296" fill="none" xmlns="http://www.w3.org/2000/svg">
<path d="M291.509 195.568L221.884 153.795C221.884 153.814 221.884 153.837 221.88 153.855C221.926 151.903 222 149.975 222 148C222 73.8798 186.425 23.7494 153.129 1.554C151.575 0.518 149.79 0 148 0C146.21 0 144.425 0.518 142.871 1.554C109.576 23.7494 74 73.8798 74 148C74 149.975 74.074 151.903 74.1156 153.855C74.111 153.837 74.111 153.814 74.111 153.795L4.49088 195.568C1.702 197.238 0 200.249 0 203.5V231.25C0 236.356 4.144 240.5 9.25 240.5H88.7445C91.131 248.025 92.9255 252.604 93.1568 253.182C94.5674 256.697 97.9714 259 101.75 259H124.875C124.875 281.131 136.831 296 148 296C159.081 296 170.945 281.357 171.125 259.504C171.134 259.338 171.139 259.171 171.139 259H194.25C198.029 259 201.433 256.697 202.839 253.182C203.07 252.604 204.864 248.025 207.251 240.5H286.75C291.856 240.5 296 236.356 296 231.25V203.5C296 200.249 294.298 197.238 291.509 195.568ZM148 9.25C175.75 27.75 212.75 74 212.75 148C212.75 168.355 210.257 187.456 207.103 203.5H88.8971C85.7429 187.456 83.25 168.355 83.25 148C83.25 74 120.25 27.75 148 9.25ZM9.25 203.5L74.5411 164.322C75.6234 182.364 78.3059 198.935 81.3491 212.75H9.25V203.5ZM9.25 231.25V222H83.5229C84.3646 225.367 85.1971 228.456 86.0204 231.352C86.0065 231.315 85.9972 231.282 85.988 231.25H9.25ZM148 286.75C143.375 286.75 134.125 277.5 134.125 259H161.875C161.875 277.5 152.625 286.75 148 286.75ZM194.25 249.75H101.75C101.75 249.75 95.9502 235.246 90.8489 212.75H205.156C200.05 235.246 194.25 249.75 194.25 249.75ZM286.75 231.25H210.012C210.003 231.287 209.994 231.319 209.98 231.352C210.803 228.456 211.635 225.362 212.477 222H286.75V231.25ZM286.75 212.75H214.651C217.689 198.94 220.372 182.368 221.459 164.322L286.75 203.5V212.75Z" fill="#67FFC2"/>
<path d="M148 138.75C163.323 138.75 175.75 126.323 175.75 111C175.75 95.6774 163.323 83.25 148 83.25C132.677 83.25 120.25 95.6774 120.25 111C120.25 126.323 132.677 138.75 148 138.75ZM148 92.5C158.217 92.5 166.5 100.783 166.5 111C166.5 121.217 158.217 129.5 148 129.5C137.783 129.5 129.5 121.217 129.5 111C129.5 100.783 137.783 92.5 148 92.5Z" fill="#67FFC2"/>
</svg>
