<svg width="340" height="340" viewBox="0 0 340 340" fill="none" xmlns="http://www.w3.org/2000/svg">
<path d="M295.781 241.127V219.219C295.773 211.969 292.889 205.019 287.763 199.893C282.637 194.767 275.687 191.884 268.438 191.875H222.402C227.463 182.537 231.547 172.701 234.586 162.524L255.367 145.894C258.597 143.315 260.959 139.807 262.133 135.844C263.307 131.881 263.237 127.653 261.932 123.731C260.628 119.809 258.152 116.381 254.838 113.911C251.525 111.44 247.533 110.045 243.402 109.915L255.586 76.4133C258.695 67.8635 259.697 58.6903 258.508 49.6709C257.319 40.6515 253.973 32.0517 248.754 24.6C243.535 17.1484 236.597 11.0645 228.527 6.86383C220.458 2.66317 211.494 0.469526 202.397 0.468756H155.967C121.226 0.460091 87.1826 10.2236 57.7266 28.6438C56.8415 29.192 56.1314 29.9814 55.6795 30.9193C55.2277 31.8573 55.053 32.9047 55.1759 33.9384C55.2988 34.9722 55.7142 35.9495 56.3734 36.7553C57.0325 37.5611 57.908 38.1621 58.8969 38.4875L72.082 42.8625C73.8968 43.4679 75.5687 44.4376 76.9952 45.7123C78.4218 46.987 79.5729 48.5397 80.3779 50.2751C81.1828 52.0105 81.6248 53.8922 81.6765 55.8045C81.7283 57.7169 81.3888 59.6196 80.6789 61.3961C79.3686 64.6711 78.7667 68.1864 78.9128 71.7107C79.0589 75.235 79.9497 78.6885 81.5266 81.8438L95.625 110.013C91.5918 110.334 87.7483 111.861 84.5936 114.394C81.439 116.928 79.119 120.351 77.9349 124.22C76.7509 128.089 76.7574 132.224 77.9538 136.089C79.1502 139.954 81.4811 143.37 84.6438 145.894L105.425 162.524C108.461 172.701 112.54 182.537 117.598 191.875H71.5625C64.3132 191.884 57.3632 194.767 52.2371 199.893C47.1111 205.019 44.2274 211.969 44.2188 219.219V241.127C31.2756 246.534 20.2181 255.644 12.4345 267.313C4.65093 278.983 0.488145 292.692 0.46875 306.719V334.062C0.46875 335.513 1.04492 336.904 2.07051 337.929C3.0961 338.955 4.4871 339.531 5.9375 339.531H334.062C335.513 339.531 336.904 338.955 337.929 337.929C338.955 336.904 339.531 335.513 339.531 334.062V306.719C339.512 292.692 335.349 278.983 327.566 267.313C319.782 255.644 308.724 246.534 295.781 241.127ZM213.75 109.844H180.938C179.487 109.844 178.096 110.42 177.071 111.446C176.045 112.471 175.469 113.862 175.469 115.313V120.781H164.531V115.313C164.531 113.862 163.955 112.471 162.929 111.446C161.904 110.42 160.513 109.844 159.062 109.844H109.844V101.832L143.98 79.0766C151.325 74.1692 159.963 71.554 168.797 71.5625C181.435 71.5477 193.695 67.2465 203.573 59.3617L212.509 52.2141L221.887 66.2906C227.287 74.3705 230.165 83.8724 230.156 93.5906V109.844H213.75ZM208.281 120.781V137.188C208.281 138.638 207.705 140.029 206.679 141.055C205.654 142.08 204.263 142.656 202.812 142.656H191.875C190.425 142.656 189.034 142.08 188.008 141.055C186.982 140.029 186.406 138.638 186.406 137.188V120.781H208.281ZM153.594 120.781V137.188C153.594 138.638 153.018 140.029 151.992 141.055C150.966 142.08 149.575 142.656 148.125 142.656H137.188C135.737 142.656 134.346 142.08 133.321 141.055C132.295 140.029 131.719 138.638 131.719 137.188V120.781H153.594ZM252.031 130.078C252.034 131.473 251.722 132.851 251.118 134.109C250.513 135.366 249.633 136.471 248.542 137.341L238.627 145.27C240.073 137.184 240.868 128.995 241.006 120.781H242.734C243.955 120.781 245.164 121.022 246.292 121.489C247.42 121.956 248.445 122.641 249.308 123.504C250.172 124.368 250.856 125.392 251.324 126.52C251.791 127.648 252.031 128.857 252.031 130.078ZM90.8289 65.4594C92.0924 62.2997 92.697 58.9151 92.6057 55.5134C92.5143 52.1116 91.7289 48.7644 90.2976 45.6771C88.8663 42.5898 86.8194 39.8274 84.2823 37.5595C81.7453 35.2915 78.7716 33.5658 75.5437 32.4883L73.8703 31.9414C99.1327 18.4542 127.33 11.4012 155.967 11.4063H202.397C209.734 11.4076 216.963 13.1771 223.472 16.5648C229.98 19.9525 235.577 24.8588 239.787 30.868C243.997 36.8773 246.697 43.8126 247.659 51.0867C248.62 58.3608 247.815 65.7595 245.31 72.6563L240.558 85.7266C239.37 76.5953 236.095 67.8602 230.988 60.1984L218.3 41.1617C217.879 40.5312 217.332 39.9951 216.692 39.5874C216.053 39.1798 215.336 38.9095 214.587 38.7938C213.838 38.6807 213.074 38.7228 212.342 38.9175C211.61 39.1123 210.926 39.4555 210.332 39.9258L196.742 50.825C188.802 57.1562 178.952 60.6106 168.797 60.625C157.802 60.615 147.052 63.8697 137.909 69.9766L101.34 94.3563C101.001 94.5864 100.689 94.8543 100.41 95.1547L91.3102 76.9492C90.4233 75.1766 89.922 73.2362 89.839 71.2558C89.7561 69.2755 90.0934 67.3 90.8289 65.4594ZM91.4633 137.352C89.9538 136.15 88.8556 134.508 88.321 132.655C87.7863 130.801 87.8416 128.827 88.4792 127.006C89.1168 125.185 90.3052 123.607 91.8796 122.492C93.4539 121.377 95.3363 120.779 97.2656 120.781H98.9828C99.1203 128.998 99.9159 137.191 101.362 145.281L91.4633 137.352ZM109.931 120.781H120.781V137.188C120.781 141.539 122.51 145.712 125.587 148.788C128.663 151.865 132.836 153.594 137.188 153.594H148.125C152.476 153.594 156.649 151.865 159.726 148.788C162.803 145.712 164.531 141.539 164.531 137.188V131.719H175.469V137.188C175.469 141.539 177.197 145.712 180.274 148.788C183.351 151.865 187.524 153.594 191.875 153.594H202.812C207.164 153.594 211.337 151.865 214.413 148.788C217.49 145.712 219.219 141.539 219.219 137.188V120.781H230.069C229.644 145.847 222.646 170.362 209.774 191.875H130.226C117.354 170.362 110.356 145.847 109.931 120.781ZM71.5625 202.812H268.438C272.789 202.812 276.962 204.541 280.038 207.618C283.115 210.695 284.844 214.868 284.844 219.219V328.594H55.1562V219.219C55.1562 214.868 56.8848 210.695 59.9615 207.618C63.0383 204.541 67.2113 202.812 71.5625 202.812ZM11.4062 306.719C11.4211 295.638 14.4919 284.775 20.281 275.327C26.0701 265.878 34.353 258.209 44.2188 253.163V328.594H11.4062V306.719ZM328.594 328.594H295.781V253.163C305.647 258.209 313.929 265.878 319.718 275.327C325.507 284.776 328.578 295.638 328.594 306.719V328.594Z" fill="#67FFC2"/>
<path d="M170 312.188C174.326 312.188 178.556 310.905 182.153 308.501C185.75 306.097 188.554 302.681 190.21 298.684C191.866 294.687 192.299 290.288 191.455 286.045C190.611 281.802 188.527 277.904 185.468 274.845C182.409 271.785 178.511 269.702 174.268 268.858C170.024 268.014 165.626 268.447 161.629 270.103C157.632 271.758 154.215 274.562 151.812 278.159C149.408 281.757 148.125 285.986 148.125 290.313C148.125 296.114 150.43 301.678 154.532 305.78C158.634 309.883 164.198 312.188 170 312.188ZM170 279.375C172.163 279.375 174.278 280.016 176.077 281.218C177.875 282.42 179.277 284.128 180.105 286.127C180.933 288.125 181.149 290.325 180.727 292.446C180.305 294.568 179.264 296.517 177.734 298.047C176.204 299.576 174.255 300.618 172.134 301.04C170.012 301.462 167.813 301.245 165.814 300.417C163.816 299.59 162.108 298.188 160.906 296.389C159.704 294.59 159.062 292.476 159.062 290.313C159.062 287.412 160.215 284.63 162.266 282.579C164.317 280.527 167.099 279.375 170 279.375Z" fill="#67FFC2"/>
<path d="M133.321 261.366L141.054 253.634L123.045 235.625L141.054 217.616L133.321 209.884L111.446 231.759C110.421 232.784 109.845 234.175 109.845 235.625C109.845 237.075 110.421 238.466 111.446 239.491L133.321 261.366Z" fill="#67FFC2"/>
<path d="M206.679 261.366L228.554 239.491C229.579 238.466 230.155 237.075 230.155 235.625C230.155 234.175 229.579 232.784 228.554 231.759L206.679 209.884L198.946 217.616L216.955 235.625L198.946 253.634L206.679 261.366Z" fill="#67FFC2"/>
<path d="M182.035 210.469L149.214 254.212L157.963 260.776L190.784 217.033L182.035 210.469Z" fill="#67FFC2"/>
</svg>
