<svg width="341" height="448" viewBox="0 0 341 448" fill="none" xmlns="http://www.w3.org/2000/svg">
<path d="M70.7406 379.902C45.8937 379.902 19.4875 364.019 19.4875 334.691V113.992C19.4875 87.0012 36.6364 68.0984 61.191 68.0984H210.272L178.215 100.155C174.317 103.858 174.221 110.094 178.021 113.894C181.723 117.792 187.96 117.889 191.76 114.089C191.857 113.991 191.954 113.894 191.954 113.894L240.673 65.1752C244.473 61.3751 244.473 55.2364 240.673 51.4363L191.954 2.71721C188.056 -0.985165 181.918 -0.888335 178.215 2.91178C174.61 6.71189 174.61 12.656 178.215 16.4561L210.37 48.5132H61.2887C25.7239 48.6109 0 76.0886 0 113.992V334.691C0 370.938 31.0833 399.391 70.7406 399.391C76.1 399.391 80.4848 395.006 80.4848 389.647C80.4848 384.287 76.1 379.902 70.7406 379.902Z" fill="#ADB1FF"/>
<path d="M279.552 48.611C274.193 48.611 269.808 52.9957 269.808 58.3551C269.808 63.7146 274.193 68.0993 279.552 68.0993C306.64 68.0993 321.548 83.4944 321.548 111.362V330.892C321.548 355.252 308.492 379.903 279.26 379.903H150.153L182.21 347.846C185.912 343.948 185.816 337.81 182.015 334.107C178.215 330.502 172.271 330.502 168.471 334.107L119.752 382.826C115.952 386.627 115.952 392.765 119.752 396.565L168.471 445.284C172.369 448.987 178.508 448.89 182.21 445.09C185.816 441.29 185.816 435.346 182.21 431.546L150.153 399.391H279.162C315.507 399.391 340.939 371.231 340.939 330.891V111.361C341.036 72.6777 317.456 48.611 279.552 48.611Z" fill="#ADB1FF"/>
</svg>
