<svg width="262" height="364" viewBox="0 0 262 364" fill="none" xmlns="http://www.w3.org/2000/svg">
<path d="M255.484 181.666L255.278 180.872C223.795 82.0666 129.916 11.9225 125.935 8.98516L113.756 0L114.587 15.1104C114.618 15.688 117.111 73.4781 60.5944 121.996C-0.487712 174.441 -0.156918 217.698 0.0204258 240.938L0.0377998 244.14C0.0377998 307.043 45.8974 354.184 111.662 362.506C117.217 363.516 122.919 364 128.57 364C129.326 364 130.054 363.892 130.807 363.876C131.428 363.882 132.021 363.952 132.644 363.952C205.008 363.952 261.692 305.702 261.692 231.341C261.693 213.529 255.738 182.961 255.484 181.666ZM183.186 303.126C180.444 328.009 162.591 346.515 138.759 349.174C136.995 349.37 134.639 349.561 131.94 349.668C125.392 349.64 119.087 349.136 112.935 348.36C97.8786 345.487 82.2137 337.176 79.762 315.244L79.2503 310.9C77.4406 295.707 75.5688 279.991 107.696 245.51C119.782 232.536 130.567 218.72 139.842 204.341C155.227 222.166 167.181 239.935 175.478 257.328C183.088 272.551 183.652 298.902 183.186 303.126ZM185.494 336.74C191.84 327.679 196.023 316.781 197.357 304.686C198.036 298.533 197.482 269.461 188.288 251.073C178.345 230.227 163.475 208.895 144.084 187.659L137.614 180.567L132.701 188.814C122.877 205.296 110.958 221.102 97.2705 235.795C60.6292 275.113 63.1069 295.896 65.0975 312.593L65.602 316.874C66.4417 324.385 68.5445 330.781 71.5231 336.287C36.1847 318.883 14.2926 285.757 14.2926 244.14L14.2752 240.827C14.1153 219.905 13.8156 180.95 69.8793 132.814C114.487 94.519 125.48 51.1509 128.094 28.9895C153.515 50.3431 217.499 109.755 241.571 184.806C242.267 188.432 247.438 215.924 247.438 231.341C247.438 277.919 222.554 317.327 185.494 336.74Z" fill="#67FFC2"/>
</svg>
