<svg width="317" height="317" viewBox="0 0 317 317" fill="none" xmlns="http://www.w3.org/2000/svg">
<path d="M48.3252 212.713C55.8966 208.794 64.7604 209.032 72.1777 213.384L72.8877 213.815C80.1268 218.383 84.4267 226.151 84.4268 234.748V303.91C84.4265 310.074 79.4134 315.088 73.249 315.088H12.1787C6.01422 315.088 1.00025 310.075 1 303.91V255.427C1 250.441 3.01104 245.685 6.54492 242.387L7.60449 241.406C18.6232 231.291 32.0733 221.776 47.5957 213.104L48.3252 212.713ZM163.681 151.643C171.255 147.724 180.119 147.961 187.533 152.313L188.242 152.745C195.482 157.313 199.782 165.081 199.782 173.678V303.91C199.782 310.075 194.768 315.088 188.604 315.088H127.533C121.369 315.088 116.356 310.075 116.355 303.91V194.356C116.355 189.37 118.366 184.615 121.9 181.316L122.959 180.336C133.978 170.221 147.428 160.706 162.951 152.034L163.681 151.643ZM279.035 83.7861C286.607 79.8675 295.478 80.1058 302.889 84.458H302.888C310.554 88.9574 315.138 96.9482 315.138 105.822V303.91C315.137 310.075 310.123 315.088 303.959 315.088H242.889C236.724 315.088 231.71 310.075 231.71 303.91V126.5C231.71 121.669 233.598 117.056 236.93 113.773L237.256 113.46C248.468 102.979 262.284 93.13 278.307 84.1787L279.035 83.7861ZM59.6377 218.735C56.9832 218.735 54.3206 219.412 51.8779 220.774L51.8789 220.775C36.9315 229.125 24.047 238.239 13.5508 247.872L12.543 248.806C10.8051 250.428 9.78516 252.838 9.78516 255.428V303.91C9.78516 305.23 10.8589 306.303 12.1787 306.303H73.249C74.5687 306.303 75.6416 305.23 75.6416 303.91V234.749C75.6416 229.022 72.6894 223.873 67.7324 220.96V220.959C65.2014 219.475 62.4167 218.735 59.6377 218.735ZM174.992 157.665C172.503 157.665 170.008 158.261 167.693 159.458L167.233 159.705C151.804 168.324 138.574 177.758 127.898 187.735H127.897C126.16 189.358 125.141 191.768 125.141 194.357V303.91C125.141 305.23 126.213 306.303 127.533 306.303H188.604C189.923 306.303 190.996 305.23 190.996 303.91V173.679C190.996 167.951 188.044 162.802 183.087 159.89V159.889C180.556 158.405 177.771 157.665 174.992 157.665ZM290.348 89.8096C287.693 89.8096 285.031 90.4875 282.588 91.8496L282.587 91.8486C267.64 100.198 254.757 109.313 244.262 118.945L243.253 119.88C241.515 121.503 240.496 123.912 240.496 126.501V303.91C240.496 305.23 241.569 306.303 242.889 306.303H303.959C305.279 306.303 306.352 305.23 306.352 303.91V105.822C306.351 100.095 303.4 94.9458 298.443 92.0332V92.0342C295.912 90.5499 293.127 89.8096 290.348 89.8096ZM228.349 1.00098C233.91 0.921218 238.644 4.99477 239.144 10.542L239.319 12.5576C241.075 33.4183 240.746 55.3636 238.343 77.8223C237.923 81.7739 235.456 85.0566 231.772 86.5908V86.5918C228.102 88.1188 223.874 87.5412 220.771 85.0459V85.0449L211.992 78.0127C203.907 86.8122 178.855 112.504 139.546 138.597L137.611 139.874C111.188 157.222 75.5074 165.646 47.4248 165.646C34.4084 165.646 22.9279 163.837 14.7227 160.194L13.9385 159.836C4.39456 155.345 1.68536 149.154 1.18164 144.623L1.13379 144.163C0.687959 139.438 1.65402 135.521 3.75586 132.252C5.91299 128.898 9.21514 126.306 13.2148 124.209C21.178 120.035 32.2109 117.678 43.3545 115.291L46.335 114.651C52.8072 113.254 59.358 111.774 65.5781 109.88L67.0078 109.435C129.71 89.4794 159.046 52.4628 166.6 41.5176L156.085 33.0645L155.791 32.8213C152.814 30.2694 151.419 26.452 152.045 22.5596V22.5586L152.112 22.1826C152.868 18.3162 155.509 15.1997 159.228 13.8135L161.169 13.1025C181.31 5.86392 203.896 1.80093 228.331 1.00195L228.34 1.00098H228.349ZM228.588 9.78223C204.298 10.58 181.995 14.7111 162.291 22.0508L162.29 22.0518C161.088 22.4988 160.792 23.5051 160.719 23.959L160.72 23.96C160.649 24.4066 160.608 25.4327 161.584 26.2188L175.194 37.1553L175.349 37.2842C176.904 38.6506 177.294 40.9298 176.269 42.7441L176.268 42.7461C175.033 44.9225 146.859 93.2447 69.6729 117.811H69.6719C62.661 120.037 55.3556 121.693 48.2354 123.229L45.1963 123.882C33.5317 126.383 24.3048 128.525 18.1562 131.526C15.0958 133.02 12.8905 134.686 11.5254 136.631C10.2642 138.428 9.6722 140.532 9.86621 143.121L9.91602 143.646V143.648L9.9541 143.935C10.4074 146.891 12.8256 149.604 17.6807 151.888L18.209 152.131C29.4419 157.169 48.846 158.236 70.0674 155.082C91.5819 151.884 114.748 144.38 132.79 132.531V132.53L135.04 131.044C158.131 115.685 176.144 100.519 188.513 89.041C194.896 83.1173 199.777 78.1775 203.074 74.7012C204.723 72.963 205.976 71.5903 206.824 70.6445C207.248 70.1718 207.571 69.8058 207.791 69.5537C207.901 69.4276 207.985 69.3297 208.044 69.2617C208.073 69.2279 208.096 69.2016 208.112 69.1826L208.137 69.1533L208.14 69.1504L208.141 69.1484L208.288 68.9834C209.843 67.3203 212.439 67.1094 214.241 68.5566L226.265 78.1914L226.381 78.2783C226.97 78.6902 227.701 78.7706 228.398 78.4824C228.765 78.3292 229.501 77.903 229.608 76.8887V76.8877L229.83 74.7686C232.046 52.8907 232.232 31.5573 230.393 11.334V11.333C230.317 10.487 229.548 9.78248 228.665 9.78223H228.588Z" fill="#ADB1FF" stroke="#ADB1FF" stroke-width="2"/>
</svg>
