<svg width="275" height="275" viewBox="0 0 275 275" fill="none" xmlns="http://www.w3.org/2000/svg">
<path d="M105.663 149.864C104.352 143.947 99.5122 139.108 93.5944 137.796C81.6022 135.137 71.2462 145.492 73.9037 157.485C75.215 163.404 80.0528 168.241 85.9753 169.552C97.9669 172.212 108.321 161.858 105.663 149.864ZM118.16 147.095C122.843 168.229 104.337 186.737 83.2053 182.05C72.4269 179.662 63.7944 171.032 61.4069 160.255C56.7234 139.121 75.2325 120.613 96.365 125.3C107.139 127.688 115.772 136.321 118.16 147.095ZM171.88 213.966C172.244 213.756 172.563 213.476 172.819 213.143C173.075 212.809 173.263 212.429 173.372 212.023C173.48 211.617 173.508 211.193 173.453 210.777C173.398 210.36 173.261 209.958 173.051 209.594L160.827 188.42C159.944 186.892 157.985 186.367 156.456 187.249L135.286 199.472C133.754 200.358 133.228 202.316 134.111 203.844L146.334 225.017C147.218 226.549 149.177 227.073 150.709 226.19L171.88 213.966ZM157.108 237.276C149.455 241.691 139.671 239.071 135.249 231.418L123.026 210.244C118.608 202.594 121.232 192.809 128.885 188.388L150.058 176.163C157.71 171.748 167.495 174.37 171.912 182.02L184.135 203.193C188.557 210.846 185.934 220.634 178.279 225.051L157.107 237.275L157.108 237.276ZM211.245 163.164C210.854 169.67 204.335 173.175 198.693 169.916L165.213 150.587C159.57 147.327 159.352 139.931 164.789 136.341L201.484 112.114C207.352 108.24 214.301 112.246 213.878 119.269L211.245 163.164H211.245ZM200.527 128.084L177.813 143.081L198.897 155.253L200.527 128.084ZM120.244 66.8925L95.1178 17.4494C94.0362 15.3206 95.5831 12.8 97.9722 12.8H176.606C178.995 12.8 180.54 15.3191 179.458 17.4478L154.334 66.8928C152.733 70.0441 153.989 73.8966 157.141 75.4978C160.292 77.0991 164.144 75.8425 165.746 72.6912L190.869 23.2481C196.281 12.605 188.548 0 176.606 0H97.9725C86.0325 0 78.2987 12.6025 83.7066 23.2475L108.833 72.6916C110.435 75.8425 114.287 77.0991 117.438 75.4975C120.589 73.8959 121.846 70.0434 120.244 66.8925H120.244Z" fill="#83F3FF"/>
<path d="M204.176 261.926C235.988 261.926 261.776 236.139 261.776 204.326V190.842C261.776 129.256 211.361 78.8416 149.776 78.8416H124.8C63.2147 78.8416 12.8 129.256 12.8 190.842V204.326C12.8 236.138 38.5894 261.926 70.4 261.926H204.176ZM204.176 274.726H70.4C31.5203 274.726 0 243.207 0 204.326V190.842C0 122.187 56.1453 66.0416 124.8 66.0416H149.776C218.431 66.0416 274.576 122.187 274.576 190.842V204.326C274.576 243.208 243.058 274.726 204.176 274.726Z" fill="#83F3FF"/>
</svg>
