<svg width="286" height="286" viewBox="0 0 286 286" fill="none" xmlns="http://www.w3.org/2000/svg">
<path d="M197.695 151.929L166.238 147.346L152.161 118.835C151.307 117.11 149.988 115.657 148.352 114.642C146.717 113.626 144.83 113.088 142.905 113.088C140.98 113.088 139.093 113.626 137.458 114.642C135.823 115.657 134.503 117.11 133.65 118.835L119.573 147.346L88.1156 151.929C86.1838 152.183 84.3637 152.98 82.8668 154.228C81.3699 155.475 80.2577 157.122 79.6593 158.976C79.0609 160.83 79.0009 162.816 79.4864 164.703C79.9718 166.59 80.9827 168.301 82.4016 169.637L105.169 191.838L99.7819 223.027C99.4798 224.911 99.7035 226.841 100.429 228.605C101.153 230.369 102.352 231.898 103.891 233.025C105.429 234.151 107.25 234.831 109.15 234.989C111.051 235.147 112.958 234.777 114.662 233.92L142.786 219.039L170.91 233.92C172.396 234.703 174.051 235.111 175.731 235.11C177.876 235.091 179.96 234.393 181.683 233.116C183.243 231.987 184.454 230.443 185.18 228.659C185.906 226.876 186.118 224.925 185.79 223.027L180.642 191.719L203.409 169.637C204.792 168.296 205.772 166.594 206.236 164.725C206.7 162.855 206.631 160.893 206.036 159.061C205.441 157.229 204.343 155.6 202.869 154.36C201.395 153.121 199.602 152.32 197.695 152.048V151.929ZM170.077 185.38C169.389 186.055 168.875 186.887 168.579 187.805C168.284 188.722 168.215 189.698 168.38 190.648L173.737 221.896L145.673 207.016C144.819 206.568 143.869 206.333 142.905 206.333C141.941 206.333 140.991 206.568 140.137 207.016L112.073 221.896L117.43 190.648C117.595 189.698 117.527 188.722 117.231 187.805C116.936 186.887 116.422 186.055 115.734 185.38L93.0262 163.238L124.394 158.685C125.353 158.546 126.264 158.175 127.047 157.605C127.83 157.034 128.462 156.281 128.888 155.411L142.905 126.989L156.923 155.411C157.349 156.281 157.981 157.034 158.764 157.605C159.547 158.175 160.457 158.546 161.416 158.685L192.784 163.238L170.077 185.38Z" fill="#FFF28D"/>
<path d="M284.924 2.97632C284.404 2.07672 283.659 1.3287 282.761 0.806604C281.863 0.284507 280.844 0.00651084 279.805 0.000241021H172.666C171.632 0.0116748 170.619 0.29212 169.727 0.813961C168.835 1.3358 168.094 2.08104 167.577 2.97632L145.078 40.0285L117.966 2.47038C117.415 1.70661 116.691 1.08445 115.852 0.655038C115.014 0.225626 114.086 0.00121447 113.144 0.000241021H6.00571C4.95637 -0.00920132 3.92318 0.258948 3.01087 0.777507C2.09856 1.29607 1.33956 2.0466 0.810808 2.95303C0.282053 3.85947 0.00233842 4.88959 1.45984e-05 5.93898C-0.00230923 6.98836 0.272841 8.0197 0.797577 8.92847L58.5037 112.794C46.1353 128.612 38.4612 147.588 36.3566 167.557C34.252 187.527 37.8016 207.686 46.6007 225.735C55.3997 243.784 69.094 258.998 86.1218 269.64C103.149 280.283 122.825 285.925 142.905 285.925C162.985 285.925 182.661 280.283 199.689 269.64C216.716 258.998 230.411 243.784 239.21 225.735C248.009 207.686 251.559 187.527 249.454 167.557C247.349 147.588 239.675 128.612 227.307 112.794L285.013 8.92847C285.522 8.01582 285.781 6.98526 285.766 5.94043C285.75 4.89559 285.46 3.8733 284.924 2.97632ZM16.1244 11.9045H110.168L138.441 51.0697L125.049 72.9141C102.953 76.6754 82.5941 87.2715 66.8367 103.211L16.1244 11.9045ZM142.905 273.799C124.07 273.799 105.657 268.214 89.9958 257.749C74.3346 247.285 62.1282 232.411 54.9201 215.01C47.712 197.608 45.8261 178.459 49.5007 159.986C53.1753 141.512 62.2455 124.543 75.5643 111.224C88.8831 97.9051 105.852 88.8349 124.326 85.1603C142.8 81.4857 161.948 83.3716 179.35 90.5797C196.752 97.7878 211.625 109.994 222.09 125.655C232.554 141.317 238.14 159.729 238.14 178.565C238.14 203.823 228.106 228.046 210.246 245.906C192.386 263.766 168.163 273.799 142.905 273.799ZM218.974 103.211C209.031 93.1385 197.187 85.1421 184.129 79.6858C171.07 74.2294 157.058 71.4218 142.905 71.4261C141.893 71.4261 140.911 71.4261 139.929 71.4261L176.029 11.9045H269.686L218.974 103.211Z" fill="#FFF28D"/>
</svg>
