<svg width="255" height="278" viewBox="0 0 255 278" fill="none" xmlns="http://www.w3.org/2000/svg">
<path d="M252.489 191.952L213.673 167.57L252.488 143.191C253.929 142.286 254.803 140.705 254.803 139.003C254.803 137.302 253.929 135.72 252.488 134.815L213.672 110.432L252.486 86.0515C253.927 85.1461 254.801 83.5649 254.801 81.8636C254.801 80.1623 253.927 78.5804 252.486 77.6757L130.031 0.75766C128.424 -0.252553 126.378 -0.252553 124.77 0.75766L2.31518 77.6757C0.874375 78.581 0 80.1623 0 81.8636C0 83.5649 0.874375 85.1468 2.31518 86.0515L41.1286 110.431L2.3165 134.815C0.875693 135.72 0.00197714 137.301 0.00197714 139.003C0.00197714 140.704 0.876354 142.286 2.31716 143.191L41.1293 167.569L2.31716 191.953C0.876354 192.858 0.00263744 194.44 0.00263744 196.141C0.00263744 197.842 0.877013 199.424 2.31782 200.329L124.77 277.242C125.574 277.747 126.487 278 127.4 278C128.314 278 129.227 277.747 130.031 277.242L252.489 200.328C253.93 199.424 254.804 197.842 254.804 196.14C254.804 194.439 253.93 192.857 252.489 191.952ZM14.2432 81.8636L127.401 10.7859L240.558 81.8636L127.401 152.941L14.2432 81.8636ZM14.2445 139.002L50.4256 116.272L124.77 162.97C125.574 163.475 126.487 163.727 127.4 163.727C128.314 163.727 129.227 163.475 130.031 162.97L204.374 116.272L240.559 139.002L127.4 210.076L14.2445 139.002ZM127.4 267.213L14.2445 196.14L50.4263 173.409L124.769 220.104C125.574 220.609 126.486 220.862 127.4 220.862C128.313 220.862 129.226 220.609 130.03 220.104L204.374 173.41L240.56 196.14L127.4 267.213Z" fill="#FFA1A1"/>
</svg>
