<svg width="387" height="359" viewBox="0 0 387 359" fill="none" xmlns="http://www.w3.org/2000/svg">
<path fill-rule="evenodd" clip-rule="evenodd" d="M53.4941 166.301C53.4941 74.5162 128.01 0 219.795 0C311.578 0 386.094 74.5162 386.094 166.301C386.094 169.32 383.643 171.771 380.624 171.771H357.5C354.48 171.771 352.03 169.32 352.03 166.301C352.03 163.281 354.48 160.83 357.5 160.83H375.058C374.216 136.526 367.779 113.632 356.997 93.3989L314.499 117.939C314.553 118.045 314.607 118.152 314.662 118.259C316.029 120.951 314.953 124.247 312.26 125.614C309.569 126.981 306.273 125.905 304.906 123.213C304.114 121.654 303.281 120.12 302.407 118.611C285.903 90.1071 255.073 70.9118 219.795 70.9118C168.984 70.9118 127.399 110.725 124.561 160.83H200.478C200.974 159.076 201.704 157.42 202.63 155.896L169.276 120.082C167.218 117.872 167.342 114.407 169.551 112.35C171.761 110.292 175.225 110.415 177.283 112.625L210.635 148.438C213.382 147.026 216.496 146.228 219.795 146.228C228.976 146.228 236.727 152.407 239.11 160.83H253.211C256.231 160.83 258.682 163.281 258.682 166.301C258.682 169.32 256.231 171.771 253.211 171.771H239.11C236.727 180.194 228.976 186.372 219.795 186.372C210.612 186.372 202.863 180.194 200.478 171.771H58.9648C55.945 171.771 53.4941 169.32 53.4941 166.301ZM351.514 83.9306C339.011 63.9897 322.105 47.0844 302.164 34.5806L277.627 77.0781C290.16 85.2233 300.873 95.9366 309.017 108.47L351.514 83.9306ZM292.695 29.0973C272.462 18.3161 249.569 11.8793 225.265 11.0361V60.1086C240.649 60.8902 255.175 64.9471 268.158 71.5956L292.695 29.0973ZM214.324 11.0361C190.024 11.8786 167.134 18.3137 146.904 29.0919L171.439 71.5925C184.419 64.9463 198.942 60.8902 214.324 60.1086V11.0361ZM137.435 34.5735C117.488 47.0789 100.578 63.9882 88.0723 83.9337L130.571 108.471C138.718 95.935 149.434 85.2201 161.97 77.0742L137.435 34.5735ZM82.5898 93.402C71.8093 113.634 65.3726 136.526 64.5301 160.83H113.603C114.384 145.446 118.441 130.921 125.089 117.939L82.5898 93.402ZM213.512 159.678C211.758 161.342 210.664 163.694 210.664 166.301C210.664 171.34 214.755 175.43 219.795 175.43C224.833 175.43 228.924 171.34 228.924 166.301C228.924 161.261 224.833 157.17 219.795 157.17C217.423 157.17 215.26 158.076 213.636 159.561C213.616 159.582 213.595 159.601 213.574 159.621C213.553 159.639 213.532 159.659 213.512 159.678ZM88.3169 322.185C89.0734 324.002 89.8292 325.819 90.5857 327.636L90.5881 327.641C92.1824 331.497 92.1855 335.381 90.6107 339.26L90.6013 339.282C89.007 343.107 86.2599 345.865 82.3921 347.494L82.378 347.5L59.6143 356.936C51.9013 360.157 42.9707 356.462 39.7711 348.755C26.9289 317.896 14.068 287.038 1.22578 256.179C-0.400599 252.33 -0.406851 248.423 1.19686 244.545C2.79588 240.678 5.55939 237.917 9.40141 236.317L32.1886 226.859C39.8969 223.66 48.7986 227.321 52.0302 235.035L52.0326 235.041C52.6758 236.588 53.3198 238.135 53.9638 239.681C65.0467 234.441 76.1132 229.166 87.1305 223.778C102.258 216.377 114.187 211.48 128.078 213.358C137.132 214.581 147.106 218.692 159.369 227.27L201.372 238.522C208.528 240.439 214.178 245.254 217.398 251.367L276.041 234.164C301.534 226.685 315.621 232.188 321.818 240.564C325.961 246.163 327.046 253.414 325.496 260.581C323.319 270.642 315.887 280.409 305.76 284.316L216.869 318.569C201.891 324.333 181.875 332.375 165.801 327.708L118.446 313.971L118.437 313.968C112.906 312.353 107.598 312.802 102.41 315.329L88.3169 322.185ZM80.4781 331.826C79.0675 328.436 43.3068 242.551 41.9344 239.254C41.0301 237.097 38.541 236.07 36.3831 236.965L13.6045 246.419C12.5291 246.867 11.7562 247.643 11.3084 248.727C10.8668 249.793 10.8582 250.868 11.3146 251.944L11.3216 251.961C24.1662 282.825 37.0287 313.688 49.874 344.554L49.8748 344.556C50.7673 346.705 53.2549 347.738 55.4135 346.834L78.1695 337.4L78.1859 337.393C79.2628 336.933 80.0397 336.166 80.4977 335.082C80.9267 333.999 80.9252 332.908 80.4781 331.826ZM84.1044 312.066L97.6195 305.492C105.35 301.726 113.26 301.058 121.494 303.462L168.85 317.2C175.459 319.119 182.854 318.177 190.141 316.31C198.201 314.244 206.129 310.978 212.937 308.359L301.821 274.108C308.54 271.515 313.358 264.943 314.801 258.267C315.665 254.276 315.33 250.191 313.022 247.072C311.056 244.415 307.718 242.602 302.944 241.867C297.006 240.954 289.178 241.712 279.121 244.663L220.33 261.91C220.477 264.539 220.217 267.233 219.501 269.906C215.855 283.518 201.721 291.681 188.118 288.014L131.045 272.732C128.128 271.951 126.395 268.949 127.176 266.032C127.956 263.116 130.959 261.382 133.876 262.163L190.948 277.446L190.957 277.448C198.752 279.55 206.844 274.87 208.931 267.075C211.02 259.277 206.34 251.18 198.542 249.092L155.598 237.587C154.969 237.419 154.377 237.14 153.847 236.764C143.086 229.127 134.492 225.266 126.612 224.201C114.802 222.605 104.801 227.313 91.9386 233.606C80.7227 239.092 69.4561 244.46 58.1731 249.794C66.8145 270.55 75.4622 291.307 84.1044 312.066ZM305.006 128.51C329.612 128.51 349.554 148.451 349.554 173.058C349.554 197.664 329.612 217.605 305.006 217.605C280.4 217.605 260.444 197.664 260.444 173.058C260.444 148.452 280.4 128.51 305.006 128.51ZM305.006 139.452C286.442 139.452 271.385 154.495 271.385 173.058C271.385 191.621 286.442 206.664 305.006 206.664C323.568 206.664 338.612 191.62 338.612 173.058C338.612 154.495 323.568 139.452 305.006 139.452ZM305.006 185.461C307.304 185.461 309.457 184.141 309.457 182.086C309.457 180.027 307.306 178.695 305.006 178.695C296.337 178.695 289.614 172.098 289.614 164.363C289.614 158.391 293.621 153.098 299.436 150.995L299.397 149.394C299.323 146.376 301.713 143.865 304.731 143.791C307.75 143.716 310.26 146.106 310.335 149.125L310.379 150.928C312.373 151.619 314.167 152.678 315.658 154.006C317.913 156.015 318.113 159.476 316.105 161.73C314.096 163.985 310.636 164.185 308.381 162.176C307.52 161.41 306.32 160.974 305.018 160.972C305.014 160.972 305.01 160.972 305.006 160.972C302.7 160.972 300.555 162.305 300.555 164.363C300.555 166.421 302.7 167.753 305.006 167.753C313.651 167.753 320.398 174.35 320.398 182.086C320.398 188.058 316.381 193.34 310.571 195.439L310.606 197.042C310.671 200.06 308.274 202.565 305.255 202.631C302.236 202.697 299.732 200.3 299.667 197.281L299.63 195.592C297.181 194.743 295.195 193.233 292.945 191.103C290.752 189.028 290.656 185.562 292.732 183.369C294.807 181.176 298.272 181.081 300.465 183.157C301.884 184.499 302.91 185.46 305.001 185.461H305.006Z" fill="#6AF0FF"/>
</svg>
