<svg width="236" height="248" viewBox="0 0 236 248" fill="none" xmlns="http://www.w3.org/2000/svg">
<path d="M6.80368 248C5.25126 248 3.69883 247.418 2.53451 246.059C1.37019 244.895 0.788032 243.343 0.982086 241.596L13.2074 53.7527C13.4015 50.6479 15.9242 48.3192 19.029 48.3192H70.2591V47.543C70.2591 34.7355 75.3045 22.8983 84.2309 13.7778C93.3514 5.04538 105.189 0 117.996 0C144.193 0 165.733 21.3459 165.733 47.7371C165.733 47.9311 165.539 48.1252 165.539 48.3192V48.5133H216.963C220.068 48.5133 222.591 50.8419 222.785 53.9468L234.816 240.432C235.01 241.014 235.01 241.402 235.01 241.984C234.816 245.283 232.294 248 228.995 248H6.80368ZM13.0134 236.357H222.785L211.53 60.1565H165.539V74.1283H165.733C168.838 76.2629 170.585 79.3678 170.585 82.8607C170.585 88.8764 165.733 93.7277 159.718 93.7277C153.702 93.7277 148.851 88.8764 148.851 82.8607C148.851 79.3678 150.597 76.2629 153.702 74.1283H153.896V60.1565H81.9023V74.1283H82.0963C85.2012 76.2629 86.9477 79.3678 86.9477 82.8607C86.9477 88.8764 82.0963 93.7277 76.0807 93.7277C70.065 93.7277 65.2137 88.8764 65.2137 82.8607C65.2137 79.3678 66.9602 76.2629 70.065 74.1283H70.2591V60.1565H24.2685L13.0134 236.357ZM117.996 11.8372C98.2028 11.8372 81.9023 27.9437 81.9023 47.9311V48.7074H154.284L154.09 48.3192V47.9311C154.09 27.9437 137.79 11.8372 117.996 11.8372Z" fill="#FFAFFA"/>
</svg>
