<svg width="250" height="250" viewBox="0 0 250 250" fill="none" xmlns="http://www.w3.org/2000/svg">
<path d="M215.278 0H34.7222C25.5167 0.0110268 16.6914 3.67279 10.1821 10.1821C3.67279 16.6914 0.0110268 25.5167 0 34.7222V215.278C0.00955931 224.484 3.67085 233.31 10.1805 239.82C16.6901 246.329 25.5163 249.99 34.7222 250H215.278C224.484 249.99 233.31 246.329 239.82 239.82C246.329 233.31 249.99 224.484 250 215.278V34.7222C249.989 25.5167 246.327 16.6914 239.818 10.1821C233.309 3.67279 224.483 0.0110268 215.278 0ZM152.778 13.8889V83.3333H97.2222V13.8889H152.778ZM236.111 215.278C236.105 220.801 233.908 226.097 230.002 230.002C226.097 233.908 220.801 236.105 215.278 236.111H34.7222C29.1988 236.105 23.9034 233.908 19.9977 230.002C16.0921 226.097 13.8951 220.801 13.8889 215.278V34.7222C13.8951 29.1988 16.0921 23.9034 19.9977 19.9977C23.9034 16.0921 29.1988 13.8951 34.7222 13.8889H83.3333V90.2778C83.3333 92.1196 84.065 93.8859 85.3673 95.1883C86.6697 96.4906 88.436 97.2222 90.2778 97.2222H159.722C161.564 97.2222 163.33 96.4906 164.633 95.1883C165.935 93.8859 166.667 92.1196 166.667 90.2778V13.8889H215.278C220.801 13.8951 226.097 16.0921 230.002 19.9977C233.908 23.9034 236.105 29.1988 236.111 34.7222V215.278Z" fill="#8EE1FF"/>
</svg>
