<svg width="266" height="278" viewBox="0 0 266 278" fill="none" xmlns="http://www.w3.org/2000/svg">
<path d="M253.175 142.592C252.06 140.31 252.06 137.693 253.175 135.411L263.514 114.26C269.271 102.483 264.71 88.4469 253.131 82.3033L232.334 71.2689C230.091 70.0789 228.553 67.9608 228.114 65.46L224.046 42.2711C221.781 29.3602 209.839 20.6843 196.862 22.5203L173.552 25.8176C171.036 26.1728 168.548 25.3639 166.723 23.5983L149.803 7.22981C140.381 -1.8846 125.622 -1.88514 116.201 7.22981L99.2805 23.5999C97.4548 25.3661 94.9669 26.1733 92.4514 25.8192L69.1413 22.5219C56.1606 20.6849 44.222 29.3618 41.9572 42.2727L37.89 65.4605C37.4509 67.9619 35.9127 70.0794 33.6696 71.27L12.8733 82.3043C1.29431 88.4474 -3.26669 102.485 2.48978 114.262L12.8284 135.412C13.9437 137.694 13.9437 140.311 12.8284 142.593L2.48924 163.743C-3.26723 175.52 1.29377 189.557 12.8728 195.7L33.6691 206.734C35.9127 207.925 37.4509 210.043 37.89 212.543L41.9572 235.732C44.019 247.486 54.0972 255.728 65.68 255.727C66.8207 255.727 67.9783 255.647 69.1418 255.483L92.452 252.185C94.9658 251.828 97.4553 252.639 99.281 254.405L116.201 270.773C120.913 275.331 126.956 277.609 133.002 277.609C139.046 277.608 145.093 275.33 149.802 270.773L166.723 254.405C168.549 252.639 171.037 251.832 173.552 252.185L196.862 255.483C209.845 257.319 221.781 248.643 224.046 235.732L228.114 212.544C228.553 210.043 230.091 207.925 232.334 206.734L253.131 195.7C264.71 189.557 269.271 175.519 263.514 163.743L253.175 142.592ZM245.637 181.576L224.841 192.61C218.21 196.129 213.663 202.387 212.366 209.781L208.299 232.969C207.533 237.337 203.494 240.271 199.102 239.651L175.791 236.354C168.358 235.301 161.002 237.693 155.606 242.912L138.686 259.28C135.499 262.363 130.505 262.363 127.317 259.28L110.397 242.912C105.837 238.501 99.8761 236.11 93.6529 236.11C92.5126 236.11 91.3632 236.19 90.2121 236.353L66.902 239.651C62.5131 240.271 58.4714 237.337 57.7047 232.968L53.637 209.779C52.3397 202.386 47.7928 196.127 41.1619 192.61L20.3656 181.575C16.4478 179.497 14.9048 174.748 16.8523 170.764L27.1914 149.613C30.4876 142.869 30.4876 135.134 27.1914 128.39L16.8523 107.239C14.9048 103.254 16.4478 98.5055 20.3656 96.427L41.1619 85.3927C47.7922 81.8739 52.3397 75.6161 53.6364 68.2223L57.7036 45.034C58.4703 40.6658 62.5083 37.7312 66.9009 38.3517L90.211 41.649C97.6421 42.701 105.001 40.3095 110.396 35.0907L127.317 18.7222C130.504 15.6393 135.497 15.6393 138.685 18.7222L155.605 35.0907C161.001 40.31 168.358 42.701 175.79 41.649L199.1 38.3517C203.49 37.7307 207.532 40.6658 208.298 45.034L212.365 68.2229C213.662 75.6166 218.209 81.875 224.84 85.3927L245.636 96.427C249.554 98.5055 251.097 103.254 249.15 107.239L238.811 128.389C235.514 135.133 235.514 142.869 238.811 149.612L249.15 170.762C251.098 174.748 249.555 179.497 245.637 181.576Z" fill="#D1FF67"/>
<path d="M191.413 80.5892C188.292 77.4673 183.23 77.4673 180.108 80.5892L74.5893 186.108C71.4675 189.23 71.4675 194.292 74.5893 197.414C76.1503 198.975 78.1963 199.755 80.2419 199.755C82.2874 199.755 84.334 198.975 85.8944 197.414L191.413 91.8953C194.536 88.7729 194.536 83.7116 191.413 80.5892Z" fill="#D1FF67"/>
<path d="M101.024 67.0534C84.8617 67.0534 71.712 80.2031 71.712 96.3658C71.712 112.529 84.8617 125.678 101.024 125.678C117.187 125.678 130.337 112.529 130.337 96.3658C130.337 80.2031 117.187 67.0534 101.024 67.0534ZM101.024 109.689C93.6778 109.689 87.701 103.712 87.701 96.3653C87.701 89.0186 93.6778 83.0418 101.024 83.0418C108.371 83.0418 114.348 89.0186 114.348 96.3653C114.348 103.712 108.371 109.689 101.024 109.689Z" fill="#D1FF67"/>
<path d="M164.978 152.325C148.815 152.325 135.666 165.475 135.666 181.638C135.666 197.8 148.815 210.95 164.978 210.95C181.141 210.95 194.29 197.8 194.29 181.638C194.29 165.475 181.141 152.325 164.978 152.325ZM164.978 194.961C157.631 194.961 151.654 188.984 151.654 181.638C151.654 174.291 157.631 168.314 164.978 168.314C172.325 168.314 178.302 174.291 178.302 181.638C178.302 188.984 172.325 194.961 164.978 194.961Z" fill="#D1FF67"/>
</svg>
