<svg width="293" height="293" viewBox="0 0 293 293" fill="none" xmlns="http://www.w3.org/2000/svg">
<path d="M146.5 0C65.7207 0 0 65.7207 0 146.5C0 227.279 65.7207 293 146.5 293C227.279 293 293 227.279 293 146.5C293 65.7207 227.279 0 146.5 0ZM146.5 282.148C71.7026 282.148 10.8519 221.297 10.8519 146.5C10.8519 71.7026 71.7026 10.8519 146.5 10.8519C221.297 10.8519 282.148 71.7026 282.148 146.5C282.148 221.297 221.297 282.148 146.5 282.148Z" fill="#FFAFFA"/>
<path d="M244.548 120.07C243.907 118.104 242.211 116.673 240.166 116.376L178.807 107.458L151.364 51.8587C149.542 48.1493 143.458 48.1493 141.636 51.8587L114.193 107.458L52.8338 116.376C50.7886 116.673 49.0929 118.104 48.452 120.07C47.8162 122.03 48.3461 124.187 49.8243 125.628L94.2275 168.909L83.7465 230.024C83.3968 232.059 84.2341 234.115 85.9028 235.329C87.5824 236.548 89.7976 236.706 91.6203 235.742L146.5 206.89L201.379 235.742C202.174 236.161 203.043 236.367 203.907 236.367C205.03 236.367 206.148 236.018 207.097 235.329C208.766 234.115 209.603 232.059 209.253 230.024L198.772 168.909L243.175 125.628C244.654 124.187 245.184 122.03 244.548 120.07ZM189.155 163.133C187.878 164.378 187.295 166.174 187.597 167.934L196.7 221.022L149.028 195.959C148.233 195.54 147.369 195.333 146.5 195.333C145.631 195.333 144.767 195.54 143.972 195.959L96.2997 221.022L105.403 167.934C105.705 166.174 105.122 164.378 103.845 163.133L65.2755 125.533L118.576 117.786C120.346 117.532 121.871 116.419 122.661 114.819L146.5 66.5207L170.339 114.819C171.129 116.419 172.655 117.532 174.424 117.786L227.725 125.533L189.155 163.133Z" fill="#FFAFFA"/>
</svg>
