<svg width="268" height="282" viewBox="0 0 268 282" fill="none" xmlns="http://www.w3.org/2000/svg">
<path d="M5 13.6C5 8.85036 8.85036 5 13.6 5H254.4C259.15 5 263 8.85036 263 13.6V211.4C263 216.15 259.15 220 254.4 220H195.049C192.678 220 190.412 220.979 188.786 222.706L140.262 274.263C136.867 277.871 131.133 277.871 127.738 274.263L79.2134 222.706C77.5882 220.979 75.3221 220 72.9509 220H13.6C8.85036 220 5 216.15 5 211.4V13.6Z" stroke="#FFF28D" stroke-width="10"/>
<path d="M134 62.3333L154.431 99.2355L191.333 119.667L154.431 140.097L134 177L113.569 140.097L76.6667 119.667L113.569 99.2355L134 62.3333Z" stroke="#FFF28D" stroke-width="10" stroke-linecap="round" stroke-linejoin="round"/>
</svg>
