<svg width="313" height="311" viewBox="0 0 313 311" fill="none" xmlns="http://www.w3.org/2000/svg">
<path d="M162.796 25.4793C187.724 15.9281 223.77 22.6404 251.463 69.2228L244.556 73.1636C243.203 73.9359 242.358 75.3647 242.334 76.9219C242.31 78.4797 243.112 79.9331 244.44 80.7457L294.125 111.124C294.829 111.554 295.625 111.77 296.422 111.77C297.13 111.77 297.838 111.6 298.484 111.258C299.858 110.53 300.746 109.13 300.821 107.576L303.69 47.3727C303.767 45.7703 302.965 44.2527 301.599 43.4125C300.231 42.571 298.516 42.5415 297.12 43.3327L288.622 48.152C273.354 23.5624 254.302 8.30886 231.943 2.78707C208.839 -2.919 183.577 2.21476 158.888 17.6324C156.964 18.8336 156.267 21.2996 157.278 23.3303C158.29 25.361 160.676 26.2912 162.795 25.4793H162.796ZM229.832 11.337C250.9 16.54 268.875 31.674 283.26 56.3177C284.475 58.4006 287.139 59.1176 289.235 57.9289L294.513 54.9353L292.378 99.7317L255.393 77.1194L259.669 74.6805C261.769 73.4824 262.51 70.8159 261.33 68.7065C247.193 43.4245 229.713 26.4484 209.376 18.2487C202.64 15.5325 195.7 13.8703 188.778 13.2659C201.093 9.3736 215.165 7.71392 229.832 11.337H229.832ZM294.738 165.184C293.537 163.259 291.071 162.561 289.041 163.573C287.011 164.582 286.08 166.969 286.89 169.088C296.428 194.027 289.704 230.079 243.129 257.759L239.188 250.851C238.416 249.498 236.987 248.654 235.429 248.63C235.407 248.63 235.385 248.63 235.363 248.63C233.831 248.63 232.406 249.428 231.606 250.738L201.246 300.423C200.435 301.749 200.384 303.406 201.113 304.78C201.841 306.155 203.24 307.043 204.794 307.117L264.979 309.987C265.049 309.991 265.119 309.993 265.189 309.993C266.713 309.993 268.136 309.202 268.939 307.895C269.779 306.529 269.81 304.813 269.018 303.417L264.199 294.919C288.788 279.655 304.043 260.609 309.569 238.256C315.28 215.154 310.151 189.885 294.737 165.184L294.738 165.184ZM301.021 236.141C295.814 257.204 280.679 275.175 256.035 289.555C253.953 290.77 253.234 293.433 254.424 295.53L257.417 300.809L212.635 298.674L235.233 261.691L237.672 265.965C238.869 268.065 241.535 268.806 243.645 267.627C268.932 253.49 285.912 236.011 294.113 215.672C296.828 208.937 298.491 201.994 299.096 195.071C302.988 207.393 304.647 221.472 301.021 236.143V236.141ZM150.163 285.056C125.229 294.591 89.1717 287.864 61.4772 241.298L68.3983 237.355C69.7523 236.584 70.5976 235.155 70.6221 233.596C70.646 232.038 69.8448 230.584 68.5153 229.771L18.831 199.412C17.5047 198.601 15.8475 198.551 14.4727 199.279C13.0986 200.007 12.2105 201.406 12.1363 202.96L9.266 263.144C9.18927 264.747 9.9905 266.264 11.3571 267.104C12.7231 267.945 14.4388 267.977 15.8349 267.186L24.3164 262.381C39.5937 286.974 58.6477 302.227 81.0066 307.749C87.1284 309.261 93.3992 310.012 99.7738 310.011C117.454 310.011 135.916 304.234 154.069 292.904C155.992 291.703 156.689 289.238 155.679 287.207C154.67 285.177 152.282 284.245 150.163 285.056ZM83.1172 299.199C62.0507 293.997 44.0716 278.862 29.6784 254.217C28.8608 252.816 27.3873 252.033 25.8723 252.033C25.1371 252.033 24.3912 252.218 23.7063 252.606L18.4436 255.587L20.5794 210.801L57.5566 233.396L53.2725 235.836C51.1707 237.033 50.4285 239.701 51.609 241.812C65.7537 267.099 83.2386 284.078 103.579 292.278C110.319 294.995 117.266 296.659 124.194 297.262C111.872 301.158 97.7883 302.823 83.1172 299.199ZM21.9561 147.424C22.6171 147.424 23.2875 147.275 23.9157 146.962C25.9465 145.952 26.8766 143.564 26.0653 141.446C16.5198 116.516 23.246 80.4633 69.824 52.7618L73.766 59.6823C74.537 61.0364 75.9665 61.8822 77.5243 61.9061C79.0784 61.9112 80.5374 61.1288 81.35 59.7987L111.71 10.1138C112.521 8.78683 112.571 7.13029 111.843 5.75613C111.115 4.38134 109.716 3.49333 108.162 3.41975L47.9595 0.550047C46.3595 0.462629 44.8388 1.27518 43.998 2.64305C43.1578 4.01029 43.1282 5.72657 43.9206 7.12275L48.7355 15.601C24.1522 30.8677 8.89872 49.9179 3.37566 72.2724C-2.33355 95.3784 2.79896 120.649 18.2185 145.351C19.048 146.68 20.48 147.424 21.9561 147.424ZM11.925 74.3843C17.1298 53.3191 32.2626 35.3455 56.9044 20.9625C58.9873 19.7468 59.7049 17.0821 58.5138 14.9847L55.5277 9.72705L100.321 11.8628L77.7256 48.84L75.2861 44.5565C74.0893 42.4541 71.4208 41.7101 69.3102 42.8924C44.02 57.0384 27.0383 74.5214 18.8367 94.8552C16.1204 101.59 14.4576 108.533 13.8526 115.456C9.96031 103.134 8.3 89.0554 11.925 74.3843ZM82.5845 91.6238C82.5845 106.473 89.8125 119.662 100.931 127.87C87.5963 128.087 75.1062 133.468 65.6845 143.101C56.3352 152.661 50.7537 165.554 49.9676 179.407L48.4167 206.79C48.3481 207.999 48.7808 209.183 49.6122 210.063C50.4436 210.942 51.6015 211.442 52.8127 211.442H106.751L106.141 222.21C106.073 223.419 106.506 224.603 107.337 225.483C108.169 226.363 109.326 226.862 110.538 226.862H260.126C261.337 226.862 262.494 226.363 263.327 225.483C264.159 224.603 264.591 223.419 264.522 222.21L262.971 194.812C262.194 180.959 256.617 168.065 247.267 158.504C237.848 148.873 225.358 143.493 212.019 143.273C223.131 135.068 230.354 121.886 230.354 107.045C230.354 82.2142 210.161 62.0124 185.34 62.0124C178.087 62.0124 171.235 63.7463 165.159 66.8059C157.089 54.6467 143.276 46.6099 127.615 46.6099C102.785 46.6099 82.5839 66.8028 82.5839 91.6238H82.5845ZM107.692 194.809L107.25 202.634H57.4729L58.7603 179.903C60.1602 155.248 78.6488 136.655 101.767 136.655H151.467C153.616 139.108 156.022 141.331 158.651 143.272C145.309 143.49 132.817 148.87 123.396 158.503C114.046 168.064 108.469 180.958 107.692 194.809ZM211.173 152.058C234.308 152.058 252.796 170.65 254.179 195.307L255.466 218.055H115.197L116.485 195.304C117.867 170.65 136.357 152.058 159.491 152.058H211.173ZM185.341 70.819C205.306 70.819 221.548 87.0693 221.548 107.044C221.548 127.019 205.306 143.251 185.341 143.251C165.376 143.251 149.116 127.009 149.116 107.044C149.116 87.0794 165.366 70.819 185.341 70.819ZM127.616 55.4165C140.151 55.4165 151.217 61.8149 157.723 71.5139C147.137 79.7608 140.309 92.6163 140.309 107.044C140.309 113.073 141.51 118.825 143.67 124.085C138.828 126.489 133.379 127.848 127.616 127.848C107.641 127.848 91.3911 111.598 91.3911 91.6232C91.3911 71.6485 107.641 55.4165 127.616 55.4165Z" fill="#FFADAD" stroke="#FFADAD"/>
</svg>
