<svg width="439" height="426" viewBox="0 0 439 426" fill="none" xmlns="http://www.w3.org/2000/svg">
<path d="M150.243 8.43945C153.712 6.66557 158 7.90544 159.97 11.3174L274.276 209.305C275.592 211.583 275.592 214.391 274.276 216.67L159.97 414.677C158.993 416.369 157.384 417.604 155.497 418.109C153.61 418.615 151.599 418.349 149.907 417.372L77.1621 375.349C73.6411 373.314 72.4347 368.811 74.4678 365.289L133.893 262.352H15C10.9324 262.352 7.63477 259.054 7.63477 254.986V170.998L7.64453 170.619C7.84189 166.728 11.0596 163.634 15 163.634H133.894L74.4668 60.6582C73.4905 58.9664 73.2266 56.956 73.7324 55.0693C74.2384 53.1826 75.4731 51.5739 77.165 50.5977L149.91 8.62109L150.243 8.43945Z" stroke="#67FFC2" stroke-width="14.73" stroke-linecap="round" stroke-linejoin="round"/>
<path d="M279.029 10.9932C281.146 7.7228 285.478 6.65183 288.89 8.62109L361.635 50.6045C363.326 51.5809 364.56 53.1896 365.066 55.0762C365.54 56.8451 365.338 58.7229 364.506 60.3447L364.331 60.666L304.886 163.641H423.75C427.817 163.641 431.115 166.937 431.115 171.005V254.993C431.115 259.061 427.817 262.358 423.75 262.358H304.889L364.331 365.295C366.365 368.817 365.158 373.321 361.636 375.355L288.893 417.379C287.202 418.356 285.191 418.622 283.303 418.116C281.416 417.611 279.807 416.376 278.83 414.684L213.009 300.662C211.693 298.383 211.694 295.576 213.01 293.297L259.385 212.99L213.01 132.667C211.694 130.388 211.694 127.581 213.01 125.302L278.831 11.3174L279.029 10.9932Z" stroke="#67FFC2" stroke-width="14.73" stroke-linecap="round" stroke-linejoin="round"/>
</svg>
