<svg width="302" height="384" viewBox="0 0 302 384" fill="none" xmlns="http://www.w3.org/2000/svg">
<path d="M277.21 159.33C263.275 136.95 244.015 116.775 221.222 100.553C224.86 96.405 227.072 90.9675 227.072 85.0275C227.072 72.03 216.512 61.4625 203.53 61.4625H199.21L211.255 33.6225C215.492 23.7975 213.025 12.3975 205.105 5.25001C198.325 -0.862493 188.59 -1.67249 180.88 3.24751L175.69 6.56251C172.937 8.32501 169.78 8.32501 167.035 6.57001L161.792 3.20251C155.125 -1.05749 146.845 -1.05749 140.185 3.20251L134.935 6.56251C132.182 8.32501 129.025 8.32501 126.28 6.57001L121.097 3.24751C113.395 -1.67999 103.652 -0.877493 96.865 5.25001C88.96 12.39 86.5 23.79 90.745 33.6225L102.767 61.4625H98.47C85.4725 61.4625 74.905 72.0375 74.905 85.0275C74.905 90.9675 77.1175 96.3975 80.7625 100.553C57.97 116.775 38.7175 136.95 24.7825 159.33C8.64249 185.25 0.11499 213.517 0.11499 241.072C0.11499 319.875 67.8025 383.992 151.007 383.992C234.212 383.992 301.9 319.882 301.9 241.072C301.892 213.525 293.357 185.258 277.21 159.33ZM101.77 28.86C99.565 23.76 100.832 17.85 104.912 14.16C107.68 11.67 111.497 11.355 114.632 13.35L119.807 16.6725C126.475 20.9325 134.755 20.9325 141.415 16.6725L146.665 13.3125C149.417 11.55 152.575 11.55 155.32 13.305L160.562 16.6725C167.23 20.9325 175.51 20.9325 182.17 16.6725L187.352 13.3575C190.495 11.355 194.305 11.67 197.065 14.1525C201.16 17.85 202.427 23.76 200.237 28.8525L186.137 61.455H115.862L101.77 28.86ZM98.47 73.4775H111.887H111.91H111.94H190H190.067H203.537C209.897 73.4775 215.072 78.66 215.072 85.035C215.072 91.41 209.897 96.5925 203.537 96.5925H98.47C92.095 96.5925 86.9125 91.41 86.9125 85.035C86.9125 78.66 92.095 73.4775 98.47 73.4775ZM151 371.985C74.425 371.985 12.1225 313.26 12.1225 241.08C12.1225 191.79 42.52 140.895 91.6525 107.588C93.8125 108.24 96.1 108.593 98.47 108.593H203.537C205.9 108.593 208.18 108.24 210.332 107.588C259.472 140.895 289.877 191.797 289.877 241.072C289.877 313.26 227.575 371.985 151 371.985ZM233.252 162.195C221.71 162.195 212.32 171.578 212.32 183.105C212.32 186.698 213.227 190.08 214.832 193.035L197.792 210.09C196.84 211.042 195.767 211.403 194.432 211.23C193.09 211.05 192.16 210.428 191.485 209.25L166.21 165.48C169.75 161.73 171.925 156.683 171.925 151.133C171.925 139.605 162.535 130.223 150.993 130.223C139.45 130.223 130.06 139.605 130.06 151.133C130.06 156.683 132.235 161.73 135.775 165.48L110.507 209.242C109.825 210.427 108.88 211.058 107.597 211.23C106.225 211.403 105.145 211.043 104.2 210.098L87.145 193.027C88.7425 190.072 89.65 186.698 89.65 183.113C89.65 171.585 80.26 162.203 68.7175 162.203C57.19 162.203 47.8075 171.585 47.8075 183.113C47.8075 193.253 55.045 201.72 64.615 203.64L71.2075 274.215C67.7875 276.142 65.47 279.803 65.47 283.995V304.957C65.47 311.167 70.5175 316.215 76.7275 316.215H225.25C231.46 316.215 236.507 311.167 236.507 304.957V283.995C236.507 279.795 234.182 276.128 230.755 274.2L237.362 203.633C246.94 201.713 254.17 193.245 254.17 183.113C254.185 171.57 244.795 162.195 233.252 162.195ZM151 142.23C155.92 142.23 159.917 146.22 159.917 151.125C159.917 156.045 155.92 160.043 151 160.043C146.08 160.043 142.082 156.045 142.082 151.125C142.082 146.22 146.08 142.23 151 142.23ZM109.142 223.133C114.167 222.465 118.345 219.667 120.91 215.25L146.177 171.488C147.73 171.855 149.342 172.058 151 172.058C152.657 172.058 154.27 171.855 155.822 171.488L181.082 215.228C183.61 219.645 187.795 222.458 192.895 223.133C197.95 223.77 202.712 222.15 206.297 218.572L223.33 201.518C224.005 201.885 224.702 202.207 225.415 202.492L218.837 272.73H83.1475L76.585 202.485C77.2975 202.193 77.995 201.87 78.6625 201.51L95.71 218.572C99.2875 222.157 104.042 223.778 109.142 223.133ZM59.83 183.105C59.83 178.2 63.82 174.21 68.725 174.21C73.645 174.21 77.6425 178.2 77.6425 183.105C77.6425 188.025 73.645 192.022 68.725 192.022C63.82 192.022 59.83 188.018 59.83 183.105ZM224.507 304.185H77.4925V284.753H77.6575H77.665H77.6725H224.297H224.305H224.312H224.5V304.185H224.507ZM233.252 192.022C230.815 192.022 228.602 191.04 226.99 189.443C226.975 189.428 226.967 189.413 226.952 189.398C226.937 189.383 226.915 189.368 226.892 189.345C225.31 187.733 224.327 185.528 224.327 183.098C224.327 178.193 228.325 174.203 233.245 174.203C238.165 174.203 242.162 178.193 242.162 183.098C242.17 188.018 238.172 192.022 233.252 192.022ZM134.665 220.072C134.665 213.217 138.962 207.367 145 205.027V200.857C145 197.542 147.685 194.85 151.007 194.85C154.33 194.85 157.015 197.535 157.015 200.857V204.405C160.63 205.298 163.892 207.435 166.157 210.48C168.137 213.143 167.582 216.907 164.92 218.88C162.257 220.86 158.492 220.305 156.52 217.643C155.725 216.578 154.48 215.94 153.175 215.94H150.812C148.57 215.94 146.68 217.83 146.68 220.072C146.68 222.352 148.532 224.205 150.812 224.205H151.172H152.005C152.492 224.205 152.965 224.273 153.415 224.378C161.267 225.473 167.342 232.222 167.342 240.367C167.342 247.215 163.045 253.065 157.007 255.412V259.59C157.007 262.905 154.322 265.598 151 265.598C147.677 265.598 144.993 262.912 144.993 259.59V256.043C141.363 255.143 138.092 252.997 135.835 249.93C133.87 247.26 134.432 243.503 137.102 241.53C139.772 239.565 143.53 240.128 145.502 242.798C146.29 243.863 147.535 244.5 148.832 244.5H151.172C153.422 244.5 155.327 242.61 155.327 240.367C155.327 238.072 153.46 236.213 151.172 236.213H150.812H150.002C149.522 236.213 149.065 236.153 148.615 236.048C140.747 234.975 134.665 228.232 134.665 220.072Z" fill="url(#paint0_linear_26_24)"/>
<defs>
<linearGradient id="paint0_linear_26_24" x1="0.10824" y1="192" x2="301.892" y2="192" gradientUnits="userSpaceOnUse">
<stop stop-color="#E7CDFF"/>
<stop offset="0.1488" stop-color="#DDBEFF"/>
<stop offset="0.3414" stop-color="#BD9AFF"/>
<stop offset="0.5582" stop-color="#9894FF"/>
<stop offset="0.7908" stop-color="#8FC0FF"/>
<stop offset="1" stop-color="#8CE7FF"/>
</linearGradient>
</defs>
</svg>
