<svg width="172" height="190" viewBox="0 0 172 190" fill="none" xmlns="http://www.w3.org/2000/svg">
<path d="M128.399 5.83334H43.6014C33.2681 5.83334 28.1015 5.83334 23.9346 7.28328C16.0329 10.0327 9.8292 16.4191 7.15839 24.5535C5.75 28.8432 5.75 34.162 5.75 44.7997V169.67C5.75 177.322 14.5329 181.383 20.0889 176.299C23.353 173.312 28.272 173.312 31.5361 176.299L35.8438 180.241C41.5646 185.476 50.1854 185.476 55.9063 180.241C61.6271 175.006 70.2478 175.006 75.9688 180.241C81.6897 185.476 90.3103 185.476 96.0313 180.241C101.752 175.006 110.373 175.006 116.094 180.241C121.815 185.476 130.435 185.476 136.156 180.241L140.464 176.299C143.728 173.312 148.647 173.312 151.911 176.299C157.467 181.383 166.25 177.322 166.25 169.67V44.7997C166.25 34.162 166.25 28.8432 164.841 24.5535C162.171 16.4191 155.967 10.0327 148.065 7.28328C143.899 5.83334 138.732 5.83334 128.399 5.83334Z" stroke="#FFCF87" stroke-width="10"/>
<path d="M63.7083 80.7333L76.4467 95L108.292 59.3333" stroke="#FFCF87" stroke-width="10" stroke-linecap="round" stroke-linejoin="round"/>
<path d="M45.875 126.208H126.125" stroke="#FFCF87" stroke-width="10" stroke-linecap="round"/>
</svg>
