<svg width="366" height="401" viewBox="0 0 366 401" fill="none" xmlns="http://www.w3.org/2000/svg">
<mask id="path-1-inside-1_69_46" fill="white">
<path d="M364.368 51.4735C363.939 45.5447 363.639 39.6445 363.039 33.7728C362.525 28.444 361.868 23.1152 361.325 17.7864C361.125 15.8149 360.696 14.0434 359.982 12.3719C360.139 8.11462 358.353 3.97159 354.31 1.58578C352.468 0.528594 350.339 0 348.21 0C344.01 0 339.781 2.02866 337.795 5.91453C335.71 9.97184 333.324 14.0149 330.667 17.7722C325.524 23.8724 319.709 29.4869 313.509 34.5014C309.051 37.8016 304.466 40.6731 299.465 43.1732C293.579 46.1162 287.665 49.0163 281.65 51.7164C271.278 55.888 260.749 59.2024 249.949 62.0026C244.206 63.474 238.506 65.1884 232.705 66.4884C227.048 67.7599 221.334 68.6028 215.648 69.8029C203.847 72.303 192.175 75.4317 180.403 78.0746C169.003 80.6319 157.474 82.832 146.359 86.4178C121.372 94.4896 97.5428 106.162 78.0705 124.034C75.999 125.905 74.1847 128.134 72.4131 130.291C70.0273 133.234 67.6272 136.22 65.5557 139.406C62.127 144.677 58.8697 150.035 55.7125 155.449C52.6409 160.692 49.6979 166.021 46.8692 171.407C43.6548 177.422 40.4833 183.508 38.1689 189.922C34.0687 201.423 30.8543 213.009 28.5399 224.981C27.2827 231.452 26.4255 238.11 25.897 244.667C25.4684 250.439 25.6255 256.225 25.8684 261.996C26.4113 274.311 28.4256 286.583 32.0686 298.355C33.783 303.898 35.3831 309.613 37.5831 314.999C39.9261 320.685 42.7262 326.142 45.4406 331.671C48.5693 338 51.998 344.171 55.3553 350.386C52.4838 352.343 49.6551 354.357 46.7121 356.229C36.8117 362.472 27.0113 369.187 16.2965 373.944C12.9821 375.244 9.65342 376.53 6.439 378.03C3.76747 379.287 1.76738 382.387 0.995922 385.102C0.15303 388.145 0.581621 391.459 2.19597 394.216C3.75318 396.859 6.29614 398.816 9.23912 399.631C12.5821 400.559 15.2965 399.788 18.3538 398.459C18.6395 398.331 18.9252 398.202 19.211 398.074C24.1969 396.031 29.2114 394.045 33.9973 391.573C39.1975 388.887 44.0834 385.516 49.0122 382.359C54.8267 378.644 60.4698 374.687 66.1843 370.83C66.8129 371.387 67.3129 372.072 68.0844 372.472C72.656 374.887 77.3276 376.987 82.2564 378.558C84.6279 379.344 87.0423 379.944 89.4424 380.601C93.0854 381.573 96.7856 382.444 100.457 383.316C108.315 385.159 116.101 386.659 124.115 387.745C123.058 387.602 122.001 387.445 120.958 387.316C122.301 387.502 123.63 387.687 124.972 387.873C131.387 388.816 137.787 389.802 144.259 390.287C151.931 390.888 160.06 391.245 167.617 389.559C174.089 388.116 180.446 386.402 186.704 384.144C192.761 382.001 198.69 379.387 204.619 376.915C216.962 371.83 228.877 365.844 240.163 358.729C245.706 355.215 251.292 351.743 256.864 348.314C262.821 344.671 268.093 340.1 273.321 335.499C283.436 326.628 292.108 316.213 299.965 305.341C307.494 294.926 315.166 284.669 321.366 273.411C324.381 267.911 327.138 262.268 329.909 256.639C332.824 250.767 335.867 244.924 338.524 238.91C341.596 231.981 344.396 224.938 347.067 217.838C349.296 211.852 351.725 205.894 353.453 199.78C356.968 187.351 358.925 174.536 360.954 161.821C363.097 148.492 364.268 135.22 364.739 121.705C365.154 109.633 365.425 97.5326 365.368 85.4607C365.339 74.103 365.239 62.7312 364.368 51.4735ZM138.973 366.372C139.83 366.487 140.673 366.601 141.53 366.715C141.873 366.772 142.216 366.815 142.573 366.872C141.373 366.701 140.173 366.529 138.973 366.372ZM337.195 115.548C336.953 127.305 336.653 138.949 335.31 150.635C333.495 163.521 331.324 176.422 328.167 189.065C326.538 195.622 324.281 201.951 322.023 208.294C319.866 214.452 317.623 220.552 315.166 226.595C309.337 239.41 303.323 252.282 296.322 264.511C292.679 270.925 288.593 277.054 284.35 283.083C280.736 288.269 277.107 293.455 273.321 298.527C269.093 303.841 264.792 309.098 260.121 314.027C256.021 318.342 251.421 322.37 246.777 326.156C242.663 328.999 238.434 331.671 234.234 334.371C230.205 336.985 226.234 339.7 222.162 342.285C213.462 347.757 204.276 352.443 194.832 356.486C189.489 358.7 184.146 360.901 178.689 362.843C172.974 364.872 166.931 366.344 160.931 367.372C154.459 367.929 147.845 367.315 141.445 366.687C137.444 366.101 133.473 365.358 129.473 364.772C125.115 364.115 120.772 363.444 116.444 362.486C111.9 361.486 107.415 360.201 102.957 358.929C98.3571 357.586 93.7712 356.143 89.2567 354.572C96.5999 349.014 103.857 343.357 111.129 337.728C121.515 329.656 131.501 321.142 141.316 312.384C143.13 310.77 144.888 309.098 146.688 307.484C152.702 308.984 158.717 310.513 164.817 311.727C172.617 313.256 180.646 314.67 188.589 315.213C196.533 315.784 204.747 315.627 212.519 313.741C216.076 312.87 219.533 311.513 222.991 310.313C226.577 309.041 230.334 308.198 234.034 307.37C240.377 305.984 244.02 298.727 242.363 292.712C240.563 286.183 234.034 283.026 227.705 284.397C223.162 285.383 218.762 286.712 214.348 288.155C210.519 289.44 206.733 290.698 202.79 291.441C194.004 292.298 184.932 291.669 176.146 290.626C173.132 290.155 170.16 289.412 167.174 288.769C177.06 279.483 186.761 270.025 196.09 260.196C205.304 250.51 214.533 240.838 223.419 230.852C227.734 226.038 231.891 221.081 235.948 216.052C237.977 216.466 240.02 216.866 242.049 217.223C244.877 217.709 247.735 218.009 250.62 218.223C254.921 218.523 259.321 217.623 263.507 216.666C273.293 214.495 282.865 211.494 292.336 208.123C295.194 207.094 297.537 205.594 299.108 202.908C300.665 200.265 301.065 197.094 300.28 194.151C298.994 189.508 294.265 185.665 289.365 185.665C288.336 185.665 287.293 185.836 286.265 186.208C280.55 188.279 274.85 190.265 269.021 192.079C264.135 193.622 259.121 195.122 254.092 196.108C253.163 196.165 252.249 196.051 251.335 196.037C261.307 182.922 271.064 169.578 280.307 155.992C292.165 138.534 304.051 121.105 315.823 103.561C319.623 97.8754 316.937 89.6894 311.309 86.4036C309.323 85.2464 307.223 84.7035 305.166 84.7035C300.851 84.7035 296.708 87.0464 294.151 90.918C283.05 107.676 272.036 124.448 261.164 141.334C251.878 155.735 241.906 169.578 231.591 183.208C223.705 193.151 215.776 203.008 207.519 212.666C199.447 222.109 190.547 230.881 181.989 239.896C180.875 241.053 179.718 242.167 178.603 243.324C174.617 239.838 170.889 235.995 167.517 231.938C163.503 226.366 159.445 220.695 156.559 214.452C151.431 201.623 148.045 188.236 144.673 174.836C143.373 169.65 138.402 166.235 133.259 166.235C132.244 166.235 131.23 166.364 130.23 166.65C123.972 168.364 120.444 174.893 122.044 181.093C124.415 190.365 126.973 199.551 129.901 208.666C131.13 212.423 132.487 216.137 133.787 219.838C135.587 224.866 137.244 230.009 140.145 234.524C144.93 241.996 149.359 249.567 155.317 256.196C156.988 258.053 158.745 259.854 160.502 261.625C158.488 263.611 156.588 265.711 154.531 267.668C148.573 273.34 142.53 278.94 136.501 284.569C134.859 285.512 133.43 286.783 132.387 288.426C130.201 290.469 128.03 292.526 125.83 294.569C110.886 308.441 94.8712 321.013 78.8277 333.599C77.5419 334.585 76.2133 335.514 74.9275 336.485C69.813 327.313 64.87 318.042 60.5555 308.456C58.3983 302.87 56.6268 297.084 55.0267 291.326C53.3266 285.155 51.9266 278.983 50.9265 272.683C50.2551 266.825 49.7694 260.925 49.6408 255.025C49.5122 248.91 49.8694 242.896 50.5694 236.824C52.6838 221.938 55.9268 207.309 61.2127 193.194C64.9271 185.136 69.1702 177.379 73.456 169.621C77.6848 161.978 82.2707 154.563 87.3709 147.477C89.5281 144.92 91.7425 142.477 94.0712 140.063C96.1141 137.934 98.4714 136.077 100.829 134.248C106.157 130.434 111.586 126.92 117.186 123.519C122.858 120.105 129.001 117.448 135.016 114.733C145.902 110.376 156.931 106.862 168.389 104.29C179.646 101.733 190.989 99.4755 202.218 96.6754C208.09 95.2325 213.933 93.6324 219.848 92.3467C225.619 91.0895 231.463 90.2751 237.191 88.9465C242.877 87.6179 248.392 85.8178 254.021 84.2892C259.949 82.6891 265.878 81.1891 271.721 79.2318C281.136 76.046 290.436 72.5744 299.465 68.4314C307.437 64.7884 315.78 61.774 322.995 56.7309C327.781 53.3736 332.367 49.6735 336.795 45.8019C336.895 47.2162 336.995 48.6163 337.095 50.0306C337.253 52.5879 337.553 55.088 337.638 57.6452C337.753 60.6168 337.724 63.574 337.753 66.5313C337.81 71.5601 337.867 76.5889 337.81 81.6176C337.667 92.9181 337.438 104.261 337.195 115.548Z"/>
</mask>
<path d="M364.368 51.4735C363.939 45.5447 363.639 39.6445 363.039 33.7728C362.525 28.444 361.868 23.1152 361.325 17.7864C361.125 15.8149 360.696 14.0434 359.982 12.3719C360.139 8.11462 358.353 3.97159 354.31 1.58578C352.468 0.528594 350.339 0 348.21 0C344.01 0 339.781 2.02866 337.795 5.91453C335.71 9.97184 333.324 14.0149 330.667 17.7722C325.524 23.8724 319.709 29.4869 313.509 34.5014C309.051 37.8016 304.466 40.6731 299.465 43.1732C293.579 46.1162 287.665 49.0163 281.65 51.7164C271.278 55.888 260.749 59.2024 249.949 62.0026C244.206 63.474 238.506 65.1884 232.705 66.4884C227.048 67.7599 221.334 68.6028 215.648 69.8029C203.847 72.303 192.175 75.4317 180.403 78.0746C169.003 80.6319 157.474 82.832 146.359 86.4178C121.372 94.4896 97.5428 106.162 78.0705 124.034C75.999 125.905 74.1847 128.134 72.4131 130.291C70.0273 133.234 67.6272 136.22 65.5557 139.406C62.127 144.677 58.8697 150.035 55.7125 155.449C52.6409 160.692 49.6979 166.021 46.8692 171.407C43.6548 177.422 40.4833 183.508 38.1689 189.922C34.0687 201.423 30.8543 213.009 28.5399 224.981C27.2827 231.452 26.4255 238.11 25.897 244.667C25.4684 250.439 25.6255 256.225 25.8684 261.996C26.4113 274.311 28.4256 286.583 32.0686 298.355C33.783 303.898 35.3831 309.613 37.5831 314.999C39.9261 320.685 42.7262 326.142 45.4406 331.671C48.5693 338 51.998 344.171 55.3553 350.386C52.4838 352.343 49.6551 354.357 46.7121 356.229C36.8117 362.472 27.0113 369.187 16.2965 373.944C12.9821 375.244 9.65342 376.53 6.439 378.03C3.76747 379.287 1.76738 382.387 0.995922 385.102C0.15303 388.145 0.581621 391.459 2.19597 394.216C3.75318 396.859 6.29614 398.816 9.23912 399.631C12.5821 400.559 15.2965 399.788 18.3538 398.459C18.6395 398.331 18.9252 398.202 19.211 398.074C24.1969 396.031 29.2114 394.045 33.9973 391.573C39.1975 388.887 44.0834 385.516 49.0122 382.359C54.8267 378.644 60.4698 374.687 66.1843 370.83C66.8129 371.387 67.3129 372.072 68.0844 372.472C72.656 374.887 77.3276 376.987 82.2564 378.558C84.6279 379.344 87.0423 379.944 89.4424 380.601C93.0854 381.573 96.7856 382.444 100.457 383.316C108.315 385.159 116.101 386.659 124.115 387.745C123.058 387.602 122.001 387.445 120.958 387.316C122.301 387.502 123.63 387.687 124.972 387.873C131.387 388.816 137.787 389.802 144.259 390.287C151.931 390.888 160.06 391.245 167.617 389.559C174.089 388.116 180.446 386.402 186.704 384.144C192.761 382.001 198.69 379.387 204.619 376.915C216.962 371.83 228.877 365.844 240.163 358.729C245.706 355.215 251.292 351.743 256.864 348.314C262.821 344.671 268.093 340.1 273.321 335.499C283.436 326.628 292.108 316.213 299.965 305.341C307.494 294.926 315.166 284.669 321.366 273.411C324.381 267.911 327.138 262.268 329.909 256.639C332.824 250.767 335.867 244.924 338.524 238.91C341.596 231.981 344.396 224.938 347.067 217.838C349.296 211.852 351.725 205.894 353.453 199.78C356.968 187.351 358.925 174.536 360.954 161.821C363.097 148.492 364.268 135.22 364.739 121.705C365.154 109.633 365.425 97.5326 365.368 85.4607C365.339 74.103 365.239 62.7312 364.368 51.4735ZM138.973 366.372C139.83 366.487 140.673 366.601 141.53 366.715C141.873 366.772 142.216 366.815 142.573 366.872C141.373 366.701 140.173 366.529 138.973 366.372ZM337.195 115.548C336.953 127.305 336.653 138.949 335.31 150.635C333.495 163.521 331.324 176.422 328.167 189.065C326.538 195.622 324.281 201.951 322.023 208.294C319.866 214.452 317.623 220.552 315.166 226.595C309.337 239.41 303.323 252.282 296.322 264.511C292.679 270.925 288.593 277.054 284.35 283.083C280.736 288.269 277.107 293.455 273.321 298.527C269.093 303.841 264.792 309.098 260.121 314.027C256.021 318.342 251.421 322.37 246.777 326.156C242.663 328.999 238.434 331.671 234.234 334.371C230.205 336.985 226.234 339.7 222.162 342.285C213.462 347.757 204.276 352.443 194.832 356.486C189.489 358.7 184.146 360.901 178.689 362.843C172.974 364.872 166.931 366.344 160.931 367.372C154.459 367.929 147.845 367.315 141.445 366.687C137.444 366.101 133.473 365.358 129.473 364.772C125.115 364.115 120.772 363.444 116.444 362.486C111.9 361.486 107.415 360.201 102.957 358.929C98.3571 357.586 93.7712 356.143 89.2567 354.572C96.5999 349.014 103.857 343.357 111.129 337.728C121.515 329.656 131.501 321.142 141.316 312.384C143.13 310.77 144.888 309.098 146.688 307.484C152.702 308.984 158.717 310.513 164.817 311.727C172.617 313.256 180.646 314.67 188.589 315.213C196.533 315.784 204.747 315.627 212.519 313.741C216.076 312.87 219.533 311.513 222.991 310.313C226.577 309.041 230.334 308.198 234.034 307.37C240.377 305.984 244.02 298.727 242.363 292.712C240.563 286.183 234.034 283.026 227.705 284.397C223.162 285.383 218.762 286.712 214.348 288.155C210.519 289.44 206.733 290.698 202.79 291.441C194.004 292.298 184.932 291.669 176.146 290.626C173.132 290.155 170.16 289.412 167.174 288.769C177.06 279.483 186.761 270.025 196.09 260.196C205.304 250.51 214.533 240.838 223.419 230.852C227.734 226.038 231.891 221.081 235.948 216.052C237.977 216.466 240.02 216.866 242.049 217.223C244.877 217.709 247.735 218.009 250.62 218.223C254.921 218.523 259.321 217.623 263.507 216.666C273.293 214.495 282.865 211.494 292.336 208.123C295.194 207.094 297.537 205.594 299.108 202.908C300.665 200.265 301.065 197.094 300.28 194.151C298.994 189.508 294.265 185.665 289.365 185.665C288.336 185.665 287.293 185.836 286.265 186.208C280.55 188.279 274.85 190.265 269.021 192.079C264.135 193.622 259.121 195.122 254.092 196.108C253.163 196.165 252.249 196.051 251.335 196.037C261.307 182.922 271.064 169.578 280.307 155.992C292.165 138.534 304.051 121.105 315.823 103.561C319.623 97.8754 316.937 89.6894 311.309 86.4036C309.323 85.2464 307.223 84.7035 305.166 84.7035C300.851 84.7035 296.708 87.0464 294.151 90.918C283.05 107.676 272.036 124.448 261.164 141.334C251.878 155.735 241.906 169.578 231.591 183.208C223.705 193.151 215.776 203.008 207.519 212.666C199.447 222.109 190.547 230.881 181.989 239.896C180.875 241.053 179.718 242.167 178.603 243.324C174.617 239.838 170.889 235.995 167.517 231.938C163.503 226.366 159.445 220.695 156.559 214.452C151.431 201.623 148.045 188.236 144.673 174.836C143.373 169.65 138.402 166.235 133.259 166.235C132.244 166.235 131.23 166.364 130.23 166.65C123.972 168.364 120.444 174.893 122.044 181.093C124.415 190.365 126.973 199.551 129.901 208.666C131.13 212.423 132.487 216.137 133.787 219.838C135.587 224.866 137.244 230.009 140.145 234.524C144.93 241.996 149.359 249.567 155.317 256.196C156.988 258.053 158.745 259.854 160.502 261.625C158.488 263.611 156.588 265.711 154.531 267.668C148.573 273.34 142.53 278.94 136.501 284.569C134.859 285.512 133.43 286.783 132.387 288.426C130.201 290.469 128.03 292.526 125.83 294.569C110.886 308.441 94.8712 321.013 78.8277 333.599C77.5419 334.585 76.2133 335.514 74.9275 336.485C69.813 327.313 64.87 318.042 60.5555 308.456C58.3983 302.87 56.6268 297.084 55.0267 291.326C53.3266 285.155 51.9266 278.983 50.9265 272.683C50.2551 266.825 49.7694 260.925 49.6408 255.025C49.5122 248.91 49.8694 242.896 50.5694 236.824C52.6838 221.938 55.9268 207.309 61.2127 193.194C64.9271 185.136 69.1702 177.379 73.456 169.621C77.6848 161.978 82.2707 154.563 87.3709 147.477C89.5281 144.92 91.7425 142.477 94.0712 140.063C96.1141 137.934 98.4714 136.077 100.829 134.248C106.157 130.434 111.586 126.92 117.186 123.519C122.858 120.105 129.001 117.448 135.016 114.733C145.902 110.376 156.931 106.862 168.389 104.29C179.646 101.733 190.989 99.4755 202.218 96.6754C208.09 95.2325 213.933 93.6324 219.848 92.3467C225.619 91.0895 231.463 90.2751 237.191 88.9465C242.877 87.6179 248.392 85.8178 254.021 84.2892C259.949 82.6891 265.878 81.1891 271.721 79.2318C281.136 76.046 290.436 72.5744 299.465 68.4314C307.437 64.7884 315.78 61.774 322.995 56.7309C327.781 53.3736 332.367 49.6735 336.795 45.8019C336.895 47.2162 336.995 48.6163 337.095 50.0306C337.253 52.5879 337.553 55.088 337.638 57.6452C337.753 60.6168 337.724 63.574 337.753 66.5313C337.81 71.5601 337.867 76.5889 337.81 81.6176C337.667 92.9181 337.438 104.261 337.195 115.548Z" fill="#FFD76A" stroke="black" stroke-width="4" mask="url(#path-1-inside-1_69_46)"/>
</svg>
