<svg width="346" height="347" viewBox="0 0 346 347" fill="none" xmlns="http://www.w3.org/2000/svg">
<path d="M192.076 281.698C196.474 277.819 199.585 272.691 200.993 266.999C202.401 261.307 202.041 255.32 199.959 249.838C197.877 244.356 194.173 239.639 189.342 236.317C184.51 232.994 178.78 231.223 172.916 231.241C167.052 231.259 161.333 233.064 156.522 236.416C151.71 239.768 148.035 244.508 145.987 250.002C143.938 255.497 143.614 261.485 145.057 267.169C146.5 272.853 149.641 277.961 154.062 281.813C145.894 285.785 139.01 291.978 134.2 299.683C129.39 307.388 126.849 316.292 126.867 325.375V335.213C126.867 338.271 128.082 341.205 130.245 343.368C132.408 345.531 135.341 346.746 138.4 346.746H207.6C210.659 346.746 213.593 345.531 215.755 343.368C217.918 341.205 219.133 338.271 219.133 335.213V323.679C219.14 314.82 216.591 306.147 211.792 298.701C206.993 291.254 200.147 285.351 192.076 281.698ZM173 242.946C176.422 242.946 179.767 243.961 182.612 245.862C185.456 247.763 187.674 250.464 188.983 253.626C190.293 256.787 190.635 260.265 189.968 263.621C189.3 266.977 187.653 270.059 185.233 272.479C182.814 274.898 179.731 276.546 176.375 277.214C173.019 277.881 169.541 277.538 166.38 276.229C163.219 274.92 160.517 272.702 158.616 269.857C156.715 267.012 155.7 263.668 155.7 260.246C155.7 255.658 157.523 251.257 160.767 248.013C164.012 244.769 168.412 242.946 173 242.946ZM207.6 335.213H138.4V325.375C138.243 316.172 141.641 307.262 147.887 300.502C154.134 293.741 162.747 289.65 171.933 289.079C172.291 289.079 172.643 289.079 173 289.079C182.177 289.079 190.977 292.725 197.466 299.213C203.955 305.702 207.6 314.503 207.6 323.679V335.213Z" fill="#6AF0FF"/>
<path d="M65.1637 281.721C69.5676 277.847 72.6851 272.721 74.1002 267.029C75.5152 261.337 75.1605 255.348 73.0834 249.862C71.0062 244.377 67.3055 239.655 62.475 236.328C57.6445 233.001 51.9141 231.226 46.0485 231.24C40.1829 231.254 34.4612 233.057 29.6469 236.408C24.8326 239.759 21.1548 244.498 19.1044 249.994C17.0539 255.489 16.7283 261.479 18.171 267.165C19.6137 272.85 22.7561 277.96 27.1787 281.813C19.0136 285.788 12.1334 291.982 7.32655 299.686C2.51969 307.391 -0.019325 316.294 0.000481209 325.375V335.213C0.000481209 338.271 1.21559 341.205 3.37851 343.368C5.54143 345.531 8.47497 346.746 11.5338 346.746H80.7337C83.7925 346.746 86.726 345.531 88.889 343.368C91.0519 341.205 92.267 338.271 92.267 335.213V323.679C92.2828 314.815 89.7318 306.136 84.9222 298.691C80.1127 291.245 73.2502 285.351 65.1637 281.721ZM46.1337 242.946C49.5553 242.946 52.9001 243.961 55.7451 245.862C58.59 247.763 60.8074 250.464 62.1168 253.626C63.4262 256.787 63.7688 260.265 63.1013 263.621C62.4338 266.977 60.7861 270.059 58.3667 272.479C55.9472 274.898 52.8647 276.546 49.5088 277.214C46.1529 277.881 42.6745 277.538 39.5133 276.229C36.3522 274.92 33.6503 272.702 31.7493 269.857C29.8484 267.012 28.8338 263.668 28.8338 260.246C28.8338 255.658 30.6564 251.257 33.9008 248.013C37.1452 244.769 41.5455 242.946 46.1337 242.946ZM80.7337 335.213H11.5338V325.375C11.3765 316.172 14.7739 307.264 21.0189 300.503C27.2638 293.743 35.8754 289.651 45.0611 289.079H46.1337C55.3102 289.079 64.1108 292.725 70.5996 299.213C77.0883 305.702 80.7337 314.503 80.7337 323.679V335.213Z" fill="#6AF0FF"/>
<path d="M318.937 281.704C323.336 277.826 326.448 272.699 327.858 267.006C329.268 261.314 328.909 255.327 326.828 249.845C324.747 244.362 321.044 239.644 316.213 236.32C311.382 232.996 305.652 231.224 299.787 231.241C293.923 231.258 288.203 233.063 283.391 236.414C278.579 239.766 274.904 244.505 272.855 250C270.806 255.495 270.481 261.484 271.923 267.168C273.366 272.852 276.508 277.961 280.929 281.813C272.761 285.785 265.877 291.978 261.067 299.683C256.257 307.388 253.715 316.292 253.733 325.375V335.213C253.733 338.271 254.949 341.205 257.112 343.368C259.274 345.531 262.208 346.746 265.267 346.746H334.467C337.526 346.746 340.459 345.531 342.622 343.368C344.785 341.205 346 338.271 346 335.213V323.679C346.01 314.819 343.462 306.145 338.661 298.699C333.86 291.253 327.011 285.351 318.937 281.704ZM299.867 242.946C303.288 242.946 306.633 243.961 309.478 245.862C312.323 247.763 314.54 250.464 315.85 253.626C317.159 256.787 317.502 260.265 316.834 263.621C316.167 266.977 314.519 270.059 312.1 272.479C309.68 274.898 306.598 276.546 303.242 277.214C299.886 277.881 296.408 277.538 293.246 276.229C290.085 274.92 287.383 272.702 285.482 269.857C283.581 267.012 282.567 263.668 282.567 260.246C282.567 255.658 284.389 251.257 287.634 248.013C290.878 244.769 295.279 242.946 299.867 242.946ZM334.467 335.213H265.267V325.375C265.11 316.171 268.508 307.262 274.754 300.502C281 293.741 289.613 289.649 298.8 289.079C299.157 289.079 299.509 289.079 299.867 289.079C309.043 289.079 317.844 292.725 324.333 299.213C330.821 305.702 334.467 314.503 334.467 323.679V335.213Z" fill="#6AF0FF"/>
<path d="M173 214.113C179.118 214.113 184.985 211.683 189.311 207.357C193.637 203.031 196.067 197.164 196.067 191.046V64.1797H207.237C209.518 64.1794 211.751 63.5233 213.67 62.2896C215.589 61.0558 217.112 59.2964 218.059 57.221C219.006 55.1456 219.336 52.8417 219.01 50.5839C218.684 48.3261 217.716 46.2096 216.221 44.4866L181.829 4.85232C180.713 3.62686 179.355 2.64713 177.84 1.97549C176.325 1.30385 174.687 0.955031 173.029 0.951234C171.372 0.947437 169.732 1.28875 168.214 1.95343C166.696 2.61812 165.333 3.59162 164.212 4.81195L129.693 44.5731C128.202 46.2873 127.236 48.3942 126.911 50.6423C126.585 52.8904 126.912 55.1847 127.855 57.2517C128.797 59.3186 130.314 61.0708 132.225 62.2992C134.136 63.5277 136.359 64.1804 138.631 64.1797H149.934V191.046C149.934 197.164 152.364 203.031 156.69 207.357C161.015 211.683 166.883 214.113 173 214.113ZM138.4 52.1447L173.087 12.3547L207.566 52.4157C207.55 52.4887 207.508 52.5531 207.447 52.5959C207.386 52.6387 207.311 52.6567 207.237 52.6464H193.184C190.889 52.6464 188.689 53.5577 187.067 55.1799C185.445 56.8021 184.534 59.0022 184.534 61.2964V191.046C184.534 194.105 183.318 197.039 181.156 199.201C178.993 201.364 176.059 202.579 173 202.579C169.941 202.579 167.008 201.364 164.845 199.201C162.682 197.039 161.467 194.105 161.467 191.046V61.2964C161.467 59.0022 160.556 56.8021 158.933 55.1799C157.311 53.5577 155.111 52.6464 152.817 52.6464L138.4 52.1447Z" fill="#6AF0FF"/>
<path d="M46.2203 214.113C52.3379 214.113 58.205 211.683 62.5308 207.357C66.8567 203.031 69.2869 197.164 69.2869 191.046V116.08H80.4569C82.7381 116.079 84.9711 115.423 86.8899 114.189C88.8086 112.956 90.3322 111.196 91.279 109.121C92.2259 107.045 92.5561 104.742 92.2302 102.484C91.9044 100.226 90.9363 98.1095 89.4414 96.3864L55.049 56.7465C53.9619 55.4646 52.6095 54.4342 51.0852 53.7263C49.5608 53.0184 47.901 52.6499 46.2203 52.6464C44.5486 52.6484 42.8972 53.0129 41.38 53.7148C39.8627 54.4166 38.5158 55.4392 37.4319 56.7119L2.91267 96.473C1.41973 98.1864 0.451792 100.294 0.124547 102.543C-0.202699 104.791 0.124595 107.087 1.06731 109.155C2.01002 111.223 3.52827 112.976 5.44058 114.203C7.35289 115.431 9.57836 116.083 11.851 116.08H23.1536V191.046C23.1536 197.164 25.5839 203.031 29.9097 207.357C34.2355 211.683 40.1026 214.113 46.2203 214.113ZM11.6203 104.045L46.3068 64.2546L80.7856 104.321C80.7644 104.389 80.7197 104.448 80.6595 104.486C80.5992 104.524 80.5274 104.539 80.4569 104.529H66.4036C64.1094 104.529 61.9093 105.44 60.2871 107.062C58.6649 108.685 57.7536 110.885 57.7536 113.179V191.046C57.7536 194.105 56.5385 197.038 54.3755 199.201C52.2126 201.364 49.2791 202.579 46.2203 202.579C43.1614 202.579 40.2279 201.364 38.065 199.201C35.9021 197.038 34.6869 194.105 34.6869 191.046V113.196C34.6869 110.902 33.7756 108.702 32.1534 107.08C30.5312 105.458 28.3311 104.546 26.037 104.546L11.6203 104.045Z" fill="#6AF0FF"/>
<path d="M299.867 214.113C305.984 214.113 311.851 211.683 316.177 207.357C320.503 203.031 322.933 197.164 322.933 191.046V81.4797H334.103C336.385 81.4807 338.619 80.8253 340.538 79.5915C342.458 78.3578 343.982 76.5978 344.928 74.5217C345.875 72.4455 346.204 70.1409 345.877 67.8828C345.549 65.6246 344.579 63.5084 343.082 61.7865L308.678 22.1465C307.562 20.9206 306.204 19.9406 304.688 19.269C303.173 18.5974 301.535 18.2488 299.877 18.2455C298.22 18.2423 296.58 18.5844 295.062 19.2501C293.544 19.9158 292.181 20.8904 291.061 22.1119L256.542 61.9018C255.057 63.6164 254.097 65.7214 253.775 67.9662C253.453 70.2109 253.783 72.5009 254.725 74.5636C255.668 76.6263 257.183 78.3748 259.09 79.6009C260.998 80.827 263.218 81.4791 265.486 81.4797H276.8V191.046C276.8 197.164 279.23 203.031 283.556 207.357C287.882 211.683 293.749 214.113 299.867 214.113ZM265.267 69.4446L299.959 29.6547L334.438 69.7157C334.419 69.7854 334.375 69.8457 334.314 69.8851C334.253 69.9244 334.18 69.9401 334.109 69.929H320.05C318.912 69.929 317.786 70.1533 316.736 70.5891C315.685 71.0249 314.731 71.6636 313.927 72.4687C313.124 73.2737 312.487 74.2293 312.053 75.2808C311.62 76.3323 311.398 77.4589 311.4 78.5963V191.046C311.4 194.105 310.185 197.039 308.022 199.201C305.859 201.364 302.925 202.579 299.867 202.579C296.808 202.579 293.874 201.364 291.711 199.201C289.548 197.039 288.333 194.105 288.333 191.046V78.5963C288.333 76.3022 287.422 74.102 285.8 72.4799C284.178 70.8577 281.977 69.9463 279.683 69.9463L265.267 69.4446Z" fill="#6AF0FF"/>
</svg>
