<svg width="402" height="316" viewBox="0 0 402 316" fill="none" xmlns="http://www.w3.org/2000/svg">
<path d="M81.6562 208.25C69.9991 208.237 58.8232 203.6 50.5803 195.357C42.3375 187.114 37.7008 175.938 37.6875 164.281V151.719C37.6875 140.058 42.3199 128.874 50.5657 120.628C58.8114 112.382 69.995 107.75 81.6562 107.75C93.3175 107.75 104.501 112.382 112.747 120.628C120.993 128.874 125.625 140.058 125.625 151.719V164.281C125.612 175.938 120.975 187.114 112.732 195.357C104.489 203.6 93.3134 208.237 81.6562 208.25ZM81.6562 120.312C73.3299 120.322 65.3473 123.635 59.4597 129.522C53.572 135.41 50.26 143.392 50.25 151.719V164.281C50.25 172.611 53.5589 180.599 59.4487 186.489C65.3385 192.379 73.3268 195.688 81.6562 195.688C89.9857 195.688 97.974 192.379 103.864 186.489C109.754 180.599 113.062 172.611 113.062 164.281V151.719C113.053 143.392 109.74 135.41 103.853 129.522C97.9652 123.635 89.9826 120.322 81.6562 120.312Z" fill="#ADB1FF"/>
<path d="M6.28116 283.625C4.61527 283.625 3.01761 282.963 1.83965 281.785C0.661683 280.607 -8.95408e-05 279.01 -8.95408e-05 277.344V250.824C-0.035467 243.824 2.28419 237.015 6.58596 231.492C10.8877 225.969 16.9217 222.052 23.7179 220.373C42.7335 216.152 62.1808 214.192 81.6562 214.531C101.134 214.192 120.583 216.153 139.601 220.373C142.402 221.057 145.094 222.131 147.597 223.564C149.042 224.397 150.097 225.77 150.53 227.38C150.963 228.991 150.738 230.708 149.905 232.153C149.072 233.598 147.699 234.654 146.088 235.086C144.477 235.519 142.761 235.295 141.315 234.462C139.833 233.615 138.239 232.98 136.579 232.577C118.55 228.6 100.116 226.76 81.6562 227.094C63.191 226.757 44.7502 228.593 26.7141 232.565C22.6492 233.58 19.0438 235.933 16.4772 239.245C13.9106 242.556 12.5318 246.635 12.5624 250.824V277.344C12.5624 279.01 11.9006 280.607 10.7227 281.785C9.54471 282.963 7.94705 283.625 6.28116 283.625Z" fill="#ADB1FF"/>
<path d="M201 239.656C189.343 239.643 178.167 235.006 169.924 226.763C161.681 218.521 157.045 207.345 157.031 195.688V183.125C157.031 171.464 161.664 160.28 169.909 152.034C178.155 143.789 189.339 139.156 201 139.156C212.661 139.156 223.845 143.789 232.091 152.034C240.336 160.28 244.969 171.464 244.969 183.125V195.688C244.955 207.345 240.319 218.521 232.076 226.763C223.833 235.006 212.657 239.643 201 239.656ZM201 151.719C192.674 151.729 184.691 155.041 178.803 160.928C172.916 166.816 169.604 174.799 169.594 183.125V195.688C169.594 204.017 172.903 212.005 178.792 217.895C184.682 223.785 192.671 227.094 201 227.094C209.329 227.094 217.318 223.785 223.208 217.895C229.097 212.005 232.406 204.017 232.406 195.688V183.125C232.396 174.799 229.084 166.816 223.197 160.928C217.309 155.041 209.326 151.729 201 151.719Z" fill="#ADB1FF"/>
<path d="M276.375 315.031C274.709 315.031 273.111 314.37 271.933 313.192C270.755 312.014 270.094 310.416 270.094 308.75V282.231C270.125 278.042 268.747 273.964 266.181 270.653C263.616 267.341 260.012 264.988 255.948 263.971C237.91 260 219.467 258.164 201 258.5C182.535 258.163 164.094 259.999 146.058 263.971C141.993 264.987 138.388 267.339 135.821 270.651C133.254 273.963 131.876 278.041 131.906 282.231V308.75C131.906 310.416 131.244 312.014 130.066 313.192C128.888 314.37 127.291 315.031 125.625 315.031C123.959 315.031 122.361 314.37 121.183 313.192C120.005 312.014 119.344 310.416 119.344 308.75V282.231C119.308 275.23 121.628 268.421 125.93 262.898C130.231 257.375 136.265 253.459 143.062 251.779C162.077 247.559 181.525 245.598 201 245.938C220.477 245.598 239.927 247.559 258.944 251.779C265.739 253.46 271.772 257.377 276.073 262.899C280.373 268.422 282.692 275.231 282.656 282.231V308.75C282.656 310.416 281.994 312.014 280.816 313.192C279.638 314.37 278.041 315.031 276.375 315.031Z" fill="#ADB1FF"/>
<path d="M320.344 208.25C308.687 208.237 297.511 203.6 289.268 195.357C281.025 187.114 276.388 175.938 276.375 164.281V151.719C276.375 140.058 281.007 128.874 289.253 120.628C297.499 112.382 308.683 107.75 320.344 107.75C332.005 107.75 343.189 112.382 351.434 120.628C359.68 128.874 364.312 140.058 364.312 151.719V164.281C364.299 175.938 359.663 187.114 351.42 195.357C343.177 203.6 332.001 208.237 320.344 208.25ZM320.344 120.312C312.017 120.322 304.035 123.635 298.147 129.522C292.26 135.41 288.947 143.392 288.938 151.719V164.281C288.938 172.611 292.246 180.599 298.136 186.489C304.026 192.379 312.014 195.688 320.344 195.688C328.673 195.688 336.662 192.379 342.551 186.489C348.441 180.599 351.75 172.611 351.75 164.281V151.719C351.74 143.392 348.428 135.41 342.54 129.522C336.653 123.635 328.67 120.322 320.344 120.312Z" fill="#ADB1FF"/>
<path d="M395.719 283.625C394.053 283.625 392.455 282.963 391.277 281.785C390.099 280.607 389.438 279.01 389.438 277.344V250.824C389.469 246.635 388.091 242.558 385.525 239.246C382.96 235.935 379.356 233.582 375.292 232.565C357.254 228.593 338.811 226.757 320.344 227.094C301.879 226.757 283.438 228.593 265.402 232.565C263.741 232.97 262.145 233.604 260.659 234.449C259.944 234.862 259.154 235.129 258.335 235.236C257.516 235.343 256.684 235.288 255.887 235.074C255.089 234.86 254.341 234.49 253.686 233.987C253.032 233.484 252.482 232.856 252.07 232.141C251.657 231.425 251.39 230.635 251.283 229.816C251.175 228.997 251.231 228.165 251.445 227.368C251.659 226.57 252.029 225.823 252.532 225.168C253.035 224.513 253.663 223.964 254.378 223.551C256.884 222.118 259.577 221.042 262.38 220.354C281.406 216.141 300.861 214.187 320.344 214.531C339.821 214.192 359.271 216.153 378.288 220.373C385.083 222.054 391.116 225.97 395.417 231.493C399.717 237.016 402.036 243.825 402 250.824V277.344C402 279.01 401.338 280.607 400.16 281.785C398.982 282.963 397.385 283.625 395.719 283.625Z" fill="#ADB1FF"/>
<path d="M113.063 101.469C111.821 101.468 110.606 101.1 109.574 100.41C108.541 99.7195 107.736 98.7386 107.261 97.591C106.785 96.4435 106.661 95.1807 106.903 93.9624C107.146 92.7442 107.744 91.6251 108.622 90.7466L158.872 40.4967C160.05 39.3191 161.647 38.6576 163.313 38.6576C164.978 38.6576 166.576 39.3191 167.753 40.4967L207.281 80.0246L265.653 21.6529C266.838 20.5087 268.424 19.8756 270.071 19.8899C271.718 19.9042 273.294 20.5648 274.458 21.7294C275.623 22.894 276.283 24.4694 276.298 26.1163C276.312 27.7633 275.679 29.3499 274.535 30.5346L211.722 93.3471C210.544 94.5246 208.947 95.1862 207.281 95.1862C205.616 95.1862 204.018 94.5246 202.841 93.3471L163.313 53.8192L117.503 99.6283C116.326 100.806 114.728 101.468 113.063 101.469Z" fill="#ADB1FF"/>
<path d="M288.938 44.9375C287.272 44.9375 285.674 44.2757 284.496 43.0978C283.318 41.9198 282.656 40.3221 282.656 38.6562V13.5312H257.531C255.865 13.5312 254.268 12.8695 253.09 11.6915C251.912 10.5136 251.25 8.91589 251.25 7.25C251.25 5.58411 251.912 3.98645 253.09 2.80849C254.268 1.63052 255.865 0.96875 257.531 0.96875H288.938C290.603 0.96875 292.201 1.63052 293.379 2.80849C294.557 3.98645 295.219 5.58411 295.219 7.25V38.6562C295.219 40.3221 294.557 41.9198 293.379 43.0978C292.201 44.2757 290.603 44.9375 288.938 44.9375Z" fill="#ADB1FF"/>
</svg>
