<svg width="338" height="338" viewBox="0 0 338 338" fill="none" xmlns="http://www.w3.org/2000/svg">
<path d="M296.65 191.468C295.907 190.229 294.855 189.204 293.598 188.492C292.341 187.78 290.921 187.406 289.476 187.406H236.963L283.355 106.22C284.076 104.955 284.455 103.525 284.455 102.069C284.455 100.614 284.076 99.1832 283.355 97.9189L229.81 4.2159C229.079 2.93502 228.021 1.8704 226.745 1.13C225.47 0.389607 224.021 -0.000238938 222.545 1.1616e-07H115.456C113.981 -0.000245679 112.532 0.38959 111.256 1.12997C109.98 1.87036 108.923 2.93496 108.191 4.21583L54.6467 97.9188C53.9255 99.1832 53.5462 100.614 53.5462 102.069C53.5462 103.525 53.9255 104.955 54.6467 106.22L101.039 187.406H48.5256C47.0809 187.406 45.6608 187.78 44.4036 188.492C43.1465 189.204 42.0952 190.229 41.3521 191.468L1.19367 258.399C0.412628 259.699 0 261.187 0 262.703C0 264.219 0.412628 265.707 1.19367 267.007L41.3521 333.938C42.0952 335.177 43.1465 336.202 44.4036 336.914C45.6608 337.626 47.0809 338 48.5256 338H128.842C130.287 338 131.707 337.626 132.964 336.914C134.221 336.202 135.273 335.177 136.016 333.938L169.001 278.963L201.986 333.938C202.729 335.177 203.78 336.202 205.037 336.914C206.294 337.626 207.715 338 209.159 338H289.476C290.921 338 292.341 337.626 293.598 336.914C294.855 336.202 295.907 335.177 296.65 333.938L336.808 267.007C337.589 265.707 338.002 264.219 338.002 262.703C338.002 261.187 337.589 259.699 336.808 258.399L296.65 191.468ZM115.456 204.139H124.107L159.246 262.703L124.107 321.267H53.2608L18.1224 262.703L53.2611 204.139H115.456ZM143.618 204.139H194.383L169.001 246.443L143.618 204.139ZM213.895 204.139H284.741L319.879 262.703L284.741 321.267H213.895L178.756 262.703L213.895 204.139ZM71.5461 102.069L120.313 16.7327H217.689L266.456 102.069L217.689 187.406H120.313L71.5461 102.069Z" fill="#67FFC2"/>
</svg>
