<svg width="225" height="188" viewBox="0 0 225 188" fill="none" xmlns="http://www.w3.org/2000/svg">
<path d="M224.973 140.388C224.973 127.224 221.031 114.512 213.571 103.628C208.206 95.799 201.297 89.2977 193.291 84.4664C202.717 75.5396 208.615 62.9224 208.615 48.9456C208.615 21.9572 186.658 0 159.67 0C143.667 0 128.676 7.91459 119.571 20.9069C117.257 20.5699 114.893 20.3881 112.486 20.3881C110.08 20.3881 107.717 20.5705 105.403 20.9069C96.2967 7.91459 81.3058 0 65.3033 0C38.3149 0 16.3577 21.9572 16.3577 48.9456C16.3577 62.9224 22.2556 75.5396 31.6825 84.4664C23.6755 89.2971 16.7666 95.799 11.402 103.627C3.9428 114.512 0 127.224 0 140.388V167.613H47.1838V188H177.79V167.613H224.973V140.388H224.973ZM159.67 12.0803C179.998 12.0803 196.535 28.6179 196.535 48.9462C196.535 69.2744 179.998 85.8121 159.67 85.8121C159.306 85.8121 158.942 85.8067 158.577 85.7958C158.605 85.7185 158.628 85.6394 158.655 85.5621C159.284 83.7779 159.809 81.9454 160.23 80.0737C160.26 79.9408 160.293 79.8091 160.322 79.6756C160.431 79.1707 160.527 78.6609 160.621 78.15C160.665 77.9084 160.71 77.6674 160.751 77.4252C160.827 76.9692 160.896 76.5114 160.959 76.0517C161.003 75.7322 161.043 75.4127 161.081 75.0926C161.129 74.6867 161.175 74.2803 161.213 73.8714C161.252 73.454 161.281 73.0361 161.309 72.6175C161.331 72.2877 161.358 71.9591 161.373 71.6276C161.406 70.9167 161.425 70.2046 161.427 69.4919C161.427 69.4393 161.431 69.388 161.431 69.3348C161.431 69.3065 161.429 69.2781 161.429 69.2497C161.428 68.5219 161.407 67.7983 161.374 67.0772C161.364 66.8676 161.352 66.6586 161.34 66.4496C161.304 65.8366 161.257 65.2266 161.2 64.6195C161.187 64.4818 161.176 64.3441 161.162 64.207C159.337 46.5653 148.191 31.4651 132.113 24.4806C139.042 16.6971 149.063 12.0803 159.67 12.0803ZM99.7309 34.7429C99.8487 34.7 99.9677 34.6596 100.085 34.6173C100.452 34.4862 100.822 34.3618 101.193 34.2416C101.475 34.1516 101.758 34.0646 102.043 33.9813C102.25 33.9203 102.458 33.8617 102.666 33.8037C103.038 33.7017 103.412 33.602 103.79 33.5108C106.58 32.8331 109.49 32.4653 112.485 32.4653C115.483 32.4677 118.394 32.8361 121.185 33.5138C121.56 33.6044 121.932 33.7035 122.302 33.8049C122.513 33.8635 122.725 33.9227 122.934 33.9849C123.216 34.0677 123.496 34.1534 123.774 34.2422C124.151 34.3636 124.524 34.4892 124.895 34.6221C125.009 34.6626 125.124 34.7012 125.237 34.7429C137.566 39.3024 146.81 50.2749 148.902 63.591C148.919 63.6973 148.934 63.8042 148.95 63.9111C149.017 64.3622 149.073 64.8171 149.123 65.2731C149.142 65.441 149.161 65.6083 149.177 65.7768C149.217 66.1929 149.247 66.6121 149.273 67.0325C149.284 67.2124 149.299 67.3918 149.308 67.5724C149.333 68.1094 149.347 68.6493 149.349 69.1923C149.349 69.2394 149.352 69.2853 149.352 69.3324C149.352 69.3542 149.351 69.3765 149.351 69.3983C149.349 69.9237 149.334 70.4456 149.311 70.9656C149.303 71.1293 149.296 71.293 149.287 71.456C149.258 71.9585 149.221 72.4586 149.172 72.9551C149.154 73.1472 149.128 73.3387 149.107 73.5301C149.07 73.8514 149.029 74.1721 148.984 74.491C148.949 74.7393 148.914 74.9881 148.874 75.2352C148.813 75.6114 148.745 75.9853 148.673 76.358C148.608 76.6895 148.538 77.0199 148.464 77.3497C148.42 77.5484 148.374 77.7471 148.326 77.9446C148.208 78.4345 148.079 78.9213 147.941 79.4063C147.886 79.5989 147.835 79.7928 147.777 79.9837C147.693 80.2615 147.603 80.5369 147.513 80.8123C147.44 81.0328 147.366 81.252 147.289 81.4707C147.202 81.7189 147.116 81.9678 147.025 82.2142C146.868 82.6327 146.704 83.0477 146.533 83.459C146.457 83.6426 146.376 83.8244 146.297 84.0074C146.148 84.3499 145.994 84.6905 145.835 85.0275C145.816 85.0674 145.797 85.1073 145.779 85.1471C145.721 85.2667 145.664 85.3869 145.606 85.5065C145.427 85.8713 145.241 86.2319 145.05 86.5894C144.976 86.7283 144.904 86.8691 144.828 87.0074C144.823 87.0164 144.818 87.0249 144.813 87.0334C144.604 87.4139 144.386 87.7883 144.165 88.1604C144.077 88.3078 143.99 88.4557 143.9 88.6013C143.658 88.9933 143.41 89.381 143.154 89.7628C142.995 90.0001 142.829 90.2327 142.665 90.4664C142.526 90.6645 142.387 90.8632 142.243 91.0583C142.058 91.3108 141.869 91.5602 141.677 91.8085C141.546 91.977 141.415 92.1443 141.282 92.311C141.079 92.5646 140.874 92.8171 140.665 93.0653C140.535 93.2194 140.402 93.3703 140.27 93.5219C140.052 93.7714 139.835 94.0214 139.612 94.2648C139.479 94.4092 139.341 94.5481 139.206 94.6907C138.842 95.0742 138.47 95.4493 138.091 95.8171C137.866 96.0351 137.642 96.2538 137.411 96.4658C137.252 96.6125 137.088 96.7551 136.925 96.8994C136.661 97.1344 136.394 97.3669 136.123 97.594C135.986 97.7094 135.847 97.8235 135.707 97.9371C135.379 98.204 135.047 98.4656 134.709 98.7216C134.618 98.7911 134.527 98.8618 134.435 98.9306C128.298 103.493 120.702 106.197 112.486 106.197C104.269 106.197 96.6717 103.492 90.5353 98.9288C90.4447 98.8612 90.3559 98.7917 90.2659 98.7235C89.927 98.4668 89.593 98.2034 89.2639 97.9353C89.1256 97.8223 88.9872 97.7094 88.8507 97.5946C88.5784 97.3663 88.3114 97.1326 88.0456 96.897C87.8844 96.7533 87.7213 96.6119 87.5625 96.4658C87.3311 96.2532 87.1064 96.0339 86.8805 95.8159C86.4994 95.4468 86.1268 95.0706 85.762 94.6858C85.6285 94.5451 85.492 94.408 85.3609 94.2655C85.1369 94.0214 84.92 93.7708 84.7026 93.5213C84.5703 93.3698 84.4374 93.2194 84.3076 93.0653C84.098 92.8171 83.8939 92.5646 83.6909 92.3116C83.558 92.1449 83.4258 91.9776 83.2953 91.8085C83.1038 91.5608 82.9148 91.3114 82.7294 91.0589C82.5862 90.8632 82.4467 90.6639 82.3072 90.4652C82.1429 90.2321 81.9774 90.0001 81.8192 89.7634C81.5625 89.3798 81.313 88.9909 81.0708 88.5977C80.9821 88.4533 80.8963 88.3078 80.8093 88.1622C80.584 87.7847 80.3636 87.4054 80.1516 87.0195C80.0737 86.8775 80 86.7332 79.9233 86.5906C79.7324 86.2319 79.5458 85.8701 79.3664 85.5047C79.3024 85.3748 79.2402 85.2438 79.178 85.1133C79.1683 85.0934 79.1592 85.0734 79.1502 85.0535C78.9829 84.7008 78.8228 84.3444 78.6664 83.9851C78.5921 83.8141 78.5166 83.6438 78.4453 83.4723C78.2702 83.0519 78.1029 82.6279 77.9428 82.2003C77.8564 81.9696 77.7767 81.7364 77.6952 81.5039C77.6112 81.2653 77.5303 81.0249 77.4512 80.7839C77.366 80.523 77.2802 80.2621 77.2005 80C77.0815 79.608 76.9692 79.2136 76.8635 78.8168C76.7892 78.5383 76.7222 78.2575 76.6539 77.9772C76.6008 77.7568 76.5494 77.5363 76.5005 77.3147C76.4401 77.0429 76.3791 76.7717 76.3247 76.4987C76.2408 76.0735 76.1641 75.6459 76.0952 75.2158C76.0578 74.9839 76.0252 74.7514 75.9919 74.5194C75.943 74.1758 75.8989 73.8303 75.8597 73.4836C75.8403 73.3127 75.818 73.1417 75.8005 72.9708C75.7504 72.4617 75.7123 71.9489 75.6833 71.4343C75.6749 71.2863 75.6682 71.1383 75.6616 70.9904C75.6368 70.4401 75.6193 69.8881 75.6193 69.3324C75.6193 68.7369 75.6362 68.1456 75.6646 67.5567C75.6724 67.3967 75.6857 67.2378 75.6948 67.0784C75.7214 66.6362 75.7534 66.1953 75.7956 65.7568C75.8101 65.604 75.8277 65.4518 75.844 65.2996C75.8959 64.8249 75.9545 64.3526 76.0246 63.8833C76.0378 63.7921 76.0511 63.7003 76.0656 63.6091C78.1512 50.2852 87.397 39.3054 99.7309 34.7429ZM28.4373 48.9462C28.4373 28.6185 44.975 12.0803 65.3033 12.0803C75.911 12.0803 85.9317 16.6977 92.86 24.4794C76.7765 31.4663 65.6288 46.5737 63.809 64.2227C63.7963 64.3423 63.7873 64.4625 63.7758 64.5827C63.7154 65.2114 63.6677 65.8426 63.6314 66.4774C63.6206 66.6707 63.6085 66.8633 63.5994 67.0572C63.565 67.8128 63.5414 68.5708 63.5414 69.3342C63.5414 70.1049 63.5638 70.8738 63.6 71.6421C63.6145 71.9513 63.6399 72.2575 63.6598 72.5649C63.6894 73.0071 63.7196 73.4492 63.7607 73.8901C63.7969 74.2821 63.8416 74.6716 63.8875 75.0612C63.9274 75.4006 63.9697 75.7389 64.0168 76.0771C64.0784 76.521 64.1448 76.9632 64.2179 77.4035C64.262 77.665 64.3103 77.9259 64.358 78.1868C64.4486 78.6797 64.541 79.1713 64.6461 79.6587C64.6812 79.8194 64.721 79.9788 64.7573 80.1389C65.1674 81.9527 65.6765 83.7284 66.2829 85.46C66.3216 85.5717 66.3554 85.6847 66.3947 85.7958C66.0305 85.8067 65.6656 85.8121 65.3021 85.8121C44.975 85.8115 28.4373 69.2738 28.4373 48.9462ZM57.3107 125.955C57.1779 126.164 57.051 126.377 56.9206 126.588C56.6446 127.034 56.3709 127.481 56.1064 127.932C55.9584 128.184 55.8159 128.438 55.6721 128.691C55.4342 129.11 55.1992 129.53 54.9709 129.953C54.8272 130.219 54.6858 130.487 54.5457 130.754C54.3259 131.175 54.1114 131.599 53.9013 132.023C53.769 132.29 53.6373 132.557 53.5093 132.825C53.2955 133.272 53.0895 133.724 52.886 134.175C52.7754 134.421 52.6619 134.665 52.555 134.912C52.3194 135.453 52.0948 135.999 51.8743 136.546C51.8097 136.706 51.7408 136.864 51.678 137.024C51.3984 137.735 51.1308 138.451 50.8771 139.17C50.8191 139.335 50.7672 139.502 50.7098 139.667C50.519 140.221 50.3329 140.778 50.1572 141.336C50.0768 141.593 50.0026 141.851 49.9252 142.108C49.7833 142.582 49.6438 143.056 49.5127 143.533C49.4348 143.817 49.3605 144.101 49.2862 144.386C49.1666 144.844 49.0519 145.303 48.9432 145.764C48.8737 146.056 48.8061 146.348 48.7414 146.64C48.6375 147.107 48.5403 147.575 48.4467 148.045C48.3905 148.327 48.3325 148.609 48.28 148.892C48.1852 149.403 48.1 149.916 48.0173 150.43C47.9786 150.672 47.9357 150.912 47.8995 151.154C47.7871 151.909 47.6851 152.666 47.5993 153.426C47.5981 153.435 47.5975 153.444 47.5969 153.453C47.519 154.145 47.4519 154.838 47.3958 155.533H12.0797V140.388C12.0797 119.697 23.9745 101.121 42.6098 92.2922C49.3986 95.8606 57.1157 97.8918 65.3027 97.8918C67.6703 97.8918 70.0451 97.7166 72.4019 97.3699C72.7691 97.8936 73.1424 98.4118 73.5289 98.9204C73.6594 99.0913 73.7947 99.258 73.9275 99.4271C74.3093 99.9151 74.6964 100.398 75.0962 100.871C75.2599 101.064 75.4278 101.254 75.5945 101.446C75.969 101.876 76.3495 102.3 76.7385 102.716C76.9426 102.936 77.1504 103.151 77.3582 103.367C77.7139 103.733 78.0745 104.095 78.4411 104.45C78.5788 104.584 78.7087 104.725 78.8476 104.858C78.3227 105.175 77.8027 105.5 77.2875 105.831C77.2035 105.885 77.1214 105.942 77.038 105.996C76.5228 106.331 76.0131 106.672 75.5082 107.021C75.3336 107.142 75.1597 107.264 74.9857 107.386C74.5357 107.703 74.0906 108.025 73.6491 108.353C73.5096 108.457 73.3682 108.559 73.2299 108.664C72.6682 109.088 72.1132 109.521 71.5654 109.963C71.4458 110.06 71.3286 110.159 71.209 110.257C70.7729 110.614 70.3411 110.977 69.9147 111.345C69.7492 111.488 69.5849 111.632 69.4206 111.776C68.9936 112.152 68.572 112.534 68.1547 112.921C68.0459 113.022 67.9348 113.121 67.8267 113.223C67.3145 113.705 66.8102 114.196 66.3131 114.696C66.1839 114.826 66.0576 114.958 65.9296 115.088C65.5491 115.477 65.1728 115.869 64.8013 116.267C64.654 116.426 64.5066 116.584 64.3604 116.744C63.9425 117.201 63.5306 117.663 63.1253 118.132C63.0619 118.206 62.996 118.277 62.9326 118.352C62.4706 118.891 62.0188 119.441 61.5731 119.996C61.4486 120.15 61.3272 120.307 61.2046 120.464C60.8694 120.89 60.539 121.32 60.2141 121.754C60.0885 121.922 59.9622 122.089 59.8384 122.258C59.4132 122.837 58.9934 123.422 58.5858 124.017C58.1479 124.656 57.7239 125.303 57.3107 125.955ZM59.2634 175.921V167.613V160.776C59.2634 160.106 59.2761 159.438 59.3009 158.771C59.3087 158.552 59.3262 158.335 59.3371 158.116C59.3589 157.672 59.3794 157.226 59.412 156.784C59.4319 156.515 59.4621 156.249 59.4863 155.98C59.5213 155.59 59.5527 155.199 59.5962 154.812C59.6282 154.528 59.6699 154.246 59.7061 153.963C59.7533 153.593 59.7973 153.224 59.8517 152.857C59.8958 152.564 59.9489 152.274 59.9973 151.983C60.0565 151.629 60.1114 151.274 60.1779 150.922C60.234 150.624 60.2993 150.33 60.3603 150.033C60.4303 149.691 60.4974 149.348 60.5741 149.009C60.6417 148.709 60.719 148.413 60.7915 148.114C60.873 147.782 60.951 147.448 61.0385 147.118C61.1183 146.817 61.2064 146.52 61.291 146.222C61.3828 145.898 61.4722 145.573 61.57 145.251C61.6612 144.952 61.7615 144.655 61.8575 144.357C61.9602 144.041 62.0599 143.724 62.168 143.411C62.2707 143.114 62.3812 142.82 62.4887 142.526C62.6022 142.216 62.7134 141.904 62.8324 141.596C62.9459 141.303 63.0667 141.014 63.1845 140.723C63.3083 140.419 63.4303 140.113 63.5596 139.812C63.6846 139.521 63.8163 139.234 63.9461 138.946C64.0796 138.65 64.2119 138.352 64.3508 138.058C64.4867 137.772 64.6292 137.488 64.7699 137.204C64.9137 136.914 65.0556 136.623 65.2042 136.337C65.351 136.054 65.5038 135.775 65.6554 135.495C65.8088 135.212 65.9604 134.929 66.1186 134.648C66.2757 134.371 66.4387 134.097 66.6 133.822C66.7631 133.545 66.925 133.268 67.0935 132.994C67.2608 132.722 67.4335 132.453 67.6056 132.184C67.7784 131.914 67.9499 131.644 68.1275 131.377C68.3051 131.11 68.4875 130.847 68.6699 130.584C68.8517 130.321 69.0329 130.058 69.2189 129.798C69.4061 129.537 69.5988 129.28 69.7915 129.022C69.9823 128.767 70.1726 128.511 70.3677 128.259C70.5646 128.005 70.7663 127.755 70.968 127.503C71.1679 127.254 71.3685 127.006 71.5726 126.761C71.7786 126.515 71.9887 126.271 72.1989 126.028C72.4085 125.786 72.6187 125.544 72.8331 125.305C73.0475 125.066 73.2668 124.83 73.4854 124.594C73.7041 124.36 73.9227 124.126 74.1456 123.895C74.369 123.663 74.5967 123.435 74.8251 123.207C75.0528 122.979 75.2817 122.753 75.5136 122.529C75.7449 122.306 75.9799 122.086 76.216 121.867C76.4528 121.647 76.6908 121.428 76.9317 121.212C77.1721 120.997 77.4149 120.785 77.6595 120.574C77.9048 120.362 78.1518 120.151 78.4012 119.943C78.6495 119.737 78.9001 119.533 79.1526 119.331C79.4069 119.127 79.663 118.924 79.9215 118.724C80.1769 118.527 80.4348 118.333 80.694 118.14C80.9573 117.943 81.2224 117.75 81.4906 117.558C81.7527 117.37 82.0173 117.185 82.2836 117.002C82.5566 116.814 82.8308 116.629 83.1075 116.446C83.3762 116.268 83.6474 116.092 83.9198 115.919C84.2019 115.739 84.4858 115.563 84.7714 115.389C85.0469 115.221 85.3241 115.055 85.6031 114.891C85.893 114.722 86.1854 114.554 86.4795 114.39C86.7616 114.231 87.0454 114.075 87.3311 113.921C87.6301 113.761 87.9315 113.603 88.2347 113.447C88.5222 113.299 88.8109 113.154 89.102 113.011C89.3309 112.898 89.5622 112.79 89.7936 112.68C96.5817 116.249 104.3 118.279 112.486 118.279C120.673 118.279 128.391 116.249 135.179 112.68C135.409 112.789 135.638 112.897 135.865 113.008C136.16 113.153 136.452 113.301 136.743 113.45C137.043 113.604 137.341 113.76 137.637 113.918C137.926 114.074 138.212 114.232 138.498 114.392C138.788 114.555 139.077 114.72 139.363 114.888C139.646 115.053 139.927 115.222 140.206 115.392C140.488 115.564 140.768 115.738 141.046 115.915C141.322 116.091 141.597 116.269 141.869 116.449C142.143 116.63 142.414 116.813 142.683 116.999C142.952 117.184 143.219 117.371 143.485 117.56C143.75 117.75 144.012 117.942 144.273 118.137C144.535 118.331 144.795 118.527 145.053 118.727C145.309 118.925 145.563 119.125 145.815 119.328C146.069 119.531 146.322 119.736 146.572 119.944C146.82 120.15 147.065 120.36 147.309 120.571C147.555 120.783 147.799 120.996 148.041 121.213C148.28 121.427 148.516 121.645 148.751 121.863C148.989 122.084 149.227 122.306 149.46 122.531C149.691 122.753 149.917 122.978 150.142 123.203C150.372 123.432 150.601 123.663 150.827 123.896C151.048 124.125 151.266 124.357 151.483 124.59C151.704 124.828 151.924 125.066 152.14 125.307C152.353 125.543 152.561 125.783 152.769 126.023C152.981 126.268 153.193 126.513 153.4 126.762C153.604 127.006 153.802 127.253 154.001 127.5C154.204 127.752 154.407 128.004 154.605 128.26C154.8 128.511 154.989 128.765 155.178 129.019C155.372 129.278 155.565 129.537 155.753 129.799C155.939 130.057 156.119 130.319 156.3 130.581C156.483 130.845 156.667 131.11 156.845 131.378C157.021 131.643 157.191 131.911 157.363 132.179C157.536 132.45 157.71 132.721 157.879 132.995C158.045 133.266 158.206 133.542 158.368 133.816C158.531 134.093 158.695 134.369 158.853 134.648C159.011 134.927 159.162 135.21 159.314 135.492C159.467 135.772 159.62 136.053 159.767 136.336C159.915 136.622 160.057 136.913 160.2 137.202C160.341 137.486 160.484 137.77 160.62 138.058C160.759 138.351 160.891 138.648 161.024 138.944C161.154 139.233 161.286 139.521 161.411 139.812C161.54 140.111 161.66 140.414 161.784 140.716C161.903 141.01 162.025 141.302 162.139 141.598C162.258 141.904 162.368 142.214 162.481 142.523C162.589 142.818 162.7 143.113 162.802 143.41C162.911 143.725 163.011 144.043 163.114 144.36C163.21 144.657 163.31 144.952 163.4 145.251C163.499 145.573 163.588 145.899 163.68 146.223C163.765 146.521 163.853 146.817 163.932 147.118C164.02 147.448 164.098 147.781 164.18 148.114C164.253 148.412 164.329 148.709 164.397 149.009C164.474 149.348 164.54 149.691 164.611 150.032C164.672 150.328 164.737 150.624 164.793 150.922C164.859 151.271 164.913 151.623 164.973 151.975C165.021 152.269 165.076 152.561 165.12 152.857C165.174 153.221 165.218 153.589 165.265 153.955C165.302 154.24 165.344 154.524 165.376 154.811C165.419 155.199 165.451 155.59 165.486 155.98C165.51 156.248 165.54 156.514 165.56 156.783C165.593 157.226 165.613 157.672 165.635 158.117C165.646 158.335 165.664 158.552 165.671 158.771C165.696 159.437 165.709 160.105 165.709 160.775V167.612V175.921H59.2634ZM177.58 155.533C177.462 154.062 177.291 152.599 177.075 151.146C177.041 150.916 177 150.688 176.963 150.458C176.879 149.932 176.791 149.407 176.694 148.884C176.643 148.609 176.587 148.335 176.532 148.06C176.437 147.582 176.338 147.106 176.232 146.631C176.168 146.345 176.102 146.058 176.034 145.773C175.923 145.307 175.807 144.842 175.687 144.379C175.614 144.098 175.54 143.818 175.463 143.538C175.331 143.056 175.19 142.576 175.046 142.097C174.97 141.845 174.897 141.592 174.818 141.34C174.64 140.773 174.451 140.209 174.258 139.646C174.203 139.489 174.154 139.33 174.098 139.173C173.843 138.451 173.576 137.734 173.295 137.02C173.234 136.867 173.169 136.716 173.107 136.564C172.884 136.01 172.656 135.457 172.417 134.909C172.312 134.665 172.2 134.425 172.091 134.183C171.886 133.726 171.678 133.271 171.462 132.82C171.336 132.555 171.205 132.292 171.075 132.029C170.863 131.601 170.646 131.174 170.425 130.749C170.286 130.483 170.146 130.219 170.004 129.955C169.774 129.53 169.539 129.109 169.299 128.688C169.156 128.436 169.014 128.183 168.867 127.933C168.601 127.479 168.326 127.03 168.049 126.582C167.919 126.373 167.794 126.162 167.662 125.955C167.248 125.304 166.824 124.657 166.386 124.017C165.978 123.422 165.558 122.837 165.133 122.257C165.009 122.089 164.884 121.923 164.759 121.756C164.433 121.32 164.101 120.888 163.765 120.461C163.643 120.307 163.523 120.151 163.4 119.998C162.953 119.441 162.5 118.89 162.037 118.35C161.976 118.28 161.914 118.212 161.854 118.142C161.445 117.669 161.03 117.202 160.609 116.742C160.464 116.584 160.318 116.427 160.172 116.27C159.799 115.87 159.42 115.474 159.037 115.084C158.911 114.955 158.787 114.826 158.66 114.698C158.161 114.198 157.655 113.705 157.142 113.222C157.036 113.122 156.927 113.026 156.821 112.927C156.401 112.537 155.977 112.154 155.549 111.776C155.386 111.632 155.221 111.489 155.057 111.347C154.629 110.978 154.197 110.615 153.761 110.257C153.642 110.16 153.525 110.06 153.406 109.964C152.858 109.521 152.303 109.089 151.742 108.665C151.602 108.559 151.46 108.457 151.319 108.352C150.879 108.026 150.436 107.705 149.988 107.389C149.813 107.266 149.637 107.142 149.46 107.02C148.96 106.675 148.456 106.337 147.946 106.006C147.857 105.948 147.769 105.888 147.68 105.831C147.165 105.5 146.647 105.176 146.123 104.859C146.258 104.731 146.385 104.594 146.518 104.463C146.893 104.101 147.261 103.732 147.623 103.358C147.825 103.149 148.027 102.939 148.225 102.727C148.62 102.304 149.006 101.873 149.386 101.436C149.548 101.251 149.71 101.066 149.869 100.878C150.275 100.398 150.668 99.9085 151.056 99.4126C151.182 99.2507 151.312 99.0913 151.437 98.9276C151.825 98.4172 152.2 97.8966 152.569 97.3711C154.926 97.7172 157.301 97.8924 159.668 97.8924C167.855 97.8924 175.573 95.8618 182.361 92.2928C200.997 101.122 212.891 119.697 212.891 140.389V155.533H177.58Z" fill="#FFADAD"/>
</svg>
