<svg width="300" height="312" viewBox="0 0 300 312" fill="none" xmlns="http://www.w3.org/2000/svg">
<path d="M57.9122 61.1966C59.779 76.9002 73.1681 89.1211 89.3667 89.1211H107.906C108.139 89.4087 108.375 89.6939 108.615 89.9766L85.0259 139.952C84.2734 141.546 84.4341 143.42 85.4466 144.864C86.4592 146.307 88.1702 147.097 89.9224 146.931L109.643 145.077L122.297 160.316C123.238 161.45 124.627 162.089 126.071 162.089C126.355 162.089 126.641 162.064 126.926 162.014C128.662 161.707 130.1 160.493 130.693 158.833L148.422 109.197C148.947 109.213 149.473 109.222 150.001 109.222C150.529 109.222 151.055 109.212 151.58 109.197L169.309 158.833C169.902 160.492 171.34 161.707 173.075 162.014C173.361 162.064 173.646 162.089 173.93 162.089C175.374 162.089 176.763 161.45 177.704 160.317L190.359 145.077L210.079 146.931C211.833 147.097 213.542 146.306 214.555 144.864C215.567 143.42 215.727 141.546 214.975 139.952L191.387 89.9766C191.626 89.6939 191.862 89.4093 192.096 89.1217H210.634C226.832 89.1217 240.222 76.9008 242.089 61.1972C259.059 58.9053 272.188 44.335 272.188 26.7461V25.8292C272.188 23.1198 269.991 20.923 267.281 20.923H192.096C182.151 8.66901 166.977 0.822693 150.002 0.822693C133.027 0.822693 117.852 8.66901 107.906 20.923H32.7216C30.0121 20.923 27.8154 23.1198 27.8154 25.8292V26.7461C27.8154 44.3344 40.9439 58.9047 57.914 61.1972L57.9122 61.1966ZM124.346 147.425L115.537 136.815C114.501 135.569 112.923 134.914 111.303 135.065L97.5737 136.355L116.042 97.2299C122.469 102.411 130.097 106.156 138.438 107.975L124.347 147.425H124.346ZM202.426 136.355L188.697 135.065C187.082 134.914 185.5 135.569 184.464 136.815L175.654 147.425L161.563 107.976C169.904 106.156 177.533 102.411 183.959 97.2299L202.426 136.355ZM262.055 30.7349C260.14 42.6092 249.819 51.7073 237.412 51.7073H204.094C203.64 44.2062 201.654 37.1124 198.443 30.7349H262.055ZM203.808 61.5198H232.118C230.199 71.6346 221.298 79.3086 210.634 79.3086H198.444C201.196 73.8406 203.049 67.8464 203.809 61.5198H203.808ZM150 10.6346C174.475 10.6346 194.386 30.5466 194.386 55.0214C194.386 79.4963 174.475 99.4083 150 99.4083C125.525 99.4083 105.613 79.4963 105.613 55.0214C105.613 30.5466 125.525 10.6346 150 10.6346ZM89.3661 79.3086C78.7012 79.3086 69.8006 71.6346 67.8817 61.5198H96.1913C96.9506 67.8464 98.8039 73.8406 101.556 79.3086H89.3661ZM101.556 30.7349C98.3452 37.1124 96.3588 44.2062 95.9043 51.7073H62.5872C50.1811 51.7073 39.8596 42.6092 37.9443 30.7349H101.556ZM298.9 219.537L270.036 149.088C268.618 145.625 265.93 142.921 262.468 141.471C259.006 140.022 255.194 140.004 251.732 141.424L238.221 146.959C232.112 149.462 228.716 155.806 229.671 162.06L223.277 165.709C214.181 170.902 198.973 172.065 187.903 168.417C175.712 164.4 162.782 165.859 149.389 172.746C136.007 165.86 123.061 164.4 110.875 168.417C99.8054 172.065 84.5966 170.902 75.5011 165.709L70.2164 162.693C71.5086 156.238 68.0926 149.546 61.7783 146.959L48.2677 141.424C44.8057 140.006 40.9936 140.022 37.5304 141.471C34.069 142.921 31.3816 145.625 29.9631 149.088L1.099 219.537C-1.83493 226.697 1.60312 234.907 8.76257 237.841L22.2738 243.377C23.9854 244.078 25.7823 244.428 27.5805 244.428C29.4197 244.428 31.2602 244.062 33.0105 243.329C34.6332 242.649 36.0769 241.685 37.3084 240.505C50.5681 247.805 58.136 253.352 68.3637 260.85C72.5187 263.896 77.2287 267.349 82.8813 271.323C104.501 286.525 128.189 298.275 137.369 302.621L149.332 308.286C152.91 310.316 156.285 311.177 159.33 311.177C165.265 311.177 169.941 307.906 172.403 303.641C173.351 301.998 173.995 300.145 174.281 298.214C175.849 298.708 177.458 298.954 179.057 298.954C184.589 298.954 189.978 296.085 192.937 290.959C194.284 288.625 194.972 286.09 195.063 283.567C195.762 283.658 196.466 283.704 197.174 283.704C198.632 283.704 200.101 283.513 201.549 283.125C205.872 281.966 209.478 279.205 211.703 275.35C213.161 272.824 213.911 270.018 213.93 267.165C214.613 267.25 215.302 267.296 215.993 267.296C217.451 267.296 218.919 267.105 220.368 266.716C224.69 265.558 228.296 262.797 230.522 258.942C231.959 256.452 232.706 253.599 232.729 250.721L261.612 239.356C263.039 241.074 264.866 242.44 266.99 243.328C268.74 244.061 270.58 244.428 272.42 244.428C274.218 244.428 276.015 244.078 277.726 243.376L291.237 237.841C298.397 234.907 301.834 226.695 298.901 219.536L298.9 219.537ZM31.4987 231.992C30.6168 234.146 28.1472 235.18 25.9939 234.298L12.4827 228.762C10.3295 227.88 9.29612 225.411 10.178 223.257L39.0421 152.809C39.7106 151.177 41.2898 150.189 42.9524 150.189C43.4841 150.189 44.025 150.29 44.5469 150.504L58.0575 156.039C60.2107 156.921 61.2447 159.391 60.3628 161.544L31.4987 231.992ZM222.022 254.036C221.107 255.622 219.617 256.758 217.826 257.239C216.038 257.719 214.178 257.478 212.592 256.563L205.59 252.521C205.59 252.521 205.586 252.518 205.584 252.518C205.584 252.518 205.582 252.517 205.581 252.516L181.582 238.661C179.236 237.305 176.234 238.11 174.88 240.456C173.525 242.803 174.329 245.803 176.676 247.158L200.687 261.022C202.264 261.936 203.396 263.424 203.875 265.213C204.355 267.006 204.117 268.864 203.203 270.446C202.288 272.031 200.799 273.168 199.008 273.648C197.217 274.128 195.359 273.889 193.774 272.973L187.088 269.113C187.088 269.113 187.083 269.11 187.08 269.109C187.079 269.108 187.078 269.107 187.077 269.107L162.373 254.844C160.026 253.488 157.025 254.292 155.671 256.639C154.316 258.986 155.12 261.987 157.467 263.341L182.178 277.609C185.129 279.316 186.143 283.103 184.439 286.056C183.619 287.475 182.284 288.495 180.679 288.924C179.076 289.355 177.411 289.14 175.99 288.32L144.697 270.252C142.35 268.897 139.349 269.701 137.995 272.048C136.64 274.395 137.444 277.395 139.791 278.75L161.62 291.353C161.62 291.353 161.622 291.354 161.623 291.355C165.497 293.592 164.881 297.049 163.905 298.738C162.516 301.144 159.199 302.658 154.056 299.687C153.94 299.621 153.823 299.559 153.702 299.502L141.567 293.756C132.615 289.517 109.525 278.066 88.5253 263.3C82.9518 259.38 78.2835 255.958 74.1653 252.939C63.6512 245.231 55.8669 239.525 42.1189 231.954L66.6907 171.982L70.6365 174.234C82.2631 180.87 100.073 182.312 113.946 177.738C121.944 175.103 130.23 175.472 139.082 178.862L105.71 199.669C101.791 202.112 99.4779 205.773 99.1958 209.977C98.891 214.514 101.093 219.313 104.943 222.501C118.16 233.445 130.258 227.534 140.932 222.319C147.441 219.139 154.172 215.851 161.495 215.808H161.653C169.637 215.808 175.888 219.424 183.118 223.608L219.272 244.482C221.56 246.162 222.032 247.183 222.746 249.02C223.139 250.737 222.88 252.554 222.021 254.04L222.022 254.036ZM229.814 241.323C228.761 239.775 227.231 238.113 224.814 236.375C224.68 236.279 224.544 236.19 224.401 236.109L188.032 215.11C180.282 210.626 172.271 205.992 161.654 205.992C161.583 205.992 161.509 205.992 161.437 205.992C151.875 206.048 143.773 210.006 136.625 213.499C125.399 218.982 119.17 221.538 111.201 214.939C109.782 213.764 108.892 212.033 108.986 210.632C109.011 210.259 109.087 209.124 110.901 207.993L148.846 184.334C161.879 176.209 173.65 174.05 184.831 177.735C198.704 182.309 216.513 180.867 228.14 174.231L233.076 171.414L257.289 230.511L229.814 241.323L229.814 241.323ZM287.515 228.762L274.005 234.297C271.852 235.178 269.382 234.146 268.499 231.992L239.635 161.543C239.211 160.506 239.217 159.36 239.654 158.316C240.092 157.272 240.904 156.464 241.941 156.038L255.452 150.503C255.963 150.293 256.499 150.189 257.038 150.189C257.592 150.189 258.148 150.3 258.678 150.522C259.723 150.959 260.531 151.771 260.957 152.808L289.821 223.257C290.703 225.41 289.669 227.879 287.515 228.762ZM120.264 54.2708C118.686 52.0685 119.192 49.0033 121.395 47.4253C123.598 45.8467 126.663 46.3533 128.24 48.5568L139.829 64.7327L170.278 34.2833C172.195 32.3674 175.301 32.3674 177.217 34.2833C179.133 36.1992 179.133 39.3055 177.217 41.2214L142.677 75.7601C141.753 76.6837 140.504 77.1971 139.208 77.1971C139.075 77.1971 138.941 77.1915 138.807 77.1805C137.371 77.0627 136.06 76.3195 135.22 75.1481L120.263 54.2708H120.264Z" fill="#FFC0C0"/>
</svg>
