<svg width="415" height="380" viewBox="0 0 415 380" fill="none" xmlns="http://www.w3.org/2000/svg">
<path d="M351.474 89.1552C350.641 88.2772 349.637 87.5781 348.525 87.1003C347.413 86.6225 346.215 86.3762 345.005 86.3762C343.795 86.3762 342.597 86.6225 341.485 87.1003C340.373 87.5781 339.369 88.2772 338.536 89.1552C332.154 96.3743 276.013 161.287 276.013 214.063C276.013 242.086 283.422 263.148 298.033 276.655C310.968 288.038 327.799 293.983 345.014 293.25C362.199 293.901 378.986 287.979 391.96 276.69C414.014 256.628 414.014 225.707 414.014 214.063C414.014 161.287 357.874 96.3743 351.474 89.1552ZM380.376 263.925C370.512 272.329 357.81 276.649 344.867 276C332.054 276.654 319.481 272.352 309.754 263.985C298.809 253.877 293.263 237.084 293.263 214.063C293.263 179.925 323.287 134.549 345.014 108.165C366.74 134.549 396.764 179.925 396.764 214.063C396.764 230.33 394.901 250.694 380.376 263.925Z" fill="#FFC966"/>
<path d="M362.264 189.749H340.503L353.026 158.449C353.875 156.324 353.845 153.949 352.942 151.846C352.04 149.743 350.339 148.085 348.213 147.236C346.088 146.388 343.713 146.418 341.61 147.32C339.508 148.223 337.85 149.924 337.001 152.049L319.751 195.174C319.228 196.483 319.034 197.9 319.185 199.302C319.337 200.703 319.829 202.046 320.62 203.213C321.411 204.379 322.475 205.335 323.721 205.995C324.966 206.655 326.354 207 327.763 206.999H350.301L336.828 247.39C336.47 248.467 336.327 249.603 336.407 250.734C336.488 251.865 336.791 252.97 337.298 253.984C337.805 254.998 338.508 255.903 339.365 256.646C340.222 257.389 341.216 257.956 342.292 258.314C343.368 258.673 344.505 258.816 345.636 258.735C346.767 258.654 347.871 258.352 348.886 257.844C349.9 257.337 350.805 256.635 351.548 255.778C352.291 254.921 352.858 253.926 353.216 252.85L370.466 201.1C370.898 199.802 371.016 198.42 370.809 197.067C370.601 195.715 370.075 194.431 369.274 193.322C368.472 192.214 367.419 191.311 366.2 190.69C364.981 190.069 363.632 189.746 362.264 189.749Z" fill="#FFC966"/>
<path d="M105.78 246.675C147.983 223.672 159.592 176.7 166.535 148.616C170.872 131.079 172.882 113.047 172.513 94.9857C172.467 92.8209 171.608 90.7526 170.108 89.1914C168.608 87.6303 166.575 86.6906 164.414 86.559C149.397 85.593 72.1859 83.6093 28.7759 134.859C15.2857 149.919 6.05597 168.304 2.03826 188.119C-1.63059 207.498 -0.0857761 227.503 6.51466 246.088C6.55779 246.209 6.66129 246.278 6.71304 246.39C2.94364 258.67 0.69298 271.366 0.0113677 284.194C-0.0467014 285.327 0.119315 286.46 0.49991 287.529C0.880504 288.597 1.4682 289.581 2.22933 290.422C2.99046 291.263 3.91008 291.946 4.93551 292.431C5.96095 292.916 7.07205 293.195 8.20517 293.25H8.63643C10.8511 293.253 12.9821 292.403 14.5877 290.878C16.1934 289.353 17.1508 287.268 17.2615 285.056C17.7727 274.679 19.4301 264.39 22.2036 254.377C33.2482 257.256 44.609 258.745 56.0225 258.81C73.3654 259.016 90.4798 254.842 105.78 246.675ZM28.0169 238.05C50.7181 184.574 102.624 159.01 124.549 150.341C126.677 149.496 128.383 147.84 129.29 145.737C130.198 143.634 130.232 141.257 129.387 139.129C128.542 137 126.886 135.295 124.783 134.387C122.68 133.48 120.303 133.445 118.175 134.29C95.8703 143.105 45.1808 167.997 17.8652 219.195C16.7811 209.917 17.1243 200.528 18.883 191.353C22.3893 174.458 30.3185 158.796 41.8602 145.968C74.9459 106.949 131.88 103.395 155.211 103.499C154.907 117.312 153.088 131.051 149.786 144.468C143.532 169.774 133.062 212.131 97.5263 231.495C75.9214 242.048 51.2139 244.378 28.0169 238.05Z" fill="#FFC966"/>
<path d="M322.261 312.475C292.533 336.85 255.835 351.16 217.454 353.344C179.072 355.528 140.988 345.473 108.687 324.628L147.828 319.039C148.949 318.878 150.028 318.498 151.002 317.92C151.977 317.343 152.828 316.579 153.507 315.672C154.186 314.765 154.68 313.734 154.96 312.636C155.241 311.539 155.303 310.397 155.142 309.275C154.981 308.154 154.601 307.075 154.023 306.101C153.445 305.126 152.681 304.275 151.775 303.596C150.868 302.917 149.837 302.423 148.739 302.143C147.642 301.862 146.499 301.8 145.378 301.961L85.0027 310.586C83.65 310.78 82.3626 311.292 81.2465 312.08C80.1305 312.869 79.2177 313.911 78.5835 315.121C77.9492 316.332 77.6117 317.675 77.5985 319.042C77.5854 320.408 77.8972 321.758 78.5081 322.981L104.383 374.731C104.884 375.753 105.582 376.666 106.438 377.417C107.293 378.168 108.289 378.742 109.367 379.107C110.446 379.471 111.586 379.619 112.721 379.54C113.857 379.462 114.966 379.16 115.984 378.651C117.002 378.142 117.91 377.437 118.654 376.576C119.398 375.714 119.965 374.714 120.321 373.633C120.677 372.552 120.815 371.411 120.728 370.276C120.641 369.141 120.33 368.034 119.813 367.02L108.687 344.655C143.624 364.649 183.814 373.55 223.926 370.176C264.038 366.803 302.177 351.315 333.284 325.766C335.046 324.307 336.157 322.207 336.371 319.929C336.585 317.651 335.886 315.381 334.427 313.618C332.967 311.856 330.867 310.745 328.589 310.531C326.311 310.316 324.041 311.016 322.278 312.475H322.261Z" fill="#FFC966"/>
<path d="M91.7647 67.0146C121.501 42.658 158.196 28.359 196.572 26.1738C234.949 23.9886 273.029 34.0297 305.338 54.8533L266.146 60.451C263.88 60.7758 261.836 61.9874 260.464 63.8192C259.092 65.6511 258.503 67.9531 258.828 70.2189C259.153 72.4846 260.364 74.5286 262.196 75.901C264.028 77.2735 266.33 77.862 268.596 77.5372L328.971 68.9122C330.33 68.7277 331.626 68.2217 332.75 67.4362C333.875 66.6507 334.796 65.6084 335.437 64.3957C336.078 63.183 336.42 61.8349 336.436 60.4633C336.451 59.0918 336.139 57.7363 335.526 56.5093L309.651 4.75898C308.622 2.71166 306.821 1.15711 304.646 0.437319C302.47 -0.282474 300.098 -0.108551 298.05 0.920828C296.003 1.95021 294.448 3.75072 293.729 5.92627C293.009 8.10182 293.183 10.4742 294.212 12.5215L305.338 34.7569C270.39 14.8103 230.209 5.94464 190.112 9.33292C150.014 12.7212 111.891 28.2037 80.785 53.7321C79.1374 55.2218 78.1281 57.2898 77.9673 59.5053C77.8066 61.7207 78.5067 63.9128 79.9219 65.6248C81.3372 67.3369 83.3584 68.437 85.5645 68.6959C87.7706 68.9548 89.9916 68.3525 91.7647 67.0146Z" fill="#FFC966"/>
</svg>
