<svg width="258" height="258" viewBox="0 0 258 258" fill="none" xmlns="http://www.w3.org/2000/svg">
<path d="M6 75.4588C6 51.1459 6 38.9895 10.7316 29.7033C14.8936 21.5348 21.5348 14.8936 29.7033 10.7316C38.9895 6 51.1459 6 75.4588 6H182.541C206.855 6 219.01 6 228.297 10.7316C236.466 14.8936 243.106 21.5348 247.268 29.7033C252 38.9895 252 51.1459 252 75.4588V182.541C252 206.855 252 219.01 247.268 228.297C243.106 236.466 236.466 243.106 228.297 247.268C219.01 252 206.855 252 182.541 252H75.4588C51.1459 252 38.9895 252 29.7033 247.268C21.5348 243.106 14.8936 236.466 10.7316 228.297C6 219.01 6 206.855 6 182.541V75.4588Z" stroke="#FFF28D" stroke-width="11" stroke-linecap="round"/>
<path d="M49.4117 63.8824L116.285 130.755C124.426 138.896 129 149.939 129 161.452V186.882M49.4117 63.8824H78.3529M49.4117 63.8824V92.8235" stroke="#FFF28D" stroke-width="11" stroke-linecap="round" stroke-linejoin="round"/>
<path d="M208.588 63.8824L141.715 130.755C133.574 138.896 129 149.939 129 161.452V186.882M208.588 63.8824H179.647M208.588 63.8824V92.8235" stroke="#FFF28D" stroke-width="11" stroke-linecap="round" stroke-linejoin="round"/>
</svg>
