<svg width="173" height="233" viewBox="0 0 173 233" fill="none" xmlns="http://www.w3.org/2000/svg">
<path d="M167.545 92.5849H87.7286C90.3512 82.6261 99.7193 53.7891 123.101 39.5776C125.296 38.2408 125.997 35.3784 124.66 33.183C123.323 30.993 120.465 30.2871 118.265 31.6239C89.5181 49.097 80 84.362 78.1247 92.5849H4.65459C2.08285 92.5849 0 94.6664 0 97.2395V129.818C0 132.389 2.08151 134.472 4.65459 134.472H14.3589L22.6889 227.966C22.9019 230.365 24.9164 232.206 27.3248 232.206H144.875C147.283 232.206 149.298 230.366 149.511 227.966L157.841 134.472H167.545C170.117 134.472 172.2 132.391 172.2 129.818V97.2382C172.198 94.6651 170.118 92.5849 167.545 92.5849ZM140.617 222.897H31.5829L23.7016 134.471H148.498L140.617 222.897ZM162.89 125.163H153.583H18.617H9.30917V101.893H162.892L162.89 125.163Z" fill="#FFAFFA"/>
<path d="M67.8645 56.8243C70.7323 57.7244 73.4956 58.1705 76.0914 58.1705C80.7366 58.1705 84.8407 56.7439 88.0581 53.9485C93.0757 49.5859 95.0848 42.6275 93.7159 34.355C92.4796 26.897 88.5751 19.08 82.7177 12.3399C70.3465 -1.89447 45.9485 0.0410344 44.9037 0.141493C42.8945 0.314282 41.2269 1.76892 40.7728 3.73256C40.5411 4.74652 35.2181 28.6396 47.5946 42.8739C53.4534 49.6074 60.6529 54.566 67.8645 56.8243ZM49.2636 9.32074C55.5898 9.37566 68.7888 10.4981 75.6923 18.4464C80.3696 23.823 83.591 30.1719 84.5326 35.8713C85.0095 38.7444 85.3055 44.0018 81.9515 46.9204C78.5975 49.8377 73.4299 48.8064 70.6479 47.9424C65.1347 46.2159 59.2947 42.1386 54.6227 36.762C47.7125 28.8191 48.4305 15.5974 49.2636 9.32074Z" fill="#FFAFFA"/>
</svg>
