<svg width="292" height="292" viewBox="0 0 292 292" fill="none" xmlns="http://www.w3.org/2000/svg">
<path d="M280.961 61.9578H241.98V29.0217C241.98 14.0733 229.869 1.9502 214.909 1.9502H29.0217C14.0733 1.9502 1.9502 14.0733 1.9502 29.0217V280.972C1.9502 285.959 5.99122 290 10.9778 290H280.972C285.959 290 290 285.959 290 280.972V70.9854C290 65.9988 285.948 61.9578 280.961 61.9578ZM29.0104 13.9495H214.898C223.205 13.9495 229.97 20.7145 229.97 29.0217V61.9578H13.9382V29.0217C13.9382 20.7145 20.7033 13.9495 29.0104 13.9495ZM277.99 278.001H13.9495V73.9683H277.99V278.001Z" fill="#FFCF87" stroke="#FFCF87" stroke-width="3"/>
<path d="M193.972 175.985C193.972 192.554 207.412 205.983 223.982 205.983C240.551 205.983 253.98 192.554 253.98 175.985C253.98 159.415 240.551 145.975 223.982 145.975C207.412 145.975 193.972 159.404 193.972 175.985ZM241.98 175.985C241.98 185.901 233.91 193.972 223.982 193.972C214.053 193.972 205.971 185.901 205.971 175.985C205.971 166.056 214.053 157.986 223.982 157.986C233.91 157.986 241.98 166.056 241.98 175.985Z" fill="#FFCF87" stroke="#FFCF87" stroke-width="3"/>
</svg>
