<svg width="376" height="376" viewBox="0 0 376 376" fill="none" xmlns="http://www.w3.org/2000/svg">
<g clip-path="url(#clip0_24_39)">
<path d="M187.998 376C84.3388 376 0 291.664 0 187.998C0 84.3357 84.3388 0 187.998 0C291.658 0 375.997 84.3357 375.997 187.998C376 291.664 291.661 376 187.998 376ZM187.998 18.5421C94.5617 18.5421 18.5421 94.5617 18.5421 187.998C18.5421 281.438 94.5617 357.458 187.998 357.458C281.435 357.458 357.455 281.438 357.455 187.998C357.458 94.5617 281.438 18.5421 187.998 18.5421Z" fill="#FFCF87"/>
<path d="M211.445 235.503L211.34 235.612L211.232 235.503L187.998 258.737L164.765 235.503L164.657 235.612L164.552 235.503L128.225 271.834L141.337 284.943L164.663 261.617L187.989 284.943L187.998 284.93L188.014 284.943L211.34 261.617L234.669 284.943L247.778 271.83L211.445 235.503Z" fill="#FFCF87"/>
<path d="M303.97 139.947L290.858 126.834L271.966 145.726L253.072 126.834L239.96 139.947L258.854 158.838L239.96 177.732L253.072 190.845L271.966 171.953L290.858 190.845L303.97 177.732L285.082 158.838L303.97 139.947Z" fill="#FFCF87"/>
<path d="M134.804 139.947L121.692 126.834L102.801 145.726L83.9 126.834L70.7908 139.947L89.6852 158.838L70.7908 177.732L83.9 190.845L102.801 171.953L121.692 190.845L134.804 177.732L115.913 158.838L134.804 139.947Z" fill="#FFCF87"/>
</g>
<defs>
<clipPath id="clip0_24_39">
<rect width="376" height="376" fill="white"/>
</clipPath>
</defs>
</svg>
