<svg width="220" height="220" viewBox="0 0 220 220" fill="none" xmlns="http://www.w3.org/2000/svg">
<path d="M5.83334 130.833C5.83334 91.55 5.83334 71.9078 18.0372 59.7039C30.2412 47.5 49.8829 47.5 89.1667 47.5H130.833C170.117 47.5 189.759 47.5 201.962 59.7039C214.167 71.9078 214.167 91.55 214.167 130.833C214.167 170.117 214.167 189.759 201.962 201.962C189.759 214.167 170.117 214.167 130.833 214.167H89.1667C49.8829 214.167 30.2412 214.167 18.0372 201.962C5.83334 189.759 5.83334 170.117 5.83334 130.833Z" stroke="#67FFC2" stroke-width="10"/>
<path d="M151.667 47.5C151.667 27.8581 151.667 18.0372 145.565 11.9353C139.463 5.83334 129.642 5.83334 110 5.83334C90.3583 5.83334 80.5372 5.83334 74.4353 11.9353C68.3333 18.0372 68.3333 27.8581 68.3333 47.5" stroke="#67FFC2" stroke-width="10"/>
<path d="M110 165.555C121.506 165.555 130.833 157.782 130.833 148.195C130.833 138.606 121.506 130.833 110 130.833C98.4938 130.833 89.1667 123.06 89.1667 113.472C89.1667 103.884 98.4938 96.1115 110 96.1115M110 165.555C98.4938 165.555 89.1667 157.782 89.1667 148.195M110 165.555V172.5M110 96.1115V89.1667M110 96.1115C121.506 96.1115 130.833 103.884 130.833 113.472" stroke="#67FFC2" stroke-width="10" stroke-linecap="round"/>
</svg>
