<svg width="233" height="80" viewBox="0 0 233 80" fill="none" xmlns="http://www.w3.org/2000/svg">
<g opacity="0.8">
<path d="M230.35 4C229.627 4 229.245 3.42399 228.908 2.91599C228.582 2.42399 228.301 2 227.7 2C227.099 2 226.819 2.42399 226.493 2.91599C226.157 3.42399 225.775 4 225.052 4C224.328 4 223.947 3.42399 223.61 2.91599C223.285 2.42399 223.004 2 222.403 2C221.802 2 221.521 2.42399 221.196 2.91599C220.859 3.42399 220.478 4 219.755 4C219.032 4 218.65 3.42399 218.314 2.91599C217.989 2.42399 217.708 2 217.107 2C216.506 2 216.226 2.42399 215.901 2.91599C215.564 3.42399 215.183 4 214.459 4C213.736 4 213.355 3.42399 213.018 2.91599C212.694 2.42399 212.413 2 211.812 2C211.211 2 210.931 2.42401 210.605 2.91501C210.269 3.42401 209.887 4 209.164 4C208.441 4 208.059 3.42399 207.723 2.91599C207.398 2.42399 207.116 2 206.516 2C205.915 2 205.634 2.42399 205.309 2.91599C204.972 3.42399 204.591 4 203.868 4C203.145 4 202.763 3.42401 202.427 2.91501C202.101 2.42401 201.821 2 201.22 2C200.619 2 200.339 2.42401 200.014 2.91501C199.677 3.42401 199.296 4 198.573 4C197.849 4 197.468 3.42399 197.131 2.91599C196.806 2.42399 196.526 2 195.925 2C195.324 2 195.043 2.42399 194.718 2.91599C194.381 3.42399 194 4 193.277 4C192.554 4 192.173 3.42401 191.836 2.91501C191.511 2.42401 191.231 2 190.63 2C190.03 2 189.749 2.42399 189.424 2.91599C189.087 3.42399 188.706 4 187.983 4C187.26 4 186.879 3.42399 186.542 2.91599C186.217 2.42399 185.937 2 185.336 2C184.736 2 184.455 2.42401 184.13 2.91501C183.793 3.42401 183.412 4 182.689 4C181.966 4 181.585 3.42401 181.249 2.91501C180.924 2.42401 180.643 2 180.043 2C179.442 2 179.162 2.42401 178.837 2.91501C178.5 3.42401 178.119 4 177.396 4C176.673 4 176.292 3.42401 175.955 2.91501C175.631 2.42401 175.35 2 174.75 2V0C175.473 0 175.854 0.575991 176.19 1.08499C176.515 1.57599 176.795 2 177.396 2C177.997 2 178.277 1.57599 178.602 1.08499C178.938 0.575991 179.32 0 180.043 0C180.766 0 181.147 0.575991 181.483 1.08499C181.808 1.57599 182.089 2 182.689 2C183.289 2 183.57 1.57599 183.895 1.08499C184.232 0.575991 184.613 0 185.336 0C186.059 0 186.44 0.575991 186.777 1.08499C187.102 1.57599 187.382 2 187.983 2C188.583 2 188.864 1.57601 189.189 1.08401C189.526 0.576015 189.907 0 190.63 0C191.353 0 191.734 0.576015 192.071 1.08401C192.396 1.57601 192.676 2 193.277 2C193.877 2 194.158 1.57599 194.483 1.08499C194.82 0.575991 195.201 0 195.925 0C196.648 0 197.029 0.576015 197.366 1.08401C197.691 1.57601 197.972 2 198.573 2C199.174 2 199.454 1.57601 199.779 1.08401C200.115 0.576015 200.497 0 201.22 0C201.943 0 202.325 0.576015 202.661 1.08401C202.986 1.57601 203.267 2 203.868 2C204.468 2 204.749 1.57599 205.074 1.08499C205.411 0.575991 205.792 0 206.516 0C207.239 0 207.62 0.576015 207.957 1.08401C208.282 1.57601 208.563 2 209.164 2C209.765 2 210.045 1.57601 210.371 1.08401C210.707 0.576015 211.089 0 211.812 0C212.535 0 212.916 0.575991 213.253 1.08499C213.578 1.57599 213.859 2 214.459 2C215.06 2 215.341 1.57599 215.666 1.08499C216.002 0.575991 216.384 0 217.107 0C217.83 0 218.212 0.575991 218.548 1.08499C218.873 1.57599 219.154 2 219.755 2C220.356 2 220.636 1.57601 220.961 1.08401C221.298 0.576015 221.68 0 222.403 0C223.126 0 223.508 0.576015 223.845 1.08401C224.17 1.57601 224.451 2 225.052 2C225.653 2 225.934 1.57601 226.259 1.08401C226.595 0.576015 226.976 0 227.7 0C228.424 0 228.806 0.576015 229.142 1.08401C229.468 1.57601 229.749 2 230.35 2C230.951 2 231.232 1.57601 231.558 1.08401C231.895 0.576015 232.277 0 233 0V2C232.399 2 232.118 2.42399 231.792 2.91599C231.456 3.42399 231.074 4 230.35 4Z" fill="#BCAA53"/>
<path d="M113.848 4C113.125 4 112.743 3.42399 112.406 2.91599C112.08 2.42399 111.799 2 111.198 2C110.597 2 110.317 2.42399 109.991 2.91599C109.655 3.42399 109.273 4 108.55 4C107.826 4 107.445 3.42399 107.108 2.91599C106.783 2.42399 106.502 2 105.901 2C105.3 2 105.019 2.42399 104.694 2.91599C104.357 3.42399 103.976 4 103.253 4C102.53 4 102.148 3.42399 101.812 2.91599C101.487 2.42399 101.206 2 100.605 2C100.004 2 99.7236 2.42399 99.3986 2.91599C99.0619 3.42399 98.6807 4 97.9575 4C97.2343 4 96.8531 3.42399 96.5164 2.91599C96.1917 2.42399 95.9106 2 95.3098 2C94.7089 2 94.4287 2.42401 94.1031 2.91501C93.7667 3.42401 93.3852 4 92.662 4C91.9389 4 91.557 3.42399 91.2206 2.91599C90.8956 2.42399 90.6145 2 90.0137 2C89.4128 2 89.1321 2.42399 88.8071 2.91599C88.4704 3.42399 88.0888 4 87.3657 4C86.6428 4 86.2612 3.42401 85.9249 2.91501C85.5995 2.42401 85.3191 2 84.7182 2C84.1174 2 83.8372 2.42401 83.5116 2.91501C83.1752 3.42401 82.7936 4 82.0708 4C81.3473 4 80.966 3.42399 80.6294 2.91599C80.3043 2.42399 80.0236 2 79.4227 2C78.8219 2 78.5411 2.42399 78.2161 2.91599C77.8794 3.42399 77.4981 4 76.775 4C76.0521 4 75.6706 3.42401 75.3345 2.91501C75.0094 2.42401 74.7287 2 74.1284 2C73.5275 2 73.2471 2.42399 72.9218 2.91599C72.5854 3.42399 72.2038 4 71.4809 4C70.7581 4 70.3768 3.42399 70.0401 2.91599C69.7154 2.42399 69.4346 2 68.8341 2C68.2338 2 67.953 2.42401 67.628 2.91501C67.2913 3.42401 66.9101 4 66.1872 4C65.4643 4 65.0831 3.42401 64.747 2.91501C64.4219 2.42401 64.1412 2 63.5409 2C62.9404 2 62.6596 2.42401 62.3346 2.91501C61.9982 3.42401 61.6166 4 60.8938 4C60.1709 4 59.7899 3.42401 59.4535 2.91501C59.1288 2.42401 58.8483 2 58.248 2V0C58.9706 0 59.3519 0.575991 59.6883 1.08499C60.013 1.57599 60.2935 2 60.8938 2C61.4946 2 61.7748 1.57599 62.1001 1.08499C62.4365 0.575991 62.818 0 63.5409 0C64.2638 0 64.645 0.575991 64.9811 1.08499C65.3062 1.57599 65.5869 2 66.1872 2C66.7875 2 67.0682 1.57599 67.3933 1.08499C67.7299 0.575991 68.1112 0 68.8341 0C69.557 0 69.9382 0.575991 70.2749 1.08499C70.5996 1.57599 70.8801 2 71.4809 2C72.0812 2 72.362 1.57601 72.6873 1.08401C73.0237 0.576015 73.4052 0 74.1284 0C74.851 0 75.2325 0.576015 75.5686 1.08401C75.8937 1.57601 76.1744 2 76.775 2C77.3755 2 77.6563 1.57599 77.9813 1.08499C78.318 0.575991 78.6995 0 79.4227 0C80.1456 0 80.5274 0.576015 80.8638 1.08401C81.1889 1.57601 81.4699 2 82.0708 2C82.6716 2 82.9518 1.57601 83.2774 1.08401C83.6135 0.576015 83.9953 0 84.7182 0C85.4411 0 85.8229 0.576015 86.159 1.08401C86.4843 1.57601 86.7648 2 87.3657 2C87.9665 2 88.2473 1.57599 88.5723 1.08499C88.909 0.575991 89.2905 0 90.0137 0C90.7369 0 91.1184 0.576015 91.4551 1.08401C91.7801 1.57601 92.0609 2 92.662 2C93.2629 2 93.5433 1.57601 93.869 1.08401C94.2054 0.576015 94.5869 0 95.3098 0C96.0329 0 96.4145 0.575991 96.7512 1.08499C97.0759 1.57599 97.357 2 97.9575 2C98.5581 2 98.8388 1.57599 99.1639 1.08499C99.5005 0.575991 99.8821 0 100.605 0C101.328 0 101.71 0.575991 102.046 1.08499C102.371 1.57599 102.652 2 103.253 2C103.854 2 104.134 1.57601 104.459 1.08401C104.796 0.576015 105.178 0 105.901 0C106.624 0 107.006 0.576015 107.343 1.08401C107.668 1.57601 107.949 2 108.55 2C109.151 2 109.432 1.57601 109.757 1.08401C110.093 0.576015 110.475 0 111.198 0C111.922 0 112.304 0.576015 112.641 1.08401C112.966 1.57601 113.247 2 113.848 2C114.449 2 114.731 1.57601 115.056 1.08401C115.393 0.576015 115.775 0 116.498 0V2C115.897 2 115.616 2.42399 115.29 2.91599C114.954 3.42399 114.572 4 113.848 4Z" fill="#BCAA53"/>
<path d="M172.099 23C171.376 23 170.994 22.424 170.657 21.916C170.331 21.424 170.05 21 169.449 21C168.848 21 168.568 21.424 168.242 21.916C167.906 22.424 167.524 23 166.801 23C166.077 23 165.696 22.424 165.359 21.916C165.034 21.424 164.753 21 164.152 21C163.551 21 163.27 21.424 162.945 21.916C162.608 22.424 162.227 23 161.504 23C160.781 23 160.399 22.424 160.063 21.916C159.738 21.424 159.457 21 158.856 21C158.255 21 157.975 21.424 157.65 21.916C157.313 22.424 156.932 23 156.208 23C155.485 23 155.104 22.424 154.767 21.916C154.443 21.424 154.162 21 153.561 21C152.96 21 152.68 21.424 152.354 21.915C152.018 22.424 151.636 23 150.913 23C150.19 23 149.808 22.424 149.472 21.916C149.147 21.424 148.866 21 148.265 21C147.664 21 147.383 21.424 147.058 21.916C146.721 22.424 146.34 23 145.617 23C144.894 23 144.512 22.424 144.176 21.915C143.851 21.424 143.57 21 142.969 21C142.368 21 142.088 21.424 141.763 21.915C141.426 22.424 141.045 23 140.322 23C139.598 23 139.217 22.424 138.88 21.916C138.555 21.424 138.275 21 137.674 21C137.073 21 136.792 21.424 136.467 21.916C136.13 22.424 135.749 23 135.026 23C134.303 23 133.922 22.424 133.585 21.915C133.26 21.424 132.98 21 132.379 21C131.779 21 131.498 21.424 131.173 21.916C130.836 22.424 130.455 23 129.732 23C129.009 23 128.628 22.424 128.291 21.916C127.966 21.424 127.686 21 127.085 21C126.485 21 126.204 21.424 125.879 21.915C125.542 22.424 125.161 23 124.438 23C123.715 23 123.334 22.424 122.998 21.915C122.673 21.424 122.392 21 121.792 21C121.191 21 120.911 21.424 120.586 21.915C120.249 22.424 119.868 23 119.145 23C118.422 23 118.041 22.424 117.705 21.915C117.38 21.424 117.099 21 116.499 21V19C117.222 19 117.603 19.576 117.939 20.085C118.264 20.576 118.544 21 119.145 21C119.746 21 120.026 20.576 120.351 20.085C120.687 19.576 121.069 19 121.792 19C122.515 19 122.896 19.576 123.232 20.085C123.557 20.576 123.838 21 124.438 21C125.038 21 125.319 20.576 125.644 20.085C125.981 19.576 126.362 19 127.085 19C127.808 19 128.189 19.576 128.526 20.085C128.851 20.576 129.131 21 129.732 21C130.332 21 130.613 20.576 130.938 20.084C131.275 19.576 131.656 19 132.379 19C133.102 19 133.483 19.576 133.82 20.084C134.145 20.576 134.425 21 135.026 21C135.627 21 135.907 20.576 136.232 20.085C136.569 19.576 136.951 19 137.674 19C138.397 19 138.778 19.576 139.115 20.084C139.44 20.576 139.721 21 140.322 21C140.923 21 141.203 20.576 141.528 20.084C141.864 19.576 142.246 19 142.969 19C143.692 19 144.074 19.576 144.41 20.084C144.735 20.576 145.016 21 145.617 21C146.217 21 146.498 20.576 146.823 20.085C147.16 19.576 147.542 19 148.265 19C148.988 19 149.369 19.576 149.706 20.084C150.031 20.576 150.312 21 150.913 21C151.514 21 151.794 20.576 152.12 20.084C152.456 19.576 152.838 19 153.561 19C154.284 19 154.665 19.576 155.002 20.085C155.327 20.576 155.608 21 156.208 21C156.809 21 157.09 20.576 157.415 20.085C157.752 19.576 158.133 19 158.856 19C159.579 19 159.961 19.576 160.297 20.085C160.622 20.576 160.903 21 161.504 21C162.105 21 162.385 20.576 162.71 20.084C163.047 19.576 163.429 19 164.152 19C164.875 19 165.257 19.576 165.594 20.084C165.919 20.576 166.2 21 166.801 21C167.402 21 167.683 20.576 168.008 20.084C168.344 19.576 168.725 19 169.449 19C170.173 19 170.555 19.576 170.892 20.084C171.217 20.576 171.498 21 172.099 21C172.7 21 172.982 20.576 173.307 20.084C173.644 19.576 174.026 19 174.749 19V21C174.148 21 173.867 21.424 173.541 21.916C173.205 22.424 172.823 23 172.099 23Z" fill="#BCAA53"/>
<path d="M55.5983 23C54.8746 23 54.4928 22.424 54.1561 21.916C53.8305 21.424 53.5494 21 52.9483 21C52.3474 21 52.0667 21.424 51.741 21.916C51.4047 22.424 51.0231 23 50.2997 23C49.5765 23 49.1947 22.424 48.8583 21.916C48.5329 21.424 48.2519 21 47.6507 21C47.0499 21 46.7691 21.424 46.4441 21.916C46.1074 22.424 45.7256 23 45.0027 23C44.2798 23 43.898 22.424 43.5619 21.916C43.2366 21.424 42.9561 21 42.3553 21C41.7544 21 41.4736 21.424 41.1486 21.916C40.8119 22.424 40.4307 23 39.7075 23C38.9843 23 38.6031 22.424 38.2664 21.916C37.9417 21.424 37.6606 21 37.0598 21C36.4589 21 36.1787 21.424 35.8531 21.915C35.5167 22.424 35.1352 23 34.412 23C33.6889 23 33.307 22.424 32.9706 21.916C32.6456 21.424 32.3645 21 31.7637 21C31.1628 21 30.8821 21.424 30.5571 21.916C30.2204 22.424 29.8388 23 29.1157 23C28.3928 23 28.0112 22.424 27.6749 21.915C27.3495 21.424 27.0691 21 26.4682 21C25.8674 21 25.5872 21.424 25.2616 21.915C24.9252 22.424 24.5436 23 23.8208 23C23.0973 23 22.716 22.424 22.3794 21.916C22.0543 21.424 21.7736 21 21.1727 21C20.5719 21 20.2911 21.424 19.9661 21.916C19.6294 22.424 19.2481 23 18.525 23C17.8021 23 17.4206 22.424 17.0845 21.915C16.7594 21.424 16.4787 21 15.8784 21C15.2775 21 14.9971 21.424 14.6718 21.916C14.3354 22.424 13.9538 23 13.2309 23C12.5081 23 12.1268 22.424 11.7901 21.916C11.4654 21.424 11.1846 21 10.5841 21C9.98381 21 9.70304 21.424 9.37801 21.915C9.04132 22.424 8.66008 23 7.9372 23C7.21432 23 6.83308 22.424 6.49697 21.915C6.17194 21.424 5.89118 21 5.29092 21C4.69036 21 4.4096 21.424 4.08456 21.915C3.74817 22.424 3.36663 23 2.64375 23C1.92087 23 1.53992 22.424 1.20352 21.915C0.878781 21.424 0.598311 21 -0.00195312 21V19C0.720635 19 1.10188 19.576 1.43827 20.085C1.76301 20.576 2.04349 21 2.64375 21C3.2446 21 3.52478 20.576 3.8501 20.085C4.1865 19.576 4.56804 19 5.29092 19C6.0138 19 6.39504 19.576 6.73114 20.085C7.05617 20.576 7.33694 21 7.9372 21C8.53747 21 8.81823 20.576 9.14326 20.085C9.47995 19.576 9.86119 19 10.5841 19C11.307 19 11.6882 19.576 12.0249 20.085C12.3496 20.576 12.6301 21 13.2309 21C13.8312 21 14.112 20.576 14.4373 20.084C14.7737 19.576 15.1552 19 15.8784 19C16.601 19 16.9825 19.576 17.3186 20.084C17.6437 20.576 17.9244 21 18.525 21C19.1255 21 19.4063 20.576 19.7313 20.085C20.068 19.576 20.4495 19 21.1727 19C21.8956 19 22.2774 19.576 22.6138 20.084C22.9389 20.576 23.2199 21 23.8208 21C24.4216 21 24.7018 20.576 25.0274 20.084C25.3635 19.576 25.7453 19 26.4682 19C27.1911 19 27.5729 19.576 27.909 20.084C28.2343 20.576 28.5148 21 29.1157 21C29.7165 21 29.9973 20.576 30.3223 20.085C30.659 19.576 31.0405 19 31.7637 19C32.4869 19 32.8684 19.576 33.2051 20.084C33.5301 20.576 33.8109 21 34.412 21C35.0129 21 35.2933 20.576 35.619 20.084C35.9554 19.576 36.3369 19 37.0598 19C37.7829 19 38.1645 19.576 38.5012 20.085C38.8259 20.576 39.107 21 39.7075 21C40.3081 21 40.5888 20.576 40.9139 20.085C41.2505 19.576 41.6321 19 42.3553 19C43.0781 19 43.4597 19.576 43.7961 20.085C44.1214 20.576 44.4019 21 45.0027 21C45.6036 21 45.8843 20.576 46.2094 20.084C46.546 19.576 46.9279 19 47.6507 19C48.3742 19 48.756 19.576 49.0927 20.084C49.418 20.576 49.6988 21 50.2999 21C50.9008 21 51.1816 20.576 51.5072 20.084C51.8433 19.576 52.2245 19 52.9483 19C53.6717 19 54.0539 19.576 54.3905 20.084C54.7162 20.576 54.9972 21 55.5983 21C56.1995 21 56.4805 20.576 56.8062 20.084C57.1428 19.576 57.5247 19 58.2484 19V21C57.647 21 57.3659 21.424 57.0403 21.916C56.7036 22.424 56.3221 23 55.5983 23Z" fill="#BCAA53"/>
<path d="M230.35 42C229.627 42 229.245 41.424 228.908 40.916C228.582 40.424 228.301 40 227.7 40C227.099 40 226.819 40.424 226.493 40.916C226.157 41.424 225.775 42 225.052 42C224.328 42 223.947 41.424 223.61 40.916C223.285 40.424 223.004 40 222.403 40C221.802 40 221.521 40.424 221.196 40.916C220.859 41.424 220.478 42 219.755 42C219.032 42 218.65 41.424 218.314 40.916C217.989 40.424 217.708 40 217.107 40C216.506 40 216.226 40.424 215.901 40.916C215.564 41.424 215.183 42 214.459 42C213.736 42 213.355 41.424 213.018 40.916C212.694 40.424 212.413 40 211.812 40C211.211 40 210.931 40.424 210.605 40.915C210.269 41.424 209.887 42 209.164 42C208.441 42 208.059 41.424 207.723 40.916C207.398 40.424 207.116 40 206.516 40C205.915 40 205.634 40.424 205.309 40.916C204.972 41.424 204.591 42 203.868 42C203.145 42 202.763 41.424 202.427 40.915C202.101 40.424 201.821 40 201.22 40C200.619 40 200.339 40.424 200.014 40.915C199.677 41.424 199.296 42 198.573 42C197.849 42 197.468 41.424 197.131 40.916C196.806 40.424 196.526 40 195.925 40C195.324 40 195.043 40.424 194.718 40.916C194.381 41.424 194 42 193.277 42C192.554 42 192.173 41.424 191.836 40.915C191.511 40.424 191.231 40 190.63 40C190.03 40 189.749 40.424 189.424 40.916C189.087 41.424 188.706 42 187.983 42C187.26 42 186.879 41.424 186.542 40.916C186.217 40.424 185.937 40 185.336 40C184.736 40 184.455 40.424 184.13 40.915C183.793 41.424 183.412 42 182.689 42C181.966 42 181.585 41.424 181.249 40.915C180.924 40.424 180.643 40 180.043 40C179.442 40 179.162 40.424 178.837 40.915C178.5 41.424 178.119 42 177.396 42C176.673 42 176.292 41.424 175.955 40.915C175.631 40.424 175.35 40 174.75 40V38C175.473 38 175.854 38.576 176.19 39.085C176.515 39.576 176.795 40 177.396 40C177.997 40 178.277 39.576 178.602 39.085C178.938 38.576 179.32 38 180.043 38C180.766 38 181.147 38.576 181.483 39.085C181.808 39.576 182.089 40 182.689 40C183.289 40 183.57 39.576 183.895 39.085C184.232 38.576 184.613 38 185.336 38C186.059 38 186.44 38.576 186.777 39.085C187.102 39.576 187.382 40 187.983 40C188.583 40 188.864 39.576 189.189 39.084C189.526 38.576 189.907 38 190.63 38C191.353 38 191.734 38.576 192.071 39.084C192.396 39.576 192.676 40 193.277 40C193.877 40 194.158 39.576 194.483 39.085C194.82 38.576 195.201 38 195.925 38C196.648 38 197.029 38.576 197.366 39.084C197.691 39.576 197.972 40 198.573 40C199.174 40 199.454 39.576 199.779 39.084C200.115 38.576 200.497 38 201.22 38C201.943 38 202.325 38.576 202.661 39.084C202.986 39.576 203.267 40 203.868 40C204.468 40 204.749 39.576 205.074 39.085C205.411 38.576 205.792 38 206.516 38C207.239 38 207.62 38.576 207.957 39.084C208.282 39.576 208.563 40 209.164 40C209.765 40 210.045 39.576 210.371 39.084C210.707 38.576 211.089 38 211.812 38C212.535 38 212.916 38.576 213.253 39.085C213.578 39.576 213.859 40 214.459 40C215.06 40 215.341 39.576 215.666 39.085C216.002 38.576 216.384 38 217.107 38C217.83 38 218.212 38.576 218.548 39.085C218.873 39.576 219.154 40 219.755 40C220.356 40 220.636 39.576 220.961 39.084C221.298 38.576 221.68 38 222.403 38C223.126 38 223.508 38.576 223.845 39.084C224.17 39.576 224.451 40 225.052 40C225.653 40 225.934 39.576 226.259 39.084C226.595 38.576 226.976 38 227.7 38C228.424 38 228.806 38.576 229.142 39.084C229.468 39.576 229.749 40 230.35 40C230.951 40 231.232 39.576 231.558 39.084C231.895 38.576 232.277 38 233 38V40C232.399 40 232.118 40.424 231.792 40.916C231.456 41.424 231.074 42 230.35 42Z" fill="#BCAA53"/>
<path d="M113.848 42C113.125 42 112.743 41.424 112.406 40.916C112.08 40.424 111.799 40 111.198 40C110.597 40 110.317 40.424 109.991 40.916C109.655 41.424 109.273 42 108.55 42C107.826 42 107.445 41.424 107.108 40.916C106.783 40.424 106.502 40 105.901 40C105.3 40 105.019 40.424 104.694 40.916C104.357 41.424 103.976 42 103.253 42C102.53 42 102.148 41.424 101.812 40.916C101.487 40.424 101.206 40 100.605 40C100.004 40 99.7236 40.424 99.3986 40.916C99.0619 41.424 98.6807 42 97.9575 42C97.2343 42 96.8531 41.424 96.5164 40.916C96.1917 40.424 95.9106 40 95.3098 40C94.7089 40 94.4287 40.424 94.1031 40.915C93.7667 41.424 93.3852 42 92.662 42C91.9389 42 91.557 41.424 91.2206 40.916C90.8956 40.424 90.6145 40 90.0137 40C89.4128 40 89.1321 40.424 88.8071 40.916C88.4704 41.424 88.0888 42 87.3657 42C86.6428 42 86.2612 41.424 85.9249 40.915C85.5995 40.424 85.3191 40 84.7182 40C84.1174 40 83.8372 40.424 83.5116 40.915C83.1752 41.424 82.7936 42 82.0708 42C81.3473 42 80.966 41.424 80.6294 40.916C80.3043 40.424 80.0236 40 79.4227 40C78.8219 40 78.5411 40.424 78.2161 40.916C77.8794 41.424 77.4981 42 76.775 42C76.0521 42 75.6706 41.424 75.3345 40.915C75.0094 40.424 74.7287 40 74.1284 40C73.5275 40 73.2471 40.424 72.9218 40.916C72.5854 41.424 72.2038 42 71.4809 42C70.7581 42 70.3768 41.424 70.0401 40.916C69.7154 40.424 69.4346 40 68.8341 40C68.2338 40 67.953 40.424 67.628 40.915C67.2913 41.424 66.9101 42 66.1872 42C65.4643 42 65.0831 41.424 64.747 40.915C64.4219 40.424 64.1412 40 63.5409 40C62.9404 40 62.6596 40.424 62.3346 40.915C61.9982 41.424 61.6166 42 60.8938 42C60.1709 42 59.7899 41.424 59.4535 40.915C59.1288 40.424 58.8483 40 58.248 40V38C58.9706 38 59.3519 38.576 59.6883 39.085C60.013 39.576 60.2935 40 60.8938 40C61.4946 40 61.7748 39.576 62.1001 39.085C62.4365 38.576 62.818 38 63.5409 38C64.2638 38 64.645 38.576 64.9811 39.085C65.3062 39.576 65.5869 40 66.1872 40C66.7875 40 67.0682 39.576 67.3933 39.085C67.7299 38.576 68.1112 38 68.8341 38C69.557 38 69.9382 38.576 70.2749 39.085C70.5996 39.576 70.8801 40 71.4809 40C72.0812 40 72.362 39.576 72.6873 39.084C73.0237 38.576 73.4052 38 74.1284 38C74.851 38 75.2325 38.576 75.5686 39.084C75.8937 39.576 76.1744 40 76.775 40C77.3755 40 77.6563 39.576 77.9813 39.085C78.318 38.576 78.6995 38 79.4227 38C80.1456 38 80.5274 38.576 80.8638 39.084C81.1889 39.576 81.4699 40 82.0708 40C82.6716 40 82.9518 39.576 83.2774 39.084C83.6135 38.576 83.9953 38 84.7182 38C85.4411 38 85.8229 38.576 86.159 39.084C86.4843 39.576 86.7648 40 87.3657 40C87.9665 40 88.2473 39.576 88.5723 39.085C88.909 38.576 89.2905 38 90.0137 38C90.7369 38 91.1184 38.576 91.4551 39.084C91.7801 39.576 92.0609 40 92.662 40C93.2629 40 93.5433 39.576 93.869 39.084C94.2054 38.576 94.5869 38 95.3098 38C96.0329 38 96.4145 38.576 96.7512 39.085C97.0759 39.576 97.357 40 97.9575 40C98.5581 40 98.8388 39.576 99.1639 39.085C99.5005 38.576 99.8821 38 100.605 38C101.328 38 101.71 38.576 102.046 39.085C102.371 39.576 102.652 40 103.253 40C103.854 40 104.134 39.576 104.459 39.084C104.796 38.576 105.178 38 105.901 38C106.624 38 107.006 38.576 107.343 39.084C107.668 39.576 107.949 40 108.55 40C109.151 40 109.432 39.576 109.757 39.084C110.093 38.576 110.475 38 111.198 38C111.922 38 112.304 38.576 112.641 39.084C112.966 39.576 113.247 40 113.848 40C114.449 40 114.731 39.576 115.056 39.084C115.393 38.576 115.775 38 116.498 38V40C115.897 40 115.616 40.424 115.29 40.916C114.954 41.424 114.572 42 113.848 42Z" fill="#BCAA53"/>
<path d="M172.099 61C171.376 61 170.994 60.424 170.657 59.916C170.331 59.424 170.05 59 169.449 59C168.848 59 168.568 59.424 168.242 59.916C167.906 60.424 167.524 61 166.801 61C166.077 61 165.696 60.424 165.359 59.916C165.034 59.424 164.753 59 164.152 59C163.551 59 163.27 59.424 162.945 59.916C162.608 60.424 162.227 61 161.504 61C160.781 61 160.399 60.424 160.063 59.916C159.738 59.424 159.457 59 158.856 59C158.255 59 157.975 59.424 157.65 59.916C157.313 60.424 156.932 61 156.208 61C155.485 61 155.104 60.424 154.767 59.916C154.443 59.424 154.162 59 153.561 59C152.96 59 152.68 59.424 152.354 59.915C152.018 60.424 151.636 61 150.913 61C150.19 61 149.808 60.424 149.472 59.916C149.147 59.424 148.866 59 148.265 59C147.664 59 147.383 59.424 147.058 59.916C146.721 60.424 146.34 61 145.617 61C144.894 61 144.512 60.424 144.176 59.915C143.851 59.424 143.57 59 142.969 59C142.368 59 142.088 59.424 141.763 59.915C141.426 60.424 141.045 61 140.322 61C139.598 61 139.217 60.424 138.88 59.916C138.555 59.424 138.275 59 137.674 59C137.073 59 136.792 59.424 136.467 59.916C136.13 60.424 135.749 61 135.026 61C134.303 61 133.922 60.424 133.585 59.915C133.26 59.424 132.98 59 132.379 59C131.779 59 131.498 59.424 131.173 59.916C130.836 60.424 130.455 61 129.732 61C129.009 61 128.628 60.424 128.291 59.916C127.966 59.424 127.686 59 127.085 59C126.485 59 126.204 59.424 125.879 59.915C125.542 60.424 125.161 61 124.438 61C123.715 61 123.334 60.424 122.998 59.915C122.673 59.424 122.392 59 121.792 59C121.191 59 120.911 59.424 120.586 59.915C120.249 60.424 119.868 61 119.145 61C118.422 61 118.041 60.424 117.705 59.915C117.38 59.424 117.099 59 116.499 59V57C117.222 57 117.603 57.576 117.939 58.085C118.264 58.576 118.544 59 119.145 59C119.746 59 120.026 58.576 120.351 58.085C120.687 57.576 121.069 57 121.792 57C122.515 57 122.896 57.576 123.232 58.085C123.557 58.576 123.838 59 124.438 59C125.038 59 125.319 58.576 125.644 58.085C125.981 57.576 126.362 57 127.085 57C127.808 57 128.189 57.576 128.526 58.085C128.851 58.576 129.131 59 129.732 59C130.332 59 130.613 58.576 130.938 58.084C131.275 57.576 131.656 57 132.379 57C133.102 57 133.483 57.576 133.82 58.084C134.145 58.576 134.425 59 135.026 59C135.627 59 135.907 58.576 136.232 58.085C136.569 57.576 136.951 57 137.674 57C138.397 57 138.778 57.576 139.115 58.084C139.44 58.576 139.721 59 140.322 59C140.923 59 141.203 58.576 141.528 58.084C141.864 57.576 142.246 57 142.969 57C143.692 57 144.074 57.576 144.41 58.084C144.735 58.576 145.016 59 145.617 59C146.217 59 146.498 58.576 146.823 58.085C147.16 57.576 147.542 57 148.265 57C148.988 57 149.369 57.576 149.706 58.084C150.031 58.576 150.312 59 150.913 59C151.514 59 151.794 58.576 152.12 58.084C152.456 57.576 152.838 57 153.561 57C154.284 57 154.665 57.576 155.002 58.085C155.327 58.576 155.608 59 156.208 59C156.809 59 157.09 58.576 157.415 58.085C157.752 57.576 158.133 57 158.856 57C159.579 57 159.961 57.576 160.297 58.085C160.622 58.576 160.903 59 161.504 59C162.105 59 162.385 58.576 162.71 58.084C163.047 57.576 163.429 57 164.152 57C164.875 57 165.257 57.576 165.594 58.084C165.919 58.576 166.2 59 166.801 59C167.402 59 167.683 58.576 168.008 58.084C168.344 57.576 168.725 57 169.449 57C170.173 57 170.555 57.576 170.892 58.084C171.217 58.576 171.498 59 172.099 59C172.7 59 172.982 58.576 173.307 58.084C173.644 57.576 174.026 57 174.749 57V59C174.148 59 173.867 59.424 173.541 59.916C173.205 60.424 172.823 61 172.099 61Z" fill="#BCAA53"/>
<path d="M55.5983 61C54.8746 61 54.4928 60.424 54.1561 59.916C53.8305 59.424 53.5494 59 52.9483 59C52.3474 59 52.0667 59.424 51.741 59.916C51.4047 60.424 51.0231 61 50.2997 61C49.5765 61 49.1947 60.424 48.8583 59.916C48.5329 59.424 48.2519 59 47.6507 59C47.0499 59 46.7691 59.424 46.4441 59.916C46.1074 60.424 45.7256 61 45.0027 61C44.2798 61 43.898 60.424 43.5619 59.916C43.2366 59.424 42.9561 59 42.3553 59C41.7544 59 41.4736 59.424 41.1486 59.916C40.8119 60.424 40.4307 61 39.7075 61C38.9843 61 38.6031 60.424 38.2664 59.916C37.9417 59.424 37.6606 59 37.0598 59C36.4589 59 36.1787 59.424 35.8531 59.915C35.5167 60.424 35.1352 61 34.412 61C33.6889 61 33.307 60.424 32.9706 59.916C32.6456 59.424 32.3645 59 31.7637 59C31.1628 59 30.8821 59.424 30.5571 59.916C30.2204 60.424 29.8388 61 29.1157 61C28.3928 61 28.0112 60.424 27.6749 59.915C27.3495 59.424 27.0691 59 26.4682 59C25.8674 59 25.5872 59.424 25.2616 59.915C24.9252 60.424 24.5436 61 23.8208 61C23.0973 61 22.716 60.424 22.3794 59.916C22.0543 59.424 21.7736 59 21.1727 59C20.5719 59 20.2911 59.424 19.9661 59.916C19.6294 60.424 19.2481 61 18.525 61C17.8021 61 17.4206 60.424 17.0845 59.915C16.7594 59.424 16.4787 59 15.8784 59C15.2775 59 14.9971 59.424 14.6718 59.916C14.3354 60.424 13.9538 61 13.2309 61C12.5081 61 12.1268 60.424 11.7901 59.916C11.4654 59.424 11.1846 59 10.5841 59C9.98381 59 9.70304 59.424 9.37801 59.915C9.04132 60.424 8.66008 61 7.9372 61C7.21432 61 6.83308 60.424 6.49697 59.915C6.17194 59.424 5.89118 59 5.29092 59C4.69036 59 4.4096 59.424 4.08456 59.915C3.74817 60.424 3.36663 61 2.64375 61C1.92087 61 1.53992 60.424 1.20352 59.915C0.878781 59.424 0.598311 59 -0.00195312 59V57C0.720635 57 1.10188 57.576 1.43827 58.085C1.76301 58.576 2.04349 59 2.64375 59C3.2446 59 3.52478 58.576 3.8501 58.085C4.1865 57.576 4.56804 57 5.29092 57C6.0138 57 6.39504 57.576 6.73114 58.085C7.05617 58.576 7.33694 59 7.9372 59C8.53747 59 8.81823 58.576 9.14326 58.085C9.47995 57.576 9.86119 57 10.5841 57C11.307 57 11.6882 57.576 12.0249 58.085C12.3496 58.576 12.6301 59 13.2309 59C13.8312 59 14.112 58.576 14.4373 58.084C14.7737 57.576 15.1552 57 15.8784 57C16.601 57 16.9825 57.576 17.3186 58.084C17.6437 58.576 17.9244 59 18.525 59C19.1255 59 19.4063 58.576 19.7313 58.085C20.068 57.576 20.4495 57 21.1727 57C21.8956 57 22.2774 57.576 22.6138 58.084C22.9389 58.576 23.2199 59 23.8208 59C24.4216 59 24.7018 58.576 25.0274 58.084C25.3635 57.576 25.7453 57 26.4682 57C27.1911 57 27.5729 57.576 27.909 58.084C28.2343 58.576 28.5148 59 29.1157 59C29.7165 59 29.9973 58.576 30.3223 58.085C30.659 57.576 31.0405 57 31.7637 57C32.4869 57 32.8684 57.576 33.2051 58.084C33.5301 58.576 33.8109 59 34.412 59C35.0129 59 35.2933 58.576 35.619 58.084C35.9554 57.576 36.3369 57 37.0598 57C37.7829 57 38.1645 57.576 38.5012 58.085C38.8259 58.576 39.107 59 39.7075 59C40.3081 59 40.5888 58.576 40.9139 58.085C41.2505 57.576 41.6321 57 42.3553 57C43.0781 57 43.4597 57.576 43.7961 58.085C44.1214 58.576 44.4019 59 45.0027 59C45.6036 59 45.8843 58.576 46.2094 58.084C46.546 57.576 46.9279 57 47.6507 57C48.3742 57 48.756 57.576 49.0927 58.084C49.418 58.576 49.6988 59 50.2999 59C50.9008 59 51.1816 58.576 51.5072 58.084C51.8433 57.576 52.2245 57 52.9483 57C53.6717 57 54.0539 57.576 54.3905 58.084C54.7162 58.576 54.9972 59 55.5983 59C56.1995 59 56.4805 58.576 56.8062 58.084C57.1428 57.576 57.5247 57 58.2484 57V59C57.647 59 57.3659 59.424 57.0403 59.916C56.7036 60.424 56.3221 61 55.5983 61Z" fill="#BCAA53"/>
<path d="M230.35 80C229.627 80 229.245 79.424 228.908 78.916C228.582 78.424 228.301 78 227.7 78C227.099 78 226.819 78.424 226.493 78.916C226.157 79.424 225.775 80 225.052 80C224.328 80 223.947 79.424 223.61 78.916C223.285 78.424 223.004 78 222.403 78C221.802 78 221.521 78.424 221.196 78.916C220.859 79.424 220.478 80 219.755 80C219.032 80 218.65 79.424 218.314 78.916C217.989 78.424 217.708 78 217.107 78C216.506 78 216.226 78.424 215.901 78.916C215.564 79.424 215.183 80 214.459 80C213.736 80 213.355 79.424 213.018 78.916C212.694 78.424 212.413 78 211.812 78C211.211 78 210.931 78.424 210.605 78.915C210.269 79.424 209.887 80 209.164 80C208.441 80 208.059 79.424 207.723 78.916C207.398 78.424 207.116 78 206.516 78C205.915 78 205.634 78.424 205.309 78.916C204.972 79.424 204.591 80 203.868 80C203.145 80 202.763 79.424 202.427 78.915C202.101 78.424 201.821 78 201.22 78C200.619 78 200.339 78.424 200.014 78.915C199.677 79.424 199.296 80 198.573 80C197.849 80 197.468 79.424 197.131 78.916C196.806 78.424 196.526 78 195.925 78C195.324 78 195.043 78.424 194.718 78.916C194.381 79.424 194 80 193.277 80C192.554 80 192.173 79.424 191.836 78.915C191.511 78.424 191.231 78 190.63 78C190.03 78 189.749 78.424 189.424 78.916C189.087 79.424 188.706 80 187.983 80C187.26 80 186.879 79.424 186.542 78.916C186.217 78.424 185.937 78 185.336 78C184.736 78 184.455 78.424 184.13 78.915C183.793 79.424 183.412 80 182.689 80C181.966 80 181.585 79.424 181.249 78.915C180.924 78.424 180.643 78 180.043 78C179.442 78 179.162 78.424 178.837 78.915C178.5 79.424 178.119 80 177.396 80C176.673 80 176.292 79.424 175.955 78.915C175.631 78.424 175.35 78 174.75 78V76C175.473 76 175.854 76.576 176.19 77.085C176.515 77.576 176.795 78 177.396 78C177.997 78 178.277 77.576 178.602 77.085C178.938 76.576 179.32 76 180.043 76C180.766 76 181.147 76.576 181.483 77.085C181.808 77.576 182.089 78 182.689 78C183.289 78 183.57 77.576 183.895 77.085C184.232 76.576 184.613 76 185.336 76C186.059 76 186.44 76.576 186.777 77.085C187.102 77.576 187.382 78 187.983 78C188.583 78 188.864 77.576 189.189 77.084C189.526 76.576 189.907 76 190.63 76C191.353 76 191.734 76.576 192.071 77.084C192.396 77.576 192.676 78 193.277 78C193.877 78 194.158 77.576 194.483 77.085C194.82 76.576 195.201 76 195.925 76C196.648 76 197.029 76.576 197.366 77.084C197.691 77.576 197.972 78 198.573 78C199.174 78 199.454 77.576 199.779 77.084C200.115 76.576 200.497 76 201.22 76C201.943 76 202.325 76.576 202.661 77.084C202.986 77.576 203.267 78 203.868 78C204.468 78 204.749 77.576 205.074 77.085C205.411 76.576 205.792 76 206.516 76C207.239 76 207.62 76.576 207.957 77.084C208.282 77.576 208.563 78 209.164 78C209.765 78 210.045 77.576 210.371 77.084C210.707 76.576 211.089 76 211.812 76C212.535 76 212.916 76.576 213.253 77.085C213.578 77.576 213.859 78 214.459 78C215.06 78 215.341 77.576 215.666 77.085C216.002 76.576 216.384 76 217.107 76C217.83 76 218.212 76.576 218.548 77.085C218.873 77.576 219.154 78 219.755 78C220.356 78 220.636 77.576 220.961 77.084C221.298 76.576 221.68 76 222.403 76C223.126 76 223.508 76.576 223.845 77.084C224.17 77.576 224.451 78 225.052 78C225.653 78 225.934 77.576 226.259 77.084C226.595 76.576 226.976 76 227.7 76C228.424 76 228.806 76.576 229.142 77.084C229.468 77.576 229.749 78 230.35 78C230.951 78 231.232 77.576 231.558 77.084C231.895 76.576 232.277 76 233 76V78C232.399 78 232.118 78.424 231.792 78.916C231.456 79.424 231.074 80 230.35 80Z" fill="#BCAA53"/>
<path d="M113.848 80C113.125 80 112.743 79.424 112.406 78.916C112.08 78.424 111.799 78 111.198 78C110.597 78 110.317 78.424 109.991 78.916C109.655 79.424 109.273 80 108.55 80C107.826 80 107.445 79.424 107.108 78.916C106.783 78.424 106.502 78 105.901 78C105.3 78 105.019 78.424 104.694 78.916C104.357 79.424 103.976 80 103.253 80C102.53 80 102.148 79.424 101.812 78.916C101.487 78.424 101.206 78 100.605 78C100.004 78 99.7236 78.424 99.3986 78.916C99.0619 79.424 98.6807 80 97.9575 80C97.2343 80 96.8531 79.424 96.5164 78.916C96.1917 78.424 95.9106 78 95.3098 78C94.7089 78 94.4287 78.424 94.1031 78.915C93.7667 79.424 93.3852 80 92.662 80C91.9389 80 91.557 79.424 91.2206 78.916C90.8956 78.424 90.6145 78 90.0137 78C89.4128 78 89.1321 78.424 88.8071 78.916C88.4704 79.424 88.0888 80 87.3657 80C86.6428 80 86.2612 79.424 85.9249 78.915C85.5995 78.424 85.3191 78 84.7182 78C84.1174 78 83.8372 78.424 83.5116 78.915C83.1752 79.424 82.7936 80 82.0708 80C81.3473 80 80.966 79.424 80.6294 78.916C80.3043 78.424 80.0236 78 79.4227 78C78.8219 78 78.5411 78.424 78.2161 78.916C77.8794 79.424 77.4981 80 76.775 80C76.0521 80 75.6706 79.424 75.3345 78.915C75.0094 78.424 74.7287 78 74.1284 78C73.5275 78 73.2471 78.424 72.9218 78.916C72.5854 79.424 72.2038 80 71.4809 80C70.7581 80 70.3768 79.424 70.0401 78.916C69.7154 78.424 69.4346 78 68.8341 78C68.2338 78 67.953 78.424 67.628 78.915C67.2913 79.424 66.9101 80 66.1872 80C65.4643 80 65.0831 79.424 64.747 78.915C64.4219 78.424 64.1412 78 63.5409 78C62.9404 78 62.6596 78.424 62.3346 78.915C61.9982 79.424 61.6166 80 60.8938 80C60.1709 80 59.7899 79.424 59.4535 78.915C59.1288 78.424 58.8483 78 58.248 78V76C58.9706 76 59.3519 76.576 59.6883 77.085C60.013 77.576 60.2935 78 60.8938 78C61.4946 78 61.7748 77.576 62.1001 77.085C62.4365 76.576 62.818 76 63.5409 76C64.2638 76 64.645 76.576 64.9811 77.085C65.3062 77.576 65.5869 78 66.1872 78C66.7875 78 67.0682 77.576 67.3933 77.085C67.7299 76.576 68.1112 76 68.8341 76C69.557 76 69.9382 76.576 70.2749 77.085C70.5996 77.576 70.8801 78 71.4809 78C72.0812 78 72.362 77.576 72.6873 77.084C73.0237 76.576 73.4052 76 74.1284 76C74.851 76 75.2325 76.576 75.5686 77.084C75.8937 77.576 76.1744 78 76.775 78C77.3755 78 77.6563 77.576 77.9813 77.085C78.318 76.576 78.6995 76 79.4227 76C80.1456 76 80.5274 76.576 80.8638 77.084C81.1889 77.576 81.4699 78 82.0708 78C82.6716 78 82.9518 77.576 83.2774 77.084C83.6135 76.576 83.9953 76 84.7182 76C85.4411 76 85.8229 76.576 86.159 77.084C86.4843 77.576 86.7648 78 87.3657 78C87.9665 78 88.2473 77.576 88.5723 77.085C88.909 76.576 89.2905 76 90.0137 76C90.7369 76 91.1184 76.576 91.4551 77.084C91.7801 77.576 92.0609 78 92.662 78C93.2629 78 93.5433 77.576 93.869 77.084C94.2054 76.576 94.5869 76 95.3098 76C96.0329 76 96.4145 76.576 96.7512 77.085C97.0759 77.576 97.357 78 97.9575 78C98.5581 78 98.8388 77.576 99.1639 77.085C99.5005 76.576 99.8821 76 100.605 76C101.328 76 101.71 76.576 102.046 77.085C102.371 77.576 102.652 78 103.253 78C103.854 78 104.134 77.576 104.459 77.084C104.796 76.576 105.178 76 105.901 76C106.624 76 107.006 76.576 107.343 77.084C107.668 77.576 107.949 78 108.55 78C109.151 78 109.432 77.576 109.757 77.084C110.093 76.576 110.475 76 111.198 76C111.922 76 112.304 76.576 112.641 77.084C112.966 77.576 113.247 78 113.848 78C114.449 78 114.731 77.576 115.056 77.084C115.393 76.576 115.775 76 116.498 76V78C115.897 78 115.616 78.424 115.29 78.916C114.954 79.424 114.572 80 113.848 80Z" fill="#BCAA53"/>
</g>
<g opacity="0.8">
<path d="M172.099 4C171.376 4 170.994 3.42399 170.657 2.91599C170.331 2.42399 170.05 2 169.449 2C168.848 2 168.568 2.42399 168.242 2.91599C167.906 3.42399 167.524 4 166.801 4C166.077 4 165.696 3.42399 165.359 2.91599C165.034 2.42399 164.753 2 164.152 2C163.551 2 163.27 2.42399 162.945 2.91599C162.608 3.42399 162.227 4 161.504 4C160.781 4 160.399 3.42399 160.063 2.91599C159.738 2.42399 159.457 2 158.856 2C158.255 2 157.975 2.42399 157.65 2.91599C157.313 3.42399 156.932 4 156.208 4C155.485 4 155.104 3.42399 154.767 2.91599C154.443 2.42399 154.162 2 153.561 2C152.96 2 152.68 2.42401 152.354 2.91501C152.018 3.42401 151.636 4 150.913 4C150.19 4 149.808 3.42399 149.472 2.91599C149.147 2.42399 148.866 2 148.265 2C147.664 2 147.383 2.42399 147.058 2.91599C146.721 3.42399 146.34 4 145.617 4C144.894 4 144.512 3.42401 144.176 2.91501C143.851 2.42401 143.57 2 142.969 2C142.368 2 142.088 2.42401 141.763 2.91501C141.426 3.42401 141.045 4 140.322 4C139.598 4 139.217 3.42399 138.88 2.91599C138.555 2.42399 138.275 2 137.674 2C137.073 2 136.792 2.42399 136.467 2.91599C136.13 3.42399 135.749 4 135.026 4C134.303 4 133.922 3.42401 133.585 2.91501C133.26 2.42401 132.98 2 132.379 2C131.779 2 131.498 2.42399 131.173 2.91599C130.836 3.42399 130.455 4 129.732 4C129.009 4 128.628 3.42399 128.291 2.91599C127.966 2.42399 127.686 2 127.085 2C126.485 2 126.204 2.42401 125.879 2.91501C125.542 3.42401 125.161 4 124.438 4C123.715 4 123.334 3.42401 122.998 2.91501C122.673 2.42401 122.392 2 121.792 2C121.191 2 120.911 2.42401 120.586 2.91501C120.249 3.42401 119.868 4 119.145 4C118.422 4 118.041 3.42401 117.705 2.91501C117.38 2.42401 117.099 2 116.499 2V0C117.222 0 117.603 0.575991 117.939 1.08499C118.264 1.57599 118.544 2 119.145 2C119.746 2 120.026 1.57599 120.351 1.08499C120.687 0.575991 121.069 0 121.792 0C122.515 0 122.896 0.575991 123.232 1.08499C123.557 1.57599 123.838 2 124.438 2C125.038 2 125.319 1.57599 125.644 1.08499C125.981 0.575991 126.362 0 127.085 0C127.808 0 128.189 0.575991 128.526 1.08499C128.851 1.57599 129.131 2 129.732 2C130.332 2 130.613 1.57601 130.938 1.08401C131.275 0.576015 131.656 0 132.379 0C133.102 0 133.483 0.576015 133.82 1.08401C134.145 1.57601 134.425 2 135.026 2C135.627 2 135.907 1.57599 136.232 1.08499C136.569 0.575991 136.951 0 137.674 0C138.397 0 138.778 0.576015 139.115 1.08401C139.44 1.57601 139.721 2 140.322 2C140.923 2 141.203 1.57601 141.528 1.08401C141.864 0.576015 142.246 0 142.969 0C143.692 0 144.074 0.576015 144.41 1.08401C144.735 1.57601 145.016 2 145.617 2C146.217 2 146.498 1.57599 146.823 1.08499C147.16 0.575991 147.542 0 148.265 0C148.988 0 149.369 0.576015 149.706 1.08401C150.031 1.57601 150.312 2 150.913 2C151.514 2 151.794 1.57601 152.12 1.08401C152.456 0.576015 152.838 0 153.561 0C154.284 0 154.665 0.575991 155.002 1.08499C155.327 1.57599 155.608 2 156.208 2C156.809 2 157.09 1.57599 157.415 1.08499C157.752 0.575991 158.133 0 158.856 0C159.579 0 159.961 0.575991 160.297 1.08499C160.622 1.57599 160.903 2 161.504 2C162.105 2 162.385 1.57601 162.71 1.08401C163.047 0.576015 163.429 0 164.152 0C164.875 0 165.257 0.576015 165.594 1.08401C165.919 1.57601 166.2 2 166.801 2C167.402 2 167.683 1.57601 168.008 1.08401C168.344 0.576015 168.725 0 169.449 0C170.173 0 170.555 0.576015 170.892 1.08401C171.217 1.57601 171.498 2 172.099 2C172.7 2 172.982 1.57601 173.307 1.08401C173.644 0.576015 174.026 0 174.749 0V2C174.148 2 173.867 2.42399 173.541 2.91599C173.205 3.42399 172.823 4 172.099 4Z" fill="#CD7855"/>
<path d="M55.5983 4C54.8746 4 54.4928 3.42399 54.1561 2.91599C53.8305 2.42399 53.5494 2 52.9483 2C52.3474 2 52.0667 2.42399 51.741 2.91599C51.4047 3.42399 51.0231 4 50.2997 4C49.5765 4 49.1947 3.42399 48.8583 2.91599C48.5329 2.42399 48.2519 2 47.6507 2C47.0499 2 46.7691 2.42399 46.4441 2.91599C46.1074 3.42399 45.7256 4 45.0027 4C44.2798 4 43.898 3.42399 43.5619 2.91599C43.2366 2.42399 42.9561 2 42.3553 2C41.7544 2 41.4736 2.42399 41.1486 2.91599C40.8119 3.42399 40.4307 4 39.7075 4C38.9843 4 38.6031 3.42399 38.2664 2.91599C37.9417 2.42399 37.6606 2 37.0598 2C36.4589 2 36.1787 2.42401 35.8531 2.91501C35.5167 3.42401 35.1352 4 34.412 4C33.6889 4 33.307 3.42399 32.9706 2.91599C32.6456 2.42399 32.3645 2 31.7637 2C31.1628 2 30.8821 2.42399 30.5571 2.91599C30.2204 3.42399 29.8388 4 29.1157 4C28.3928 4 28.0112 3.42401 27.6749 2.91501C27.3495 2.42401 27.0691 2 26.4682 2C25.8674 2 25.5872 2.42401 25.2616 2.91501C24.9252 3.42401 24.5436 4 23.8208 4C23.0973 4 22.716 3.42399 22.3794 2.91599C22.0543 2.42399 21.7736 2 21.1727 2C20.5719 2 20.2911 2.42399 19.9661 2.91599C19.6294 3.42399 19.2481 4 18.525 4C17.8021 4 17.4206 3.42401 17.0845 2.91501C16.7594 2.42401 16.4787 2 15.8784 2C15.2775 2 14.9971 2.42399 14.6718 2.91599C14.3354 3.42399 13.9538 4 13.2309 4C12.5081 4 12.1268 3.42399 11.7901 2.91599C11.4654 2.42399 11.1846 2 10.5841 2C9.98381 2 9.70304 2.42401 9.37801 2.91501C9.04132 3.42401 8.66008 4 7.9372 4C7.21432 4 6.83308 3.42401 6.49697 2.91501C6.17194 2.42401 5.89118 2 5.29092 2C4.69036 2 4.4096 2.42401 4.08456 2.91501C3.74817 3.42401 3.36663 4 2.64375 4C1.92087 4 1.53992 3.42401 1.20352 2.91501C0.878781 2.42401 0.598311 2 -0.00195312 2V0C0.720635 0 1.10188 0.575991 1.43827 1.08499C1.76301 1.57599 2.04349 2 2.64375 2C3.2446 2 3.52478 1.57599 3.8501 1.08499C4.1865 0.575991 4.56804 0 5.29092 0C6.0138 0 6.39504 0.575991 6.73114 1.08499C7.05617 1.57599 7.33694 2 7.9372 2C8.53747 2 8.81823 1.57599 9.14326 1.08499C9.47995 0.575991 9.86119 0 10.5841 0C11.307 0 11.6882 0.575991 12.0249 1.08499C12.3496 1.57599 12.6301 2 13.2309 2C13.8312 2 14.112 1.57601 14.4373 1.08401C14.7737 0.576015 15.1552 0 15.8784 0C16.601 0 16.9825 0.576015 17.3186 1.08401C17.6437 1.57601 17.9244 2 18.525 2C19.1255 2 19.4063 1.57599 19.7313 1.08499C20.068 0.575991 20.4495 0 21.1727 0C21.8956 0 22.2774 0.576015 22.6138 1.08401C22.9389 1.57601 23.2199 2 23.8208 2C24.4216 2 24.7018 1.57601 25.0274 1.08401C25.3635 0.576015 25.7453 0 26.4682 0C27.1911 0 27.5729 0.576015 27.909 1.08401C28.2343 1.57601 28.5148 2 29.1157 2C29.7165 2 29.9973 1.57599 30.3223 1.08499C30.659 0.575991 31.0405 0 31.7637 0C32.4869 0 32.8684 0.576015 33.2051 1.08401C33.5301 1.57601 33.8109 2 34.412 2C35.0129 2 35.2933 1.57601 35.619 1.08401C35.9554 0.576015 36.3369 0 37.0598 0C37.7829 0 38.1645 0.575991 38.5012 1.08499C38.8259 1.57599 39.107 2 39.7075 2C40.3081 2 40.5888 1.57599 40.9139 1.08499C41.2505 0.575991 41.6321 0 42.3553 0C43.0781 0 43.4597 0.575991 43.7961 1.08499C44.1214 1.57599 44.4019 2 45.0027 2C45.6036 2 45.8843 1.57601 46.2094 1.08401C46.546 0.576015 46.9279 0 47.6507 0C48.3742 0 48.756 0.576015 49.0927 1.08401C49.418 1.57601 49.6988 2 50.2999 2C50.9008 2 51.1816 1.57601 51.5072 1.08401C51.8433 0.576015 52.2245 0 52.9483 0C53.6717 0 54.0539 0.576015 54.3905 1.08401C54.7162 1.57601 54.9972 2 55.5983 2C56.1995 2 56.4805 1.57601 56.8062 1.08401C57.1428 0.576015 57.5247 0 58.2484 0V2C57.647 2 57.3659 2.42399 57.0403 2.91599C56.7036 3.42399 56.3221 4 55.5983 4Z" fill="#CD7855"/>
<path d="M230.35 23C229.627 23 229.245 22.424 228.908 21.916C228.582 21.424 228.301 21 227.7 21C227.099 21 226.819 21.424 226.493 21.916C226.157 22.424 225.775 23 225.052 23C224.328 23 223.947 22.424 223.61 21.916C223.285 21.424 223.004 21 222.403 21C221.802 21 221.521 21.424 221.196 21.916C220.859 22.424 220.478 23 219.755 23C219.032 23 218.65 22.424 218.314 21.916C217.989 21.424 217.708 21 217.107 21C216.506 21 216.226 21.424 215.901 21.916C215.564 22.424 215.183 23 214.459 23C213.736 23 213.355 22.424 213.018 21.916C212.694 21.424 212.413 21 211.812 21C211.211 21 210.931 21.424 210.605 21.915C210.269 22.424 209.887 23 209.164 23C208.441 23 208.059 22.424 207.723 21.916C207.398 21.424 207.116 21 206.516 21C205.915 21 205.634 21.424 205.309 21.916C204.972 22.424 204.591 23 203.868 23C203.145 23 202.763 22.424 202.427 21.915C202.101 21.424 201.821 21 201.22 21C200.619 21 200.339 21.424 200.014 21.915C199.677 22.424 199.296 23 198.573 23C197.849 23 197.468 22.424 197.131 21.916C196.806 21.424 196.526 21 195.925 21C195.324 21 195.043 21.424 194.718 21.916C194.381 22.424 194 23 193.277 23C192.554 23 192.173 22.424 191.836 21.915C191.511 21.424 191.231 21 190.63 21C190.03 21 189.749 21.424 189.424 21.916C189.087 22.424 188.706 23 187.983 23C187.26 23 186.879 22.424 186.542 21.916C186.217 21.424 185.937 21 185.336 21C184.736 21 184.455 21.424 184.13 21.915C183.793 22.424 183.412 23 182.689 23C181.966 23 181.585 22.424 181.249 21.915C180.924 21.424 180.643 21 180.043 21C179.442 21 179.162 21.424 178.837 21.915C178.5 22.424 178.119 23 177.396 23C176.673 23 176.292 22.424 175.955 21.915C175.631 21.424 175.35 21 174.75 21V19C175.473 19 175.854 19.576 176.19 20.085C176.515 20.576 176.795 21 177.396 21C177.997 21 178.277 20.576 178.602 20.085C178.938 19.576 179.32 19 180.043 19C180.766 19 181.147 19.576 181.483 20.085C181.808 20.576 182.089 21 182.689 21C183.289 21 183.57 20.576 183.895 20.085C184.232 19.576 184.613 19 185.336 19C186.059 19 186.44 19.576 186.777 20.085C187.102 20.576 187.382 21 187.983 21C188.583 21 188.864 20.576 189.189 20.084C189.526 19.576 189.907 19 190.63 19C191.353 19 191.734 19.576 192.071 20.084C192.396 20.576 192.676 21 193.277 21C193.877 21 194.158 20.576 194.483 20.085C194.82 19.576 195.201 19 195.925 19C196.648 19 197.029 19.576 197.366 20.084C197.691 20.576 197.972 21 198.573 21C199.174 21 199.454 20.576 199.779 20.084C200.115 19.576 200.497 19 201.22 19C201.943 19 202.325 19.576 202.661 20.084C202.986 20.576 203.267 21 203.868 21C204.468 21 204.749 20.576 205.074 20.085C205.411 19.576 205.792 19 206.516 19C207.239 19 207.62 19.576 207.957 20.084C208.282 20.576 208.563 21 209.164 21C209.765 21 210.045 20.576 210.371 20.084C210.707 19.576 211.089 19 211.812 19C212.535 19 212.916 19.576 213.253 20.085C213.578 20.576 213.859 21 214.459 21C215.06 21 215.341 20.576 215.666 20.085C216.002 19.576 216.384 19 217.107 19C217.83 19 218.212 19.576 218.548 20.085C218.873 20.576 219.154 21 219.755 21C220.356 21 220.636 20.576 220.961 20.084C221.298 19.576 221.68 19 222.403 19C223.126 19 223.508 19.576 223.845 20.084C224.17 20.576 224.451 21 225.052 21C225.653 21 225.934 20.576 226.259 20.084C226.595 19.576 226.976 19 227.7 19C228.424 19 228.806 19.576 229.142 20.084C229.468 20.576 229.749 21 230.35 21C230.951 21 231.232 20.576 231.558 20.084C231.895 19.576 232.277 19 233 19V21C232.399 21 232.118 21.424 231.792 21.916C231.456 22.424 231.074 23 230.35 23Z" fill="#CD7855"/>
<path d="M113.848 23C113.125 23 112.743 22.424 112.406 21.916C112.08 21.424 111.799 21 111.198 21C110.597 21 110.317 21.424 109.991 21.916C109.655 22.424 109.273 23 108.55 23C107.826 23 107.445 22.424 107.108 21.916C106.783 21.424 106.502 21 105.901 21C105.3 21 105.019 21.424 104.694 21.916C104.357 22.424 103.976 23 103.253 23C102.53 23 102.148 22.424 101.812 21.916C101.487 21.424 101.206 21 100.605 21C100.004 21 99.7236 21.424 99.3986 21.916C99.0619 22.424 98.6807 23 97.9575 23C97.2343 23 96.8531 22.424 96.5164 21.916C96.1917 21.424 95.9106 21 95.3098 21C94.7089 21 94.4287 21.424 94.1031 21.915C93.7667 22.424 93.3852 23 92.662 23C91.9389 23 91.557 22.424 91.2206 21.916C90.8956 21.424 90.6145 21 90.0137 21C89.4128 21 89.1321 21.424 88.8071 21.916C88.4704 22.424 88.0888 23 87.3657 23C86.6428 23 86.2612 22.424 85.9249 21.915C85.5995 21.424 85.3191 21 84.7182 21C84.1174 21 83.8372 21.424 83.5116 21.915C83.1752 22.424 82.7936 23 82.0708 23C81.3473 23 80.966 22.424 80.6294 21.916C80.3043 21.424 80.0236 21 79.4227 21C78.8219 21 78.5411 21.424 78.2161 21.916C77.8794 22.424 77.4981 23 76.775 23C76.0521 23 75.6706 22.424 75.3345 21.915C75.0094 21.424 74.7287 21 74.1284 21C73.5275 21 73.2471 21.424 72.9218 21.916C72.5854 22.424 72.2038 23 71.4809 23C70.7581 23 70.3768 22.424 70.0401 21.916C69.7154 21.424 69.4346 21 68.8341 21C68.2338 21 67.953 21.424 67.628 21.915C67.2913 22.424 66.9101 23 66.1872 23C65.4643 23 65.0831 22.424 64.747 21.915C64.4219 21.424 64.1412 21 63.5409 21C62.9404 21 62.6596 21.424 62.3346 21.915C61.9982 22.424 61.6166 23 60.8938 23C60.1709 23 59.7899 22.424 59.4535 21.915C59.1288 21.424 58.8483 21 58.248 21V19C58.9706 19 59.3519 19.576 59.6883 20.085C60.013 20.576 60.2935 21 60.8938 21C61.4946 21 61.7748 20.576 62.1001 20.085C62.4365 19.576 62.818 19 63.5409 19C64.2638 19 64.645 19.576 64.9811 20.085C65.3062 20.576 65.5869 21 66.1872 21C66.7875 21 67.0682 20.576 67.3933 20.085C67.7299 19.576 68.1112 19 68.8341 19C69.557 19 69.9382 19.576 70.2749 20.085C70.5996 20.576 70.8801 21 71.4809 21C72.0812 21 72.362 20.576 72.6873 20.084C73.0237 19.576 73.4052 19 74.1284 19C74.851 19 75.2325 19.576 75.5686 20.084C75.8937 20.576 76.1744 21 76.775 21C77.3755 21 77.6563 20.576 77.9813 20.085C78.318 19.576 78.6995 19 79.4227 19C80.1456 19 80.5274 19.576 80.8638 20.084C81.1889 20.576 81.4699 21 82.0708 21C82.6716 21 82.9518 20.576 83.2774 20.084C83.6135 19.576 83.9953 19 84.7182 19C85.4411 19 85.8229 19.576 86.159 20.084C86.4843 20.576 86.7648 21 87.3657 21C87.9665 21 88.2473 20.576 88.5723 20.085C88.909 19.576 89.2905 19 90.0137 19C90.7369 19 91.1184 19.576 91.4551 20.084C91.7801 20.576 92.0609 21 92.662 21C93.2629 21 93.5433 20.576 93.869 20.084C94.2054 19.576 94.5869 19 95.3098 19C96.0329 19 96.4145 19.576 96.7512 20.085C97.0759 20.576 97.357 21 97.9575 21C98.5581 21 98.8388 20.576 99.1639 20.085C99.5005 19.576 99.8821 19 100.605 19C101.328 19 101.71 19.576 102.046 20.085C102.371 20.576 102.652 21 103.253 21C103.854 21 104.134 20.576 104.459 20.084C104.796 19.576 105.178 19 105.901 19C106.624 19 107.006 19.576 107.343 20.084C107.668 20.576 107.949 21 108.55 21C109.151 21 109.432 20.576 109.757 20.084C110.093 19.576 110.475 19 111.198 19C111.922 19 112.304 19.576 112.641 20.084C112.966 20.576 113.247 21 113.848 21C114.449 21 114.731 20.576 115.056 20.084C115.393 19.576 115.775 19 116.498 19V21C115.897 21 115.616 21.424 115.29 21.916C114.954 22.424 114.572 23 113.848 23Z" fill="#CD7855"/>
<path d="M172.099 42C171.376 42 170.994 41.424 170.657 40.916C170.331 40.424 170.05 40 169.449 40C168.848 40 168.568 40.424 168.242 40.916C167.906 41.424 167.524 42 166.801 42C166.077 42 165.696 41.424 165.359 40.916C165.034 40.424 164.753 40 164.152 40C163.551 40 163.27 40.424 162.945 40.916C162.608 41.424 162.227 42 161.504 42C160.781 42 160.399 41.424 160.063 40.916C159.738 40.424 159.457 40 158.856 40C158.255 40 157.975 40.424 157.65 40.916C157.313 41.424 156.932 42 156.208 42C155.485 42 155.104 41.424 154.767 40.916C154.443 40.424 154.162 40 153.561 40C152.96 40 152.68 40.424 152.354 40.915C152.018 41.424 151.636 42 150.913 42C150.19 42 149.808 41.424 149.472 40.916C149.147 40.424 148.866 40 148.265 40C147.664 40 147.383 40.424 147.058 40.916C146.721 41.424 146.34 42 145.617 42C144.894 42 144.512 41.424 144.176 40.915C143.851 40.424 143.57 40 142.969 40C142.368 40 142.088 40.424 141.763 40.915C141.426 41.424 141.045 42 140.322 42C139.598 42 139.217 41.424 138.88 40.916C138.555 40.424 138.275 40 137.674 40C137.073 40 136.792 40.424 136.467 40.916C136.13 41.424 135.749 42 135.026 42C134.303 42 133.922 41.424 133.585 40.915C133.26 40.424 132.98 40 132.379 40C131.779 40 131.498 40.424 131.173 40.916C130.836 41.424 130.455 42 129.732 42C129.009 42 128.628 41.424 128.291 40.916C127.966 40.424 127.686 40 127.085 40C126.485 40 126.204 40.424 125.879 40.915C125.542 41.424 125.161 42 124.438 42C123.715 42 123.334 41.424 122.998 40.915C122.673 40.424 122.392 40 121.792 40C121.191 40 120.911 40.424 120.586 40.915C120.249 41.424 119.868 42 119.145 42C118.422 42 118.041 41.424 117.705 40.915C117.38 40.424 117.099 40 116.499 40V38C117.222 38 117.603 38.576 117.939 39.085C118.264 39.576 118.544 40 119.145 40C119.746 40 120.026 39.576 120.351 39.085C120.687 38.576 121.069 38 121.792 38C122.515 38 122.896 38.576 123.232 39.085C123.557 39.576 123.838 40 124.438 40C125.038 40 125.319 39.576 125.644 39.085C125.981 38.576 126.362 38 127.085 38C127.808 38 128.189 38.576 128.526 39.085C128.851 39.576 129.131 40 129.732 40C130.332 40 130.613 39.576 130.938 39.084C131.275 38.576 131.656 38 132.379 38C133.102 38 133.483 38.576 133.82 39.084C134.145 39.576 134.425 40 135.026 40C135.627 40 135.907 39.576 136.232 39.085C136.569 38.576 136.951 38 137.674 38C138.397 38 138.778 38.576 139.115 39.084C139.44 39.576 139.721 40 140.322 40C140.923 40 141.203 39.576 141.528 39.084C141.864 38.576 142.246 38 142.969 38C143.692 38 144.074 38.576 144.41 39.084C144.735 39.576 145.016 40 145.617 40C146.217 40 146.498 39.576 146.823 39.085C147.16 38.576 147.542 38 148.265 38C148.988 38 149.369 38.576 149.706 39.084C150.031 39.576 150.312 40 150.913 40C151.514 40 151.794 39.576 152.12 39.084C152.456 38.576 152.838 38 153.561 38C154.284 38 154.665 38.576 155.002 39.085C155.327 39.576 155.608 40 156.208 40C156.809 40 157.09 39.576 157.415 39.085C157.752 38.576 158.133 38 158.856 38C159.579 38 159.961 38.576 160.297 39.085C160.622 39.576 160.903 40 161.504 40C162.105 40 162.385 39.576 162.71 39.084C163.047 38.576 163.429 38 164.152 38C164.875 38 165.257 38.576 165.594 39.084C165.919 39.576 166.2 40 166.801 40C167.402 40 167.683 39.576 168.008 39.084C168.344 38.576 168.725 38 169.449 38C170.173 38 170.555 38.576 170.892 39.084C171.217 39.576 171.498 40 172.099 40C172.7 40 172.982 39.576 173.307 39.084C173.644 38.576 174.026 38 174.749 38V40C174.148 40 173.867 40.424 173.541 40.916C173.205 41.424 172.823 42 172.099 42Z" fill="#CD7855"/>
<path d="M55.5983 42C54.8746 42 54.4928 41.424 54.1561 40.916C53.8305 40.424 53.5494 40 52.9483 40C52.3474 40 52.0667 40.424 51.741 40.916C51.4047 41.424 51.0231 42 50.2997 42C49.5765 42 49.1947 41.424 48.8583 40.916C48.5329 40.424 48.2519 40 47.6507 40C47.0499 40 46.7691 40.424 46.4441 40.916C46.1074 41.424 45.7256 42 45.0027 42C44.2798 42 43.898 41.424 43.5619 40.916C43.2366 40.424 42.9561 40 42.3553 40C41.7544 40 41.4736 40.424 41.1486 40.916C40.8119 41.424 40.4307 42 39.7075 42C38.9843 42 38.6031 41.424 38.2664 40.916C37.9417 40.424 37.6606 40 37.0598 40C36.4589 40 36.1787 40.424 35.8531 40.915C35.5167 41.424 35.1352 42 34.412 42C33.6889 42 33.307 41.424 32.9706 40.916C32.6456 40.424 32.3645 40 31.7637 40C31.1628 40 30.8821 40.424 30.5571 40.916C30.2204 41.424 29.8388 42 29.1157 42C28.3928 42 28.0112 41.424 27.6749 40.915C27.3495 40.424 27.0691 40 26.4682 40C25.8674 40 25.5872 40.424 25.2616 40.915C24.9252 41.424 24.5436 42 23.8208 42C23.0973 42 22.716 41.424 22.3794 40.916C22.0543 40.424 21.7736 40 21.1727 40C20.5719 40 20.2911 40.424 19.9661 40.916C19.6294 41.424 19.2481 42 18.525 42C17.8021 42 17.4206 41.424 17.0845 40.915C16.7594 40.424 16.4787 40 15.8784 40C15.2775 40 14.9971 40.424 14.6718 40.916C14.3354 41.424 13.9538 42 13.2309 42C12.5081 42 12.1268 41.424 11.7901 40.916C11.4654 40.424 11.1846 40 10.5841 40C9.98381 40 9.70304 40.424 9.37801 40.915C9.04132 41.424 8.66008 42 7.9372 42C7.21432 42 6.83308 41.424 6.49697 40.915C6.17194 40.424 5.89118 40 5.29092 40C4.69036 40 4.4096 40.424 4.08456 40.915C3.74817 41.424 3.36663 42 2.64375 42C1.92087 42 1.53992 41.424 1.20352 40.915C0.878781 40.424 0.598311 40 -0.00195312 40V38C0.720635 38 1.10188 38.576 1.43827 39.085C1.76301 39.576 2.04349 40 2.64375 40C3.2446 40 3.52478 39.576 3.8501 39.085C4.1865 38.576 4.56804 38 5.29092 38C6.0138 38 6.39504 38.576 6.73114 39.085C7.05617 39.576 7.33694 40 7.9372 40C8.53747 40 8.81823 39.576 9.14326 39.085C9.47995 38.576 9.86119 38 10.5841 38C11.307 38 11.6882 38.576 12.0249 39.085C12.3496 39.576 12.6301 40 13.2309 40C13.8312 40 14.112 39.576 14.4373 39.084C14.7737 38.576 15.1552 38 15.8784 38C16.601 38 16.9825 38.576 17.3186 39.084C17.6437 39.576 17.9244 40 18.525 40C19.1255 40 19.4063 39.576 19.7313 39.085C20.068 38.576 20.4495 38 21.1727 38C21.8956 38 22.2774 38.576 22.6138 39.084C22.9389 39.576 23.2199 40 23.8208 40C24.4216 40 24.7018 39.576 25.0274 39.084C25.3635 38.576 25.7453 38 26.4682 38C27.1911 38 27.5729 38.576 27.909 39.084C28.2343 39.576 28.5148 40 29.1157 40C29.7165 40 29.9973 39.576 30.3223 39.085C30.659 38.576 31.0405 38 31.7637 38C32.4869 38 32.8684 38.576 33.2051 39.084C33.5301 39.576 33.8109 40 34.412 40C35.0129 40 35.2933 39.576 35.619 39.084C35.9554 38.576 36.3369 38 37.0598 38C37.7829 38 38.1645 38.576 38.5012 39.085C38.8259 39.576 39.107 40 39.7075 40C40.3081 40 40.5888 39.576 40.9139 39.085C41.2505 38.576 41.6321 38 42.3553 38C43.0781 38 43.4597 38.576 43.7961 39.085C44.1214 39.576 44.4019 40 45.0027 40C45.6036 40 45.8843 39.576 46.2094 39.084C46.546 38.576 46.9279 38 47.6507 38C48.3742 38 48.756 38.576 49.0927 39.084C49.418 39.576 49.6988 40 50.2999 40C50.9008 40 51.1816 39.576 51.5072 39.084C51.8433 38.576 52.2245 38 52.9483 38C53.6717 38 54.0539 38.576 54.3905 39.084C54.7162 39.576 54.9972 40 55.5983 40C56.1995 40 56.4805 39.576 56.8062 39.084C57.1428 38.576 57.5247 38 58.2484 38V40C57.647 40 57.3659 40.424 57.0403 40.916C56.7036 41.424 56.3221 42 55.5983 42Z" fill="#CD7855"/>
<path d="M230.35 61C229.627 61 229.245 60.424 228.908 59.916C228.582 59.424 228.301 59 227.7 59C227.099 59 226.819 59.424 226.493 59.916C226.157 60.424 225.775 61 225.052 61C224.328 61 223.947 60.424 223.61 59.916C223.285 59.424 223.004 59 222.403 59C221.802 59 221.521 59.424 221.196 59.916C220.859 60.424 220.478 61 219.755 61C219.032 61 218.65 60.424 218.314 59.916C217.989 59.424 217.708 59 217.107 59C216.506 59 216.226 59.424 215.901 59.916C215.564 60.424 215.183 61 214.459 61C213.736 61 213.355 60.424 213.018 59.916C212.694 59.424 212.413 59 211.812 59C211.211 59 210.931 59.424 210.605 59.915C210.269 60.424 209.887 61 209.164 61C208.441 61 208.059 60.424 207.723 59.916C207.398 59.424 207.116 59 206.516 59C205.915 59 205.634 59.424 205.309 59.916C204.972 60.424 204.591 61 203.868 61C203.145 61 202.763 60.424 202.427 59.915C202.101 59.424 201.821 59 201.22 59C200.619 59 200.339 59.424 200.014 59.915C199.677 60.424 199.296 61 198.573 61C197.849 61 197.468 60.424 197.131 59.916C196.806 59.424 196.526 59 195.925 59C195.324 59 195.043 59.424 194.718 59.916C194.381 60.424 194 61 193.277 61C192.554 61 192.173 60.424 191.836 59.915C191.511 59.424 191.231 59 190.63 59C190.03 59 189.749 59.424 189.424 59.916C189.087 60.424 188.706 61 187.983 61C187.26 61 186.879 60.424 186.542 59.916C186.217 59.424 185.937 59 185.336 59C184.736 59 184.455 59.424 184.13 59.915C183.793 60.424 183.412 61 182.689 61C181.966 61 181.585 60.424 181.249 59.915C180.924 59.424 180.643 59 180.043 59C179.442 59 179.162 59.424 178.837 59.915C178.5 60.424 178.119 61 177.396 61C176.673 61 176.292 60.424 175.955 59.915C175.631 59.424 175.35 59 174.75 59V57C175.473 57 175.854 57.576 176.19 58.085C176.515 58.576 176.795 59 177.396 59C177.997 59 178.277 58.576 178.602 58.085C178.938 57.576 179.32 57 180.043 57C180.766 57 181.147 57.576 181.483 58.085C181.808 58.576 182.089 59 182.689 59C183.289 59 183.57 58.576 183.895 58.085C184.232 57.576 184.613 57 185.336 57C186.059 57 186.44 57.576 186.777 58.085C187.102 58.576 187.382 59 187.983 59C188.583 59 188.864 58.576 189.189 58.084C189.526 57.576 189.907 57 190.63 57C191.353 57 191.734 57.576 192.071 58.084C192.396 58.576 192.676 59 193.277 59C193.877 59 194.158 58.576 194.483 58.085C194.82 57.576 195.201 57 195.925 57C196.648 57 197.029 57.576 197.366 58.084C197.691 58.576 197.972 59 198.573 59C199.174 59 199.454 58.576 199.779 58.084C200.115 57.576 200.497 57 201.22 57C201.943 57 202.325 57.576 202.661 58.084C202.986 58.576 203.267 59 203.868 59C204.468 59 204.749 58.576 205.074 58.085C205.411 57.576 205.792 57 206.516 57C207.239 57 207.62 57.576 207.957 58.084C208.282 58.576 208.563 59 209.164 59C209.765 59 210.045 58.576 210.371 58.084C210.707 57.576 211.089 57 211.812 57C212.535 57 212.916 57.576 213.253 58.085C213.578 58.576 213.859 59 214.459 59C215.06 59 215.341 58.576 215.666 58.085C216.002 57.576 216.384 57 217.107 57C217.83 57 218.212 57.576 218.548 58.085C218.873 58.576 219.154 59 219.755 59C220.356 59 220.636 58.576 220.961 58.084C221.298 57.576 221.68 57 222.403 57C223.126 57 223.508 57.576 223.845 58.084C224.17 58.576 224.451 59 225.052 59C225.653 59 225.934 58.576 226.259 58.084C226.595 57.576 226.976 57 227.7 57C228.424 57 228.806 57.576 229.142 58.084C229.468 58.576 229.749 59 230.35 59C230.951 59 231.232 58.576 231.558 58.084C231.895 57.576 232.277 57 233 57V59C232.399 59 232.118 59.424 231.792 59.916C231.456 60.424 231.074 61 230.35 61Z" fill="#CD7855"/>
<path d="M113.848 61C113.125 61 112.743 60.424 112.406 59.916C112.08 59.424 111.799 59 111.198 59C110.597 59 110.317 59.424 109.991 59.916C109.655 60.424 109.273 61 108.55 61C107.826 61 107.445 60.424 107.108 59.916C106.783 59.424 106.502 59 105.901 59C105.3 59 105.019 59.424 104.694 59.916C104.357 60.424 103.976 61 103.253 61C102.53 61 102.148 60.424 101.812 59.916C101.487 59.424 101.206 59 100.605 59C100.004 59 99.7236 59.424 99.3986 59.916C99.0619 60.424 98.6807 61 97.9575 61C97.2343 61 96.8531 60.424 96.5164 59.916C96.1917 59.424 95.9106 59 95.3098 59C94.7089 59 94.4287 59.424 94.1031 59.915C93.7667 60.424 93.3852 61 92.662 61C91.9389 61 91.557 60.424 91.2206 59.916C90.8956 59.424 90.6145 59 90.0137 59C89.4128 59 89.1321 59.424 88.8071 59.916C88.4704 60.424 88.0888 61 87.3657 61C86.6428 61 86.2612 60.424 85.9249 59.915C85.5995 59.424 85.3191 59 84.7182 59C84.1174 59 83.8372 59.424 83.5116 59.915C83.1752 60.424 82.7936 61 82.0708 61C81.3473 61 80.966 60.424 80.6294 59.916C80.3043 59.424 80.0236 59 79.4227 59C78.8219 59 78.5411 59.424 78.2161 59.916C77.8794 60.424 77.4981 61 76.775 61C76.0521 61 75.6706 60.424 75.3345 59.915C75.0094 59.424 74.7287 59 74.1284 59C73.5275 59 73.2471 59.424 72.9218 59.916C72.5854 60.424 72.2038 61 71.4809 61C70.7581 61 70.3768 60.424 70.0401 59.916C69.7154 59.424 69.4346 59 68.8341 59C68.2338 59 67.953 59.424 67.628 59.915C67.2913 60.424 66.9101 61 66.1872 61C65.4643 61 65.0831 60.424 64.747 59.915C64.4219 59.424 64.1412 59 63.5409 59C62.9404 59 62.6596 59.424 62.3346 59.915C61.9982 60.424 61.6166 61 60.8938 61C60.1709 61 59.7899 60.424 59.4535 59.915C59.1288 59.424 58.8483 59 58.248 59V57C58.9706 57 59.3519 57.576 59.6883 58.085C60.013 58.576 60.2935 59 60.8938 59C61.4946 59 61.7748 58.576 62.1001 58.085C62.4365 57.576 62.818 57 63.5409 57C64.2638 57 64.645 57.576 64.9811 58.085C65.3062 58.576 65.5869 59 66.1872 59C66.7875 59 67.0682 58.576 67.3933 58.085C67.7299 57.576 68.1112 57 68.8341 57C69.557 57 69.9382 57.576 70.2749 58.085C70.5996 58.576 70.8801 59 71.4809 59C72.0812 59 72.362 58.576 72.6873 58.084C73.0237 57.576 73.4052 57 74.1284 57C74.851 57 75.2325 57.576 75.5686 58.084C75.8937 58.576 76.1744 59 76.775 59C77.3755 59 77.6563 58.576 77.9813 58.085C78.318 57.576 78.6995 57 79.4227 57C80.1456 57 80.5274 57.576 80.8638 58.084C81.1889 58.576 81.4699 59 82.0708 59C82.6716 59 82.9518 58.576 83.2774 58.084C83.6135 57.576 83.9953 57 84.7182 57C85.4411 57 85.8229 57.576 86.159 58.084C86.4843 58.576 86.7648 59 87.3657 59C87.9665 59 88.2473 58.576 88.5723 58.085C88.909 57.576 89.2905 57 90.0137 57C90.7369 57 91.1184 57.576 91.4551 58.084C91.7801 58.576 92.0609 59 92.662 59C93.2629 59 93.5433 58.576 93.869 58.084C94.2054 57.576 94.5869 57 95.3098 57C96.0329 57 96.4145 57.576 96.7512 58.085C97.0759 58.576 97.357 59 97.9575 59C98.5581 59 98.8388 58.576 99.1639 58.085C99.5005 57.576 99.8821 57 100.605 57C101.328 57 101.71 57.576 102.046 58.085C102.371 58.576 102.652 59 103.253 59C103.854 59 104.134 58.576 104.459 58.084C104.796 57.576 105.178 57 105.901 57C106.624 57 107.006 57.576 107.343 58.084C107.668 58.576 107.949 59 108.55 59C109.151 59 109.432 58.576 109.757 58.084C110.093 57.576 110.475 57 111.198 57C111.922 57 112.304 57.576 112.641 58.084C112.966 58.576 113.247 59 113.848 59C114.449 59 114.731 58.576 115.056 58.084C115.393 57.576 115.775 57 116.498 57V59C115.897 59 115.616 59.424 115.29 59.916C114.954 60.424 114.572 61 113.848 61Z" fill="#CD7855"/>
<path d="M172.099 80C171.376 80 170.994 79.424 170.657 78.916C170.331 78.424 170.05 78 169.449 78C168.848 78 168.568 78.424 168.242 78.916C167.906 79.424 167.524 80 166.801 80C166.077 80 165.696 79.424 165.359 78.916C165.034 78.424 164.753 78 164.152 78C163.551 78 163.27 78.424 162.945 78.916C162.608 79.424 162.227 80 161.504 80C160.781 80 160.399 79.424 160.063 78.916C159.738 78.424 159.457 78 158.856 78C158.255 78 157.975 78.424 157.65 78.916C157.313 79.424 156.932 80 156.208 80C155.485 80 155.104 79.424 154.767 78.916C154.443 78.424 154.162 78 153.561 78C152.96 78 152.68 78.424 152.354 78.915C152.018 79.424 151.636 80 150.913 80C150.19 80 149.808 79.424 149.472 78.916C149.147 78.424 148.866 78 148.265 78C147.664 78 147.383 78.424 147.058 78.916C146.721 79.424 146.34 80 145.617 80C144.894 80 144.512 79.424 144.176 78.915C143.851 78.424 143.57 78 142.969 78C142.368 78 142.088 78.424 141.763 78.915C141.426 79.424 141.045 80 140.322 80C139.598 80 139.217 79.424 138.88 78.916C138.555 78.424 138.275 78 137.674 78C137.073 78 136.792 78.424 136.467 78.916C136.13 79.424 135.749 80 135.026 80C134.303 80 133.922 79.424 133.585 78.915C133.26 78.424 132.98 78 132.379 78C131.779 78 131.498 78.424 131.173 78.916C130.836 79.424 130.455 80 129.732 80C129.009 80 128.628 79.424 128.291 78.916C127.966 78.424 127.686 78 127.085 78C126.485 78 126.204 78.424 125.879 78.915C125.542 79.424 125.161 80 124.438 80C123.715 80 123.334 79.424 122.998 78.915C122.673 78.424 122.392 78 121.792 78C121.191 78 120.911 78.424 120.586 78.915C120.249 79.424 119.868 80 119.145 80C118.422 80 118.041 79.424 117.705 78.915C117.38 78.424 117.099 78 116.499 78V76C117.222 76 117.603 76.576 117.939 77.085C118.264 77.576 118.544 78 119.145 78C119.746 78 120.026 77.576 120.351 77.085C120.687 76.576 121.069 76 121.792 76C122.515 76 122.896 76.576 123.232 77.085C123.557 77.576 123.838 78 124.438 78C125.038 78 125.319 77.576 125.644 77.085C125.981 76.576 126.362 76 127.085 76C127.808 76 128.189 76.576 128.526 77.085C128.851 77.576 129.131 78 129.732 78C130.332 78 130.613 77.576 130.938 77.084C131.275 76.576 131.656 76 132.379 76C133.102 76 133.483 76.576 133.82 77.084C134.145 77.576 134.425 78 135.026 78C135.627 78 135.907 77.576 136.232 77.085C136.569 76.576 136.951 76 137.674 76C138.397 76 138.778 76.576 139.115 77.084C139.44 77.576 139.721 78 140.322 78C140.923 78 141.203 77.576 141.528 77.084C141.864 76.576 142.246 76 142.969 76C143.692 76 144.074 76.576 144.41 77.084C144.735 77.576 145.016 78 145.617 78C146.217 78 146.498 77.576 146.823 77.085C147.16 76.576 147.542 76 148.265 76C148.988 76 149.369 76.576 149.706 77.084C150.031 77.576 150.312 78 150.913 78C151.514 78 151.794 77.576 152.12 77.084C152.456 76.576 152.838 76 153.561 76C154.284 76 154.665 76.576 155.002 77.085C155.327 77.576 155.608 78 156.208 78C156.809 78 157.09 77.576 157.415 77.085C157.752 76.576 158.133 76 158.856 76C159.579 76 159.961 76.576 160.297 77.085C160.622 77.576 160.903 78 161.504 78C162.105 78 162.385 77.576 162.71 77.084C163.047 76.576 163.429 76 164.152 76C164.875 76 165.257 76.576 165.594 77.084C165.919 77.576 166.2 78 166.801 78C167.402 78 167.683 77.576 168.008 77.084C168.344 76.576 168.725 76 169.449 76C170.173 76 170.555 76.576 170.892 77.084C171.217 77.576 171.498 78 172.099 78C172.7 78 172.982 77.576 173.307 77.084C173.644 76.576 174.026 76 174.749 76V78C174.148 78 173.867 78.424 173.541 78.916C173.205 79.424 172.823 80 172.099 80Z" fill="#CD7855"/>
<path d="M55.5983 80C54.8746 80 54.4928 79.424 54.1561 78.916C53.8305 78.424 53.5494 78 52.9483 78C52.3474 78 52.0667 78.424 51.741 78.916C51.4047 79.424 51.0231 80 50.2997 80C49.5765 80 49.1947 79.424 48.8583 78.916C48.5329 78.424 48.2519 78 47.6507 78C47.0499 78 46.7691 78.424 46.4441 78.916C46.1074 79.424 45.7256 80 45.0027 80C44.2798 80 43.898 79.424 43.5619 78.916C43.2366 78.424 42.9561 78 42.3553 78C41.7544 78 41.4736 78.424 41.1486 78.916C40.8119 79.424 40.4307 80 39.7075 80C38.9843 80 38.6031 79.424 38.2664 78.916C37.9417 78.424 37.6606 78 37.0598 78C36.4589 78 36.1787 78.424 35.8531 78.915C35.5167 79.424 35.1352 80 34.412 80C33.6889 80 33.307 79.424 32.9706 78.916C32.6456 78.424 32.3645 78 31.7637 78C31.1628 78 30.8821 78.424 30.5571 78.916C30.2204 79.424 29.8388 80 29.1157 80C28.3928 80 28.0112 79.424 27.6749 78.915C27.3495 78.424 27.0691 78 26.4682 78C25.8674 78 25.5872 78.424 25.2616 78.915C24.9252 79.424 24.5436 80 23.8208 80C23.0973 80 22.716 79.424 22.3794 78.916C22.0543 78.424 21.7736 78 21.1727 78C20.5719 78 20.2911 78.424 19.9661 78.916C19.6294 79.424 19.2481 80 18.525 80C17.8021 80 17.4206 79.424 17.0845 78.915C16.7594 78.424 16.4787 78 15.8784 78C15.2775 78 14.9971 78.424 14.6718 78.916C14.3354 79.424 13.9538 80 13.2309 80C12.5081 80 12.1268 79.424 11.7901 78.916C11.4654 78.424 11.1846 78 10.5841 78C9.98381 78 9.70304 78.424 9.37801 78.915C9.04132 79.424 8.66008 80 7.9372 80C7.21432 80 6.83308 79.424 6.49697 78.915C6.17194 78.424 5.89118 78 5.29092 78C4.69036 78 4.4096 78.424 4.08456 78.915C3.74817 79.424 3.36663 80 2.64375 80C1.92087 80 1.53992 79.424 1.20352 78.915C0.878781 78.424 0.598311 78 -0.00195312 78V76C0.720635 76 1.10188 76.576 1.43827 77.085C1.76301 77.576 2.04349 78 2.64375 78C3.2446 78 3.52478 77.576 3.8501 77.085C4.1865 76.576 4.56804 76 5.29092 76C6.0138 76 6.39504 76.576 6.73114 77.085C7.05617 77.576 7.33694 78 7.9372 78C8.53747 78 8.81823 77.576 9.14326 77.085C9.47995 76.576 9.86119 76 10.5841 76C11.307 76 11.6882 76.576 12.0249 77.085C12.3496 77.576 12.6301 78 13.2309 78C13.8312 78 14.112 77.576 14.4373 77.084C14.7737 76.576 15.1552 76 15.8784 76C16.601 76 16.9825 76.576 17.3186 77.084C17.6437 77.576 17.9244 78 18.525 78C19.1255 78 19.4063 77.576 19.7313 77.085C20.068 76.576 20.4495 76 21.1727 76C21.8956 76 22.2774 76.576 22.6138 77.084C22.9389 77.576 23.2199 78 23.8208 78C24.4216 78 24.7018 77.576 25.0274 77.084C25.3635 76.576 25.7453 76 26.4682 76C27.1911 76 27.5729 76.576 27.909 77.084C28.2343 77.576 28.5148 78 29.1157 78C29.7165 78 29.9973 77.576 30.3223 77.085C30.659 76.576 31.0405 76 31.7637 76C32.4869 76 32.8684 76.576 33.2051 77.084C33.5301 77.576 33.8109 78 34.412 78C35.0129 78 35.2933 77.576 35.619 77.084C35.9554 76.576 36.3369 76 37.0598 76C37.7829 76 38.1645 76.576 38.5012 77.085C38.8259 77.576 39.107 78 39.7075 78C40.3081 78 40.5888 77.576 40.9139 77.085C41.2505 76.576 41.6321 76 42.3553 76C43.0781 76 43.4597 76.576 43.7961 77.085C44.1214 77.576 44.4019 78 45.0027 78C45.6036 78 45.8843 77.576 46.2094 77.084C46.546 76.576 46.9279 76 47.6507 76C48.3742 76 48.756 76.576 49.0927 77.084C49.418 77.576 49.6988 78 50.2999 78C50.9008 78 51.1816 77.576 51.5072 77.084C51.8433 76.576 52.2245 76 52.9483 76C53.6717 76 54.0539 76.576 54.3905 77.084C54.7162 77.576 54.9972 78 55.5983 78C56.1995 78 56.4805 77.576 56.8062 77.084C57.1428 76.576 57.5247 76 58.2484 76V78C57.647 78 57.3659 78.424 57.0403 78.916C56.7036 79.424 56.3221 80 55.5983 80Z" fill="#CD7855"/>
</g>
</svg>
